NotoSerifDivesAkuru (Autosaved).glyphspackage
{
glyphname = "i-divesakuru";
kernLeft = i.first;
kernRight = i;
lastChange = "2025-02-05 08:22:42 +0000";
layers = (
{
.lastUpdate = 760441996.22;
background = {
shapes = (
{
closed = 1;
nodes = (
(332,-315,o),
(444,-298,o),
(555,-267,cs),
(745,-212,o),
(930,-103,o),
(930,13,cs),
(930,112,o),
(806,148,o),
(722,139,c),
(675,101,l),
(774,101,o),
(814,55,o),
(814,2,cs),
(814,-87,o),
(691,-168,o),
(541,-211,cs),
(471,-231,o),
(374,-253,o),
(297,-253,cs),
(222,-253,o),
(166,-232,o),
(169,-182,cs),
(171,-143,o),
(233,-110,o),
(323,-87,c),
(313,-47,l),
(142,-84,o),
(50,-139,o),
(50,-212,cs),
(50,-277,o),
(140,-315,o),
(256,-316,cs)
);
},
{
closed = 1;
nodes = (
(261,238,o),
(310,195,o),
(378,195,cs),
(457,195,o),
(519,252,o),
(519,312,cs),
(519,356,o),
(485,404,o),
(422,404,cs),
(404,404,o),
(382,400,o),
(358,389,c,{
"Letterink-NibData" = {
AngleInDegrees = "360";
};
}),
(384,355,l),
(413,408,o),
(490,447,o),
(562,447,cs),
(658,447,o),
(737,379,o),
(737,293,cs),
(737,200,o),
(655,111,o),
(494,71,c),
(508,27,l),
(715,72,o),
(855,190,o),
(855,316,cs),
(855,421,o),
(750,508,o),
(592,508,cs),
(414,508,o),
(261,398,o,{
"Letterink-NibData" = {
AngleInDegrees = "360";
};
}),
(261,296,cs)
);
}
);
};
backgroundImage = {
angle = 12;
imagePath = "/Users/fernandodemoraescaro/Library/CloudStorage/GoogleDrive-fernando.de-moraes-caro@mail.ensa-nancy.fr/Other computers/My MacBook Air/ANRT/Other/Work/Noto/2_Research/1_Character samples/Simple characters/Document 39/Samples/i_D39_214.jpg";
pos = (-1338,-924);
scale = (52,52);
};
layerId = "0C4B00F6-5348-41D6-8EE7-AA18FE59D1B1";
name = Regular;
shapes = (
{
ref = "i-divesakuru.0001";
}
);
width = 1005;
},
{
associatedMasterId = "0C4B00F6-5348-41D6-8EE7-AA18FE59D1B1";
background = {
shapes = (
{
closed = 1;
nodes = (
(881,-369,o),
(1099,-236,o),
(1099,-121,cs),
(1099,-72,o),
(1060,-34,o),
(960,-34,cs),
(893,-34,o),
(772,-54,o),
(622,-101,c,{
"Letterink-NibData" = {
AngleInDegrees = "360";
};
}),
(634,-145,l,{
"Letterink-NibData" = {
AngleInDegrees = "360";
};
}),
(744,-116,o),
(850,-98,o),
(907,-98,cs),
(960,-98,o),
(986,-116,o),
(986,-142,cs),
(986,-215,o),
(814,-309,o),
(546,-309,cs),
(331,-309,o),
(230,-251,o),
(230,-177,cs),
(230,-117,o),
(295,-92,o),
(388,-59,cs),
(559,0,o),
(779,97,o),
(779,281,cs),
(779,412,o),
(666,512,o),
(499,512,cs),
(314,512,o),
(127,383,o),
(127,245,cs),
(127,183,o),
(176,140,o),
(246,140,cs),
(322,141,o),
(386,198,o),
(385,260,cs),
(385,317,o),
(325,374,o),
(221,334,c,{
"Letterink-NibData" = {
AngleInDegrees = "360";
};
}),
(248,303,l),
(282,409,o),
(379,447,o),
(463,447,cs),
(578,447,o),
(661,378,o),
(661,271,cs),
(661,117,o),
(488,34,o),
(332,-16,cs),
(214,-56,o),
(112,-95,o),
(112,-183,cs),
(112,-295,o),
(265,-369,o),
(522,-369,cs)
);
}
);
};
layerId = "2BEE084F-ACBD-4070-AC97-64A3EC5996C0";
name = "Apr 21, 24 at 18:22";
shapes = (
{
closed = 1;
nodes = (
(-261,-353,o),
(21,-316,o),
(293,-245,cs),
(575,-172,o),
(843,-61,o),
(843,98,cs),
(843,182,o),
(755,214,o),
(674,214,cs),
(657,214,o),
(641,212,o),
(625,210,c),
(543,175,l),
(684,192,o),
(726,132,o),
(726,81,cs),
(726,-39,o),
(508,-128,o),
(282,-188,cs),
(25,-256,o),
(-243,-291,o),
(-360,-291,cs),
(-471,-291,o),
(-508,-261,o),
(-508,-224,cs),
(-508,-187,o),
(-472,-151,o),
(-386,-121,c),
(-399,-85,l,{
"Letterink-NibData" = {
AngleInDegrees = "360";
};
}),
(-555,-128,o),
(-622,-194,o),
(-622,-253,cs),
(-622,-310,o),
(-559,-354,o),
(-400,-353,cs)
);
},
{
closed = 1;
nodes = (
(567,141,o),
(777,227,o),
(777,354,cs),
(777,436,o),
(698,509,o),
(538,509,cs),
(336,509,o),
(123,406,o),
(123,274,cs),
(124,208,o),
(174,170,o),
(241,171,cs),
(320,172,o),
(383,227,o),
(383,290,cs),
(382,349,o),
(336,393,o),
(218,368,c,{
"Letterink-NibData" = {
AngleInDegrees = "360";
};
}),
(252,340,l),
(297,412,o),
(410,448,o),
(502,448,cs),
(621,448,o),
(660,388,o),
(660,327,cs),
(660,252,o),
(585,198,o),
(452,167,c),
(463,124,l)
);
}
);
width = 924;
},
{
associatedMasterId = "0C4B00F6-5348-41D6-8EE7-AA18FE59D1B1";
backgroundImage = {
imagePath = "/Users/fernandodemoraescaro/Library/CloudStorage/GoogleDrive-fernando.de-moraes-caro@mail.ensa-nancy.fr/Other computers/My MacBook Air/ANRT/Other/Work/Noto/2_Research/1_Character samples/Simple characters/Document 39/Samples/i_D39_214.jpg";
locked = 1;
pos = (-1937,-686);
scale = (52,52);
};
layerId = "0EF5A0E0-4FB5-4B65-95DA-D44A873FE75D";
name = "Apr 23, 24 at 13:39";
shapes = (
{
closed = 1;
nodes = (
(-1009,-587,o),
(226,-305,o),
(497,-251,cs),
(848,-182,o),
(967,-67,o),
(967,5,cs),
(967,92,o),
(873,169,o),
(744,187,c),
(652,127,l),
(730,118,o),
(786,74,o),
(786,24,cs),
(786,-35,o),
(736,-112,o),
(475,-170,cs),
(232,-224,o),
(-1098,-497,o),
(-1333,-497,cs),
(-1414,-497,o),
(-1461,-470,o),
(-1461,-410,cs),
(-1461,-368,o),
(-1435,-330,o),
(-1333,-254,c),
(-1346,-215,l),
(-1505,-291,o),
(-1620,-380,o),
(-1620,-471,cs),
(-1620,-545,o),
(-1550,-587,o),
(-1390,-587,cs)
);
},
{
closed = 1;
nodes = (
(712,83,o),
(860,186,o),
(860,300,cs),
(860,400,o),
(731,476,o),
(544,476,cs),
(390,476,o),
(191,415,o),
(191,268,cs),
(191,212,o),
(245,146,o),
(361,146,cs),
(466,146,o),
(514,211,o),
(514,256,cs),
(514,301,o),
(468,389,o),
(431,424,c),
(421,347,l),
(455,376,o),
(501,405,o),
(553,405,cs),
(624,405,o),
(658,346,o),
(658,306,cs),
(658,238,o),
(646,168,o),
(493,100,c),
(534,34,l)
);
}
);
width = 924;
},
{
associatedMasterId = "0C4B00F6-5348-41D6-8EE7-AA18FE59D1B1";
background = {
shapes = (
{
closed = 1;
nodes = (
(-1235,-676,o),
(141,-361,o),
(443,-301,cs),
(834,-224,o),
(967,-96,o),
(967,-16,cs),
(967,81,o),
(862,167,o),
(718,187,c),
(616,120,l),
(703,110,o),
(765,61,o),
(765,5,cs),
(765,-61,o),
(710,-146,o),
(419,-211,cs),
(148,-271,o),
(-1335,-575,o),
(-1596,-575,cs),
(-1687,-575,o),
(-1739,-545,o),
(-1739,-479,cs),
(-1739,-432,o),
(-1710,-389,o),
(-1596,-305,c),
(-1611,-261,l),
(-1788,-346,o),
(-1916,-445,o),
(-1916,-546,cs),
(-1916,-629,o),
(-1838,-676,o),
(-1660,-676,cs)
);
},
{
closed = 1;
nodes = (
(683,71,o),
(848,186,o),
(848,313,cs),
(848,424,o),
(704,509,o),
(496,509,cs),
(324,509,o),
(102,441,o),
(102,277,cs),
(102,215,o),
(162,141,o),
(292,141,cs),
(409,141,o),
(462,214,o),
(462,264,cs),
(462,314,o),
(411,412,o),
(370,451,c),
(358,365,l),
(396,398,o),
(448,430,o),
(506,430,cs),
(585,430,o),
(623,364,o),
(623,320,cs),
(623,244,o),
(609,166,o),
(439,90,c),
(484,16,l)
);
}
);
};
backgroundImage = {
imagePath = "/Users/fernandodemoraescaro/Library/CloudStorage/GoogleDrive-fernando.de-moraes-caro@mail.ensa-nancy.fr/Other computers/My MacBook Air/ANRT/Other/Work/Noto/2_Research/1_Character samples/Simple characters/Document 39/Samples/i_D39_214.jpg";
locked = 1;
pos = (-1937,-686);
scale = (52,52);
};
layerId = "586FBEC3-08FE-43CD-9AED-123BA94FAD30";
name = "Apr 23, 24 at 14:32";
shapes = (
{
closed = 1;
nodes = (
(-1235,-676,o),
(141,-361,o),
(414,-307,cs),
(798,-232,o),
(917,-96,o),
(917,-2,cs),
(917,68,o),
(864,135,o),
(697,157,c),
(616,120,l),
(762,106,o),
(799,61,o),
(799,-2,cs),
(799,-70,o),
(739,-174,o),
(353,-259,cs),
(143,-306,o),
(-1339,-610,o),
(-1608,-610,cs),
(-1725,-611,o),
(-1799,-579,o),
(-1798,-509,cs),
(-1799,-450,o),
(-1749,-394,o),
(-1589,-295,c),
(-1611,-261,l),
(-1788,-346,o),
(-1916,-454,o),
(-1916,-548,cs),
(-1916,-629,o),
(-1838,-676,o),
(-1670,-676,cs)
);
},
{
closed = 1;
nodes = (
(651,86,o),
(798,193,o),
(798,309,cs),
(798,424,o),
(675,509,o),
(503,509,cs),
(324,509,o),
(150,396,o),
(150,285,cs),
(150,228,o),
(194,174,o),
(285,174,cs),
(375,174,o),
(414,245,o),
(414,285,cs),
(414,330,o),
(394,376,o),
(302,398,c),
(285,366,l),
(337,404,o),
(407,451,o),
(485,451,cs),
(613,451,o),
(673,375,o),
(673,289,cs),
(673,240,o),
(657,156,o),
(454,75,c),
(475,34,l)
);
}
);
width = 924;
},
{
associatedMasterId = "0C4B00F6-5348-41D6-8EE7-AA18FE59D1B1";
background = {
shapes = (
{
closed = 0;
nodes = (
(404,-312,ls),
(-1083,-603,ls)
);
}
);
};
backgroundImage = {
imagePath = "/Users/fernandodemoraescaro/Library/CloudStorage/GoogleDrive-fernando.de-moraes-caro@mail.ensa-nancy.fr/Other computers/My MacBook Air/ANRT/Other/Work/Noto/2_Research/1_Character samples/Simple characters/Document 39/Samples/i_D39_214.jpg";
locked = 1;
pos = (-1937,-686);
scale = (52,52);
};
layerId = "DD9ABC03-4607-46B2-AA12-D2301F787F07";
name = "Apr 23, 24 at 15:04";
shapes = (
{
closed = 1;
nodes = (
(-1562,-681,o),
(-1395,-664,o),
(-1082,-602,cs),
(414,-309,ls),
(746,-243,o),
(917,-132,o),
(917,-2,cs),
(917,68,o),
(864,135,o),
(697,157,c),
(616,120,l),
(762,106,o),
(799,61,o),
(799,-2,cs),
(799,-109,o),
(664,-202,o),
(391,-255,cs),
(-1096,-546,ls),
(-1388,-603,o),
(-1529,-615,o),
(-1608,-615,cs),
(-1725,-615,o),
(-1799,-584,o),
(-1798,-514,cs),
(-1799,-455,o),
(-1749,-399,o),
(-1589,-300,c),
(-1611,-266,l),
(-1788,-351,o),
(-1916,-459,o),
(-1916,-553,cs),
(-1916,-634,o),
(-1838,-681,o),
(-1670,-681,cs)
);
},
{
closed = 1;
nodes = (
(619,444,o),
(673,370,o),
(673,285,cs),
(673,198,o),
(612,128,o),
(454,75,c),
(475,34,l),
(681,84,o),
(798,203,o),
(798,305,cs),
(798,423,o),
(689,509,o),
(512,509,cs),
(332,509,o),
(150,385,o),
(150,252,cs),
(150,190,o),
(199,147,o),
(269,147,cs),
(345,148,o),
(409,205,o),
(408,267,cs),
(408,324,o),
(338,371,o),
(244,341,c,{
"Letterink-NibData" = {
AngleInDegrees = "360";
};
}),
(271,310,l),
(303,409,o),
(405,444,o),
(485,444,cs)
);
}
);
width = 924;
},
{
associatedMasterId = "0C4B00F6-5348-41D6-8EE7-AA18FE59D1B1";
background = {
shapes = (
{
closed = 1;
nodes = (
(-1574,-714,o),
(-1392,-692,o),
(-1081,-626,cs),
(411,-309,ls),
(746,-238,o),
(914,-137,o),
(913,-10,cs),
(913,62,o),
(858,144,o),
(693,157,c),
(612,120,l),
(757,116,o),
(797,41,o),
(797,-19,cs),
(797,-128,o),
(663,-196,o),
(387,-255,cs),
(-1095,-570,ls),
(-1386,-631,o),
(-1526,-646,o),
(-1604,-646,cs),
(-1722,-647,o),
(-1796,-615,o),
(-1796,-544,cs),
(-1796,-487,o),
(-1747,-431,o),
(-1589,-332,c),
(-1608,-297,l),
(-1785,-382,o),
(-1914,-490,o),
(-1913,-587,cs),
(-1912,-664,o),
(-1851,-714,o),
(-1684,-714,cs)
);
},
{
closed = 1;
nodes = (
(615,444,o),
(669,357,o),
(669,281,cs),
(669,191,o),
(610,127,o),
(455,81,c),
(469,33,l),
(678,83,o),
(795,197,o),
(794,310,cs),
(794,418,o),
(691,509,o),
(518,509,cs),
(323,509,o),
(146,385,o),
(146,256,cs),
(146,190,o),
(195,147,o),
(263,147,cs),
(341,148,o),
(406,205,o),
(405,264,cs),
(404,324,o),
(335,371,o),
(241,341,c,{
"Letterink-NibData" = {
AngleInDegrees = "360";
};
}),
(267,310,l),
(300,404,o),
(400,444,o),
(488,444,cs)
);
}
);
};
backgroundImage = {
imagePath = "/Users/fernandodemoraescaro/Library/CloudStorage/GoogleDrive-fernando.de-moraes-caro@mail.ensa-nancy.fr/Other computers/My MacBook Air/ANRT/Other/Work/Noto/2_Research/1_Character samples/Simple characters/Document 39/Samples/i_D39_214.jpg";
locked = 1;
pos = (-1940,-678);
scale = (52,52);
};
layerId = "7E5A858D-F72E-41C5-83FB-0A5CC3A19C98";
name = "Apr 23, 24 at 15:24";
shapes = (
{
closed = 1;
nodes = (
(-1574,-714,o),
(-1392,-692,o),
(-1081,-626,cs),
(411,-309,ls),
(746,-238,o),
(914,-137,o),
(913,-10,cs),
(913,62,o),
(858,144,o),
(693,157,c),
(612,120,l),
(757,116,o),
(797,41,o),
(797,-19,cs),
(797,-128,o),
(663,-196,o),
(387,-255,cs),
(-1095,-570,ls),
(-1386,-631,o),
(-1526,-646,o),
(-1604,-646,cs),
(-1722,-647,o),
(-1796,-615,o),
(-1796,-544,cs),
(-1796,-487,o),
(-1747,-431,o),
(-1589,-332,c),
(-1608,-297,l),
(-1785,-382,o),
(-1914,-490,o),
(-1913,-587,cs),
(-1912,-664,o),
(-1851,-714,o),
(-1684,-714,cs)
);
},
{
closed = 1;
nodes = (
(615,444,o),
(669,357,o),
(669,281,cs),
(669,191,o),
(610,127,o),
(455,81,c),
(469,33,l),
(678,83,o),
(795,197,o),
(794,310,cs),
(794,418,o),
(691,509,o),
(518,509,cs),
(323,509,o),
(146,385,o),
(146,256,cs),
(146,190,o),
(195,147,o),
(263,147,cs),
(341,148,o),
(406,205,o),
(405,264,cs),
(404,324,o),
(335,371,o),
(241,341,c,{
"Letterink-NibData" = {
AngleInDegrees = "360";
};
}),
(267,310,l),
(300,404,o),
(400,444,o),
(488,444,cs)
);
}
);
width = 924;
},
{
associatedMasterId = "0C4B00F6-5348-41D6-8EE7-AA18FE59D1B1";
background = {
shapes = (
{
closed = 1;
nodes = (
(-1592,-730,o),
(-1404,-695,o),
(-1080,-627,cs),
(412,-310,ls),
(766,-235,o),
(916,-130,o),
(916,-24,cs),
(916,59,o),
(820,125,o),
(693,138,c),
(622,86,l),
(731,80,o),
(800,23,o),
(800,-37,cs),
(800,-119,o),
(683,-193,o),
(387,-256,cs),
(-1094,-571,ls),
(-1399,-635,o),
(-1545,-661,o),
(-1633,-661,cs),
(-1727,-662,o),
(-1789,-634,o),
(-1789,-576,cs),
(-1789,-523,o),
(-1737,-472,o),
(-1577,-382,c),
(-1596,-347,l),
(-1774,-425,o),
(-1907,-522,o),
(-1906,-617,cs),
(-1905,-682,o),
(-1843,-730,o),
(-1708,-730,cs)
);
},
{
closed = 1;
nodes = (
(589,443,o),
(660,365,o),
(660,275,cs),
(660,184,o),
(593,100,o),
(449,46,c),
(466,0,l),
(691,68,o),
(786,191,o),
(785,304,cs),
(784,427,o),
(667,508,o),
(506,508,cs),
(317,508,o),
(147,399,o),
(147,282,cs),
(147,219,o),
(196,176,o),
(264,176,cs),
(342,177,o),
(406,235,o),
(405,296,cs),
(404,354,o),
(346,410,o),
(242,370,c,{
"Letterink-NibData" = {
AngleInDegrees = "360";
};
}),
(275,339,l),
(305,412,o),
(393,443,o),
(470,443,cs)
);
}
);
};
backgroundImage = {
imagePath = "/Users/fernandodemoraescaro/Library/CloudStorage/GoogleDrive-fernando.de-moraes-caro@mail.ensa-nancy.fr/Other computers/My MacBook Air/ANRT/Other/Work/Noto/2_Research/1_Character samples/Simple characters/Document 39/Samples/i_D39_214.jpg";
pos = (-1982,-662);
scale = (52,52);
};
layerId = "891BB3B6-2F25-4BA4-87DD-73AF9D9F21B7";
name = "Apr 24, 24 at 15:54";
shapes = (
{
closed = 1;
nodes = (
(-1592,-730,o),
(-1404,-695,o),
(-1080,-627,cs),
(412,-310,ls),
(766,-235,o),
(916,-140,o),
(916,-17,cs),
(916,69,o),
(820,135,o),
(693,138,c),
(622,86,l),
(731,90,o),
(800,33,o),
(800,-33,cs),
(800,-129,o),
(683,-193,o),
(387,-256,cs),
(-1094,-571,ls),
(-1399,-635,o),
(-1545,-661,o),
(-1624,-661,cs),
(-1727,-662,o),
(-1789,-634,o),
(-1789,-573,cs),
(-1789,-523,o),
(-1737,-472,o),
(-1577,-382,c),
(-1596,-347,l),
(-1774,-425,o),
(-1907,-522,o),
(-1906,-615,cs),
(-1905,-682,o),
(-1843,-730,o),
(-1699,-730,cs)
);
},
{
closed = 1;
nodes = (
(593,443,o),
(660,368,o),
(660,270,cs),
(660,187,o),
(593,100,o),
(449,46,c),
(466,0,l),
(691,68,o),
(786,193,o),
(785,303,cs),
(784,429,o),
(669,508,o),
(500,508,cs),
(319,508,o),
(147,399,o),
(147,285,cs),
(147,219,o),
(196,176,o),
(264,177,cs),
(342,177,o),
(406,235,o),
(405,296,cs),
(404,354,o),
(346,410,o),
(242,370,c,{
"Letterink-NibData" = {
AngleInDegrees = "360";
};
}),
(275,339,l),
(305,412,o),
(397,443,o),
(467,443,cs)
);
}
);
width = 924;
},
{
associatedMasterId = "0C4B00F6-5348-41D6-8EE7-AA18FE59D1B1";
background = {
shapes = (
{
closed = 1;
nodes = (
(889,-150,o),
(889,-22,cs),
(889,55,o),
(798,139,o),
(619,130,c),
(568,78,l),
(709,95,o),
(773,19,o),
(773,-39,cs),
(773,-118,o),
(677,-184,o),
(240,-305,cs),
(-364,-472,o),
(-1079,-627,o),
(-1486,-654,cs),
(-1520,-656,o),
(-1547,-657,o),
(-1574,-657,cs),
(-1709,-657,o),
(-1774,-633,o),
(-1774,-590,cs),
(-1774,-537,o),
(-1676,-472,o),
(-1508,-414,c),
(-1522,-371,l),
(-1757,-452,o),
(-1891,-541,o),
(-1891,-624,cs),
(-1891,-685,o),
(-1817,-720,o),
(-1668,-720,cs),
(-1643,-720,o),
(-1613,-719,o),
(-1564,-716,cs),
(-1093,-684,o),
(-440,-549,o),
(271,-356,cs),
(735,-231,o)
);
},
{
closed = 1;
nodes = (
(116,226,o),
(165,182,o),
(236,182,cs),
(312,182,o),
(374,239,o),
(374,299,cs),
(374,343,o),
(340,391,o),
(278,391,cs),
(259,391,o),
(237,387,o),
(213,376,c,{
"Letterink-NibData" = {
AngleInDegrees = "360";
};
}),
(248,342,l),
(283,416,o),
(372,445,o),
(444,445,cs),
(551,445,o),
(642,364,o),
(642,261,cs),
(642,183,o),
(584,106,o),
(389,55,c),
(402,13,l),
(682,77,o),
(760,183,o),
(760,283,cs),
(760,402,o),
(641,508,o),
(454,508,cs),
(265,508,o),
(116,396,o,{
"Letterink-NibData" = {
AngleInDegrees = "360";
};
}),
(116,289,cs)
);
}
);
};
backgroundImage = {
imagePath = "/Users/fernandodemoraescaro/Library/CloudStorage/GoogleDrive-fernando.de-moraes-caro@mail.ensa-nancy.fr/Other computers/My MacBook Air/ANRT/Other/Work/Noto/2_Research/1_Character samples/Simple characters/Document 39/Samples/i_D39_214.jpg";
pos = (-2015,-653);
scale = (52,52);
};
layerId = "A8F74641-DF53-4E9C-8499-DC3EE4B0D33D";
name = "Apr 25, 24 at 15:18";
shapes = (
{
closed = 1;
nodes = (
(889,-145,o),
(889,-13,cs),
(889,78,o),
(788,136,o),
(619,128,c),
(568,78,l),
(689,84,o),
(773,45,o),
(773,-30,cs),
(773,-112,o),
(678,-184,o),
(240,-305,cs),
(-373,-475,o),
(-1100,-630,o),
(-1513,-657,cs),
(-1547,-659,o),
(-1574,-660,o),
(-1601,-660,cs),
(-1718,-660,o),
(-1774,-635,o),
(-1774,-590,cs),
(-1774,-537,o),
(-1676,-474,o),
(-1508,-414,c),
(-1522,-371,l),
(-1757,-452,o),
(-1891,-541,o),
(-1891,-624,cs),
(-1891,-685,o),
(-1817,-720,o),
(-1668,-720,cs),
(-1643,-720,o),
(-1613,-719,o),
(-1564,-716,cs),
(-1093,-684,o),
(-440,-549,o),
(271,-356,cs),
(736,-231,o)
);
},
{
closed = 1;
nodes = (
(116,226,o),
(165,182,o),
(236,182,cs),
(312,182,o),
(374,239,o),
(374,299,cs),
(374,343,o),
(340,391,o),
(278,391,cs),
(259,391,o),
(237,387,o),
(213,376,c,{
"Letterink-NibData" = {
AngleInDegrees = "360";
};
}),
(248,342,l),
(285,416,o),
(378,445,o),
(454,445,cs),
(556,445,o),
(642,368,o),
(642,271,cs),
(642,189,o),
(584,108,o),
(389,55,c),
(402,13,l),
(682,79,o),
(760,189,o),
(760,293,cs),
(760,407,o),
(645,508,o),
(464,508,cs),
(269,508,o),
(116,396,o,{
"Letterink-NibData" = {
AngleInDegrees = "360";
};
}),
(116,289,cs)
);
}
);
width = 894;
},
{
associatedMasterId = "0C4B00F6-5348-41D6-8EE7-AA18FE59D1B1";
background = {
shapes = (
{
closed = 1;
nodes = (
(116,230,o),
(165,186,o),
(236,186,cs),
(312,186,o),
(374,243,o),
(374,303,cs),
(374,347,o),
(340,395,o),
(278,395,cs),
(259,395,o),
(237,391,o),
(213,380,c,{
"Letterink-NibData" = {
AngleInDegrees = "360";
};
}),
(248,346,l),
(286,420,o),
(383,449,o),
(452,449,cs),
(560,449,o),
(643,377,o),
(643,285,cs),
(643,209,o),
(583,117,o),
(388,61,c),
(402,17,l),
(687,93,o),
(761,210,o),
(761,307,cs),
(761,415,o),
(649,512,o),
(472,512,cs),
(273,512,o),
(116,400,o,{
"Letterink-NibData" = {
AngleInDegrees = "360";
};
}),
(116,293,cs)
);
},
{
closed = 1;
nodes = (
(726,-233,o),
(872,-115,o),
(872,4,cs),
(871,105,o),
(769,159,o),
(608,139,c),
(553,90,l),
(678,108,o),
(755,71,o),
(755,-5,cs),
(756,-85,o),
(667,-186,o),
(287,-293,cs),
(14,-367,o),
(-249,-412,o),
(-413,-423,cs),
(-442,-424,o),
(-469,-426,o),
(-500,-425,cs),
(-610,-425,o),
(-665,-412,o),
(-665,-372,cs),
(-664,-345,o),
(-639,-311,o),
(-490,-271,c),
(-504,-228,l),
(-724,-291,o),
(-783,-348,o),
(-783,-402,cs),
(-783,-460,o),
(-711,-485,o),
(-565,-486,cs),
(-538,-486,o),
(-508,-484,o),
(-462,-482,cs),
(-266,-469,o),
(-11,-433,o),
(307,-347,cs)
);
}
);
};
backgroundImage = {
angle = 12;
imagePath = "/Users/fernandodemoraescaro/Library/CloudStorage/GoogleDrive-fernando.de-moraes-caro@mail.ensa-nancy.fr/Other computers/My MacBook Air/ANRT/Other/Work/Noto/2_Research/1_Character samples/Simple characters/Document 39/Samples/i_D39_214.jpg";
pos = (-1858,-1056);
scale = (52,52);
};
layerId = "58A50ED4-0B30-4B9E-8160-AE2E515F40AD";
name = "Apr 25, 24 at 16:03";
shapes = (
{
closed = 1;
nodes = (
(115,227,o),
(164,183,o),
(235,183,cs),
(311,183,o),
(373,240,o),
(373,300,cs),
(373,344,o),
(339,392,o),
(277,392,cs),
(258,392,o),
(236,388,o),
(212,377,c,{
"Letterink-NibData" = {
AngleInDegrees = "360";
};
}),
(247,343,l),
(285,417,o),
(382,446,o),
(451,446,cs),
(559,446,o),
(642,374,o),
(642,282,cs),
(642,206,o),
(582,114,o),
(387,58,c),
(401,14,l),
(686,90,o),
(760,207,o),
(760,304,cs),
(760,412,o),
(648,509,o),
(471,509,cs),
(272,509,o),
(115,397,o,{
"Letterink-NibData" = {
AngleInDegrees = "360";
};
}),
(115,290,cs)
);
},
{
closed = 1;
nodes = (
(745,-232,o),
(890,-114,o),
(890,6,cs),
(890,107,o),
(788,161,o),
(627,141,c),
(572,91,l),
(696,110,o),
(774,72,o),
(774,-3,cs),
(774,-83,o),
(686,-185,o),
(305,-291,cs),
(33,-366,o),
(-231,-410,o),
(-394,-421,cs),
(-423,-423,o),
(-450,-424,o),
(-481,-424,cs),
(-592,-424,o),
(-646,-411,o),
(-646,-371,cs),
(-646,-343,o),
(-620,-309,o),
(-471,-269,c),
(-485,-226,l),
(-705,-289,o),
(-764,-347,o),
(-764,-400,cs),
(-764,-458,o),
(-692,-484,o),
(-546,-484,cs),
(-519,-484,o),
(-489,-483,o),
(-444,-480,cs),
(-247,-467,o),
(8,-431,o),
(326,-345,cs)
);
}
);
width = 894;
},
{
associatedMasterId = "0C4B00F6-5348-41D6-8EE7-AA18FE59D1B1";
background = {
shapes = (
{
closed = 1;
nodes = (
(820,-105,o),
(820,13,cs),
(820,112,o),
(717,159,o),
(590,142,c),
(529,88,l),
(623,103,o),
(704,69,o),
(704,-6,cs),
(704,-84,o),
(615,-188,o),
(190,-305,cs),
(-423,-475,o),
(-1150,-630,o),
(-1563,-657,cs),
(-1597,-659,o),
(-1624,-660,o),
(-1651,-660,cs),
(-1768,-660,o),
(-1824,-635,o),
(-1824,-590,cs),
(-1824,-537,o),
(-1726,-474,o),
(-1558,-414,c),
(-1572,-371,l),
(-1807,-452,o),
(-1941,-541,o),
(-1941,-624,cs),
(-1941,-685,o),
(-1867,-720,o),
(-1718,-720,cs),
(-1693,-720,o),
(-1663,-719,o),
(-1614,-716,cs),
(-1143,-684,o),
(-490,-549,o),
(221,-356,cs),
(675,-234,o)
);
},
{
closed = 1;
nodes = (
(66,226,o),
(115,182,o),
(186,182,cs),
(262,182,o),
(324,239,o),
(324,299,cs),
(324,343,o),
(290,391,o),
(228,391,cs),
(209,391,o),
(187,387,o),
(163,376,c,{
"Letterink-NibData" = {
AngleInDegrees = "360";
};
}),
(198,342,l),
(236,416,o),
(333,445,o),
(403,445,cs),
(510,445,o),
(593,377,o),
(593,288,cs),
(593,202,o),
(515,110,o),
(338,57,c),
(352,13,l),
(610,84,o),
(711,203,o),
(711,307,cs),
(711,416,o),
(598,508,o),
(420,508,cs),
(223,508,o),
(66,396,o,{
"Letterink-NibData" = {
AngleInDegrees = "360";
};
}),
(66,289,cs)
);
}
);
};
backgroundImage = {
imagePath = "/Users/fernandodemoraescaro/Library/CloudStorage/GoogleDrive-fernando.de-moraes-caro@mail.ensa-nancy.fr/Other computers/My MacBook Air/ANRT/Other/Work/Noto/2_Research/1_Character samples/Simple characters/Document 39/Samples/i_D39_214.jpg";
pos = (-2073,-638);
scale = (52,52);
};
layerId = "8E8FB013-30A7-47B7-8EF0-B617443598F9";
name = "May 23, 24 at 12:59";
shapes = (
{
closed = 1;
nodes = (
(819,-177,o),
(819,20,cs),
(819,122,o),
(720,171,o),
(598,154,c),
(537,100,l),
(626,115,o),
(703,79,o),
(703,1,cs),
(703,-157,o),
(368,-286,o),
(-564,-493,cs),
(-949,-578,o),
(-1313,-641,o),
(-1563,-657,cs),
(-1597,-659,o),
(-1624,-660,o),
(-1651,-660,cs),
(-1768,-660,o),
(-1824,-635,o),
(-1824,-590,cs),
(-1824,-537,o),
(-1726,-474,o),
(-1558,-414,c),
(-1572,-371,l),
(-1807,-452,o),
(-1941,-541,o),
(-1941,-624,cs),
(-1941,-685,o),
(-1867,-720,o),
(-1718,-720,cs),
(-1693,-720,o),
(-1663,-719,o),
(-1614,-716,cs),
(-1321,-696,o),
(-957,-636,o),
(-552,-547,cs),
(458,-323,o)
);
},
{
closed = 1;
nodes = (
(66,226,o),
(115,182,o),
(186,182,cs),
(262,182,o),
(324,239,o),
(324,299,cs),
(324,343,o),
(290,391,o),
(228,391,cs),
(209,391,o),
(187,387,o),
(163,376,c,{
"Letterink-NibData" = {
AngleInDegrees = "360";
};
}),
(198,342,l),
(238,416,o),
(340,445,o),
(410,445,cs),
(514,445,o),
(593,381,o),
(593,294,cs),
(593,213,o),
(513,121,o),
(336,67,c),
(350,23,l),
(608,95,o),
(711,214,o),
(711,313,cs),
(711,421,o),
(602,508,o),
(426,508,cs),
(227,508,o),
(66,396,o,{
"Letterink-NibData" = {
AngleInDegrees = "360";
};
}),
(66,289,cs)
);
}
);
width = 844;
},
{
.lastUpdate = 760439271.63;
associatedMasterId = "0C4B00F6-5348-41D6-8EE7-AA18FE59D1B1";
background = {
shapes = (
{
closed = 1;
nodes = (
(-1399,-710,o),
(-847,-605,o),
(-493,-527,cs),
(449,-320,o),
(800,-164,o),
(800,10,cs),
(800,107,o),
(698,146,o),
(586,140,c),
(540,100,l),
(625,96,o),
(682,62,o),
(682,2,cs),
(682,-156,o),
(357,-278,o),
(-519,-472,cs),
(-812,-536,o),
(-1370,-650,o),
(-1630,-650,cs),
(-1756,-650,o),
(-1809,-622,o),
(-1809,-579,cs),
(-1809,-524,o),
(-1749,-481,o),
(-1543,-409,c),
(-1557,-371,l),
(-1792,-441,o),
(-1926,-509,o),
(-1926,-592,cs),
(-1926,-657,o),
(-1849,-710,o),
(-1667,-710,cs)
);
},
{
closed = 1;
nodes = (
(131,228,o),
(180,185,o),
(248,185,cs),
(327,185,o),
(389,242,o),
(389,302,cs),
(389,346,o),
(355,394,o),
(292,394,cs),
(274,394,o),
(252,390,o),
(228,379,c,{
"Letterink-NibData" = {
AngleInDegrees = "360";
};
}),
(254,345,l),
(286,404,o),
(372,447,o),
(445,447,cs),
(537,447,o),
(607,379,o),
(607,293,cs),
(607,200,o),
(525,111,o),
(364,71,c),
(378,27,l),
(585,72,o),
(725,190,o),
(725,316,cs),
(725,421,o),
(628,508,o),
(473,508,cs),
(294,508,o),
(131,393,o,{
"Letterink-NibData" = {
AngleInDegrees = "360";
};
}),
(131,286,cs)
);
}
);
};
backgroundImage = {
angle = 12;
imagePath = "/Users/fernandodemoraescaro/Library/CloudStorage/GoogleDrive-fernando.de-moraes-caro@mail.ensa-nancy.fr/Other computers/My MacBook Air/ANRT/Other/Work/Noto/2_Research/1_Character samples/Simple characters/Document 39/Samples/i_D39_214.jpg";
pos = (-1489,-924);
scale = (52,52);
};
layerId = "C84CC83A-1377-423B-83EE-6AD3DB2E893D";
name = "Aug 29, 24 at 16:13";
shapes = (
{
piece = {
width = 0;
};
ref = "_part.i-divesakuru";
}
);
width = 843;
}
);
unicode = 71938;
}
{
glyphname = "u-divesakuru";
kernLeft = va;
kernRight = u;
lastChange = "2025-02-05 09:03:24 +0000";
layers = (
{
.lastUpdate = 760439006.103;
background = {
shapes = (
{
closed = 1;
nodes = (
(509,448,l),
(530,453,o),
(551,456,o),
(569,456,cs),
(677,456,o),
(748,379,o),
(748,264,cs),
(748,80,o),
(559,-342,o),
(559,-518,cs),
(559,-627,o),
(635,-710,o),
(851,-710,cs),
(971,-710,o),
(1136,-682,o),
(1272,-646,c),
(1263,-601,l),
(1108,-634,o),
(987,-650,o),
(903,-650,cs),
(714,-650,o),
(667,-593,o),
(667,-499,cs),
(667,-338,o),
(855,87,o),
(856,283,cs),
(856,430,o),
(743,509,o),
(610,509,cs),
(557,509,o),
(477,492,o),
(402,458,c),
(402,446,l),
(441,416,o),
(470,362,o),
(470,307,cs),
(470,213,o),
(378,150,o),
(291,150,cs),
(225,150,o),
(191,190,o),
(191,231,cs),
(191,277,o),
(234,314,o),
(287,330,c,{
"Letterink-NibData" = {
AngleInDegrees = "360";
};
}),
(281,369,l),
(177,352,o),
(75,293,o),
(75,211,cs),
(75,143,o),
(144,85,o),
(255,85,cs),
(414,85,o),
(581,196,o),
(581,336,cs),
(581,391,o),
(550,443,o),
(514,470,c)
);
}
);
};
layerId = "0C4B00F6-5348-41D6-8EE7-AA18FE59D1B1";
shapes = (
{
closed = 1;
nodes = (
(971,-710,o),
(1136,-682,o),
(1272,-646,c),
(1263,-601,l),
(1108,-634,o),
(987,-650,o),
(903,-650,cs),
(714,-650,o),
(667,-593,o),
(667,-499,cs),
(667,-338,o),
(856,87,o),
(856,283,cs),
(856,430,o),
(743,509,o),
(610,509,cs),
(557,509,o),
(477,492,o),
(402,458,c),
(402,446,l),
(441,416,o),
(470,362,o),
(470,307,cs),
(470,213,o),
(378,149,o),
(291,149,cs),
(225,149,o),
(191,190,o),
(191,231,cs),
(191,277,o),
(234,314,o),
(287,330,c,{
"Letterink-NibData" = {
AngleInDegrees = "360";
};
}),
(281,369,l),
(177,352,o),
(75,293,o),
(75,211,cs),
(75,143,o),
(144,85,o),
(255,85,cs),
(414,85,o),
(581,196,o),
(581,336,cs),
(581,391,o),
(550,443,o),
(514,470,c),
(509,448,l),
(530,453,o),
(551,456,o),
(569,456,cs),
(677,456,o),
(748,379,o),
(748,264,cs),
(748,80,o),
(559,-342,o),
(559,-518,cs),
(559,-627,o),
(635,-710,o),
(851,-710,cs)
);
}
);
width = 960;
},
{
associatedMasterId = "0C4B00F6-5348-41D6-8EE7-AA18FE59D1B1";
background = {
shapes = (
{
closed = 1;
nodes = (
(1007,-710,o),
(1222,-667,o),
(1398,-613,c),
(1389,-568,l),
(1180,-623,o),
(1016,-650,o),
(903,-650,cs),
(714,-650,o),
(667,-593,o),
(667,-499,cs),
(667,-336,o),
(857,94,o),
(858,293,cs),
(858,433,o),
(751,509,o),
(625,509,cs),
(567,509,o),
(483,492,o),
(402,458,c),
(402,446,l),
(442,416,o),
(471,360,o),
(471,304,cs),
(471,208,o),
(384,143,o),
(293,143,cs),
(220,143,o),
(179,184,o),
(179,229,cs),
(179,279,o),
(219,312,o),
(279,329,c,{
"Letterink-NibData" = {
AngleInDegrees = "360";
};
}),
(273,368,l),
(162,353,o),
(63,295,o),
(63,209,cs),
(63,137,o),
(138,78,o),
(255,78,cs),
(421,78,o),
(585,191,o),
(585,334,cs),
(585,400,o),
(550,443,o),
(509,471,c),
(509,448,l),
(533,453,o),
(558,456,o),
(579,456,cs),
(682,456,o),
(750,383,o),
(750,274,cs),
(750,87,o),
(559,-340,o),
(559,-518,cs),
(559,-627,o),
(635,-710,o),
(851,-710,cs)
);
}
);
};
layerId = "C3281884-9938-43C6-87DB-493C1A98BE79";
name = "Jun 4, 24 at 00:01";
shapes = (
{
closed = 1;
nodes = (
(509,448,l),
(533,453,o),
(558,456,o),
(579,456,cs),
(682,456,o),
(750,383,o),
(750,274,cs),
(750,87,o),
(559,-340,o),
(559,-518,cs),
(559,-627,o),
(635,-710,o),
(851,-710,cs),
(1007,-710,o),
(1222,-667,o),
(1398,-613,c),
(1389,-568,l),
(1180,-623,o),
(1016,-650,o),
(903,-650,cs),
(714,-650,o),
(667,-593,o),
(667,-499,cs),
(667,-336,o),
(857,94,o),
(858,293,cs),
(858,433,o),
(751,509,o),
(625,509,cs),
(567,509,o),
(483,492,o),
(402,458,c),
(402,446,l),
(441,416,o),
(470,362,o),
(470,307,cs),
(470,213,o),
(378,150,o),
(291,150,cs),
(225,150,o),
(191,190,o),
(191,233,cs),
(191,282,o),
(234,314,o),
(287,330,c,{
"Letterink-NibData" = {
AngleInDegrees = "360";
};
}),
(281,369,l),
(177,355,o),
(75,298,o),
(75,214,cs),
(75,143,o),
(144,85,o),
(255,85,cs),
(414,85,o),
(581,196,o),
(581,336,cs),
(581,391,o),
(550,443,o),
(514,470,c)
);
}
);
width = 960;
},
{
associatedMasterId = "0C4B00F6-5348-41D6-8EE7-AA18FE59D1B1";
background = {
shapes = (
{
closed = 1;
nodes = (
(509,448,l),
(533,453,o),
(558,456,o),
(579,456,cs),
(681,456,o),
(748,379,o),
(748,264,cs),
(748,80,o),
(559,-342,o),
(559,-518,cs),
(559,-627,o),
(635,-710,o),
(851,-710,cs),
(971,-710,o),
(1136,-682,o),
(1272,-646,c),
(1263,-601,l),
(1108,-634,o),
(987,-650,o),
(903,-650,cs),
(714,-650,o),
(667,-593,o),
(667,-499,cs),
(667,-338,o),
(855,87,o),
(856,283,cs),
(856,430,o),
(748,509,o),
(620,509,cs),
(564,509,o),
(481,492,o),
(402,458,c),
(402,446,l),
(441,416,o),
(470,362,o),
(470,307,cs),
(470,213,o),
(378,150,o),
(291,150,cs),
(225,150,o),
(191,190,o),
(191,233,cs),
(191,282,o),
(234,314,o),
(287,330,c,{
"Letterink-NibData" = {
AngleInDegrees = "360";
};
}),
(281,369,l),
(177,355,o),
(75,298,o),
(75,214,cs),
(75,143,o),
(144,85,o),
(255,85,cs),
(414,85,o),
(581,196,o),
(581,336,cs),
(581,391,o),
(550,443,o),
(514,470,c)
);
}
);
};
layerId = "D6960689-932A-468F-9D81-0915FC5CBCDD";
name = "Jun 5, 24 at 11:44";
shapes = (
{
closed = 1;
nodes = (
(509,448,l),
(533,453,o),
(558,456,o),
(579,456,cs),
(681,456,o),
(748,379,o),
(748,264,cs),
(748,80,o),
(559,-342,o),
(559,-518,cs),
(559,-627,o),
(635,-710,o),
(851,-710,cs),
(971,-710,o),
(1136,-682,o),
(1272,-646,c),
(1263,-601,l),
(1108,-634,o),
(987,-650,o),
(903,-650,cs),
(714,-650,o),
(667,-593,o),
(667,-499,cs),
(667,-338,o),
(855,87,o),
(856,283,cs),
(856,430,o),
(748,509,o),
(620,509,cs),
(564,509,o),
(481,492,o),
(402,458,c),
(402,446,l),
(441,416,o),
(470,362,o),
(470,307,cs),
(470,213,o),
(378,150,o),
(291,150,cs),
(225,150,o),
(191,190,o),
(191,233,cs),
(191,282,o),
(234,314,o),
(287,330,c,{
"Letterink-NibData" = {
AngleInDegrees = "360";
};
}),
(281,369,l),
(177,355,o),
(75,298,o),
(75,214,cs),
(75,143,o),
(144,85,o),
(255,85,cs),
(414,85,o),
(581,196,o),
(581,336,cs),
(581,391,o),
(550,443,o),
(514,470,c)
);
}
);
width = 960;
}
);
unicode = 71940;
}
{
glyphname = "o-divesakuru";
kernLeft = va;
kernRight = ka;
lastChange = "2025-02-05 08:22:42 +0000";
layers = (
{
background = {
shapes = (
{
closed = 1;
nodes = (
(690,-15,o),
(802,38,o),
(894,110,c),
(929,137,l),
(1012,200,o),
(1078,272,o),
(1078,351,cs),
(1078,453,o),
(966,507,o),
(793,507,cs),
(634,507,o),
(480,468,o),
(401,435,c,{
"Letterink-NibData" = {
AngleInDegrees = "360";
};
}),
(401,423,l),
(441,395,o),
(470,342,o),
(470,292,cs),
(470,215,o),
(396,146,o),
(294,146,cs),
(227,146,o),
(191,184,o),
(191,225,cs),
(191,261,o),
(220,306,o),
(287,325,c,{
"Letterink-NibData" = {
AngleInDegrees = "360";
};
}),
(281,364,l),
(123,334,o),
(75,261,o),
(75,203,cs),
(75,131,o),
(151,81,o),
(254,81,cs),
(324,81,o),
(387,101,o),
(438,135,c),
(482,227,l),
(566,276,l),
(570,291,o),
(572,305,o),
(572,319,cs),
(572,385,o),
(531,431,o),
(484,460,c),
(472,394,l),
(512,412,o),
(613,445,o),
(748,445,cs),
(897,445,o),
(967,397,o),
(967,318,cs),
(967,276,o),
(951,230,o),
(892,176,c),
(839,146,l,{
"Letterink-NibData" = {
AngleInDegrees = "360";
};
}),
(796,98,o),
(695,46,o),
(616,46,cs,{
"Letterink-NibData" = {
AngleInDegrees = "360";
};
}),
(538,46,o),
(481,92,o),
(481,149,cs,{
"Letterink-NibData" = {
AngleInDegrees = "360";
};
}),
(481,207,o),
(536,249,o),
(609,249,cs),
(680,249,o),
(731,208,o),
(784,163,cs),
(846,110,o),
(909,50,o),
(1019,50,cs,{
"Letterink-NibData" = {
AngleInDegrees = "360";
};
}),
(1213,50,o),
(1448,253,o),
(1448,418,cs),
(1448,471,o),
(1418,500,o),
(1342,500,cs),
(1289,500,o),
(1212,482,o),
(1155,465,c),
(1163,427,l,{
"Letterink-NibData" = {
AngleInDegrees = "360";
};
}),
(1206,436,o),
(1244,441,o),
(1267,441,cs),
(1314,441,o),
(1337,430,o),
(1337,386,cs),
(1337,263,o),
(1170,115,o),
(1057,115,cs),
(996,115,o),
(955,156,o),
(893,208,cs),
(842,252,o),
(760,314,o),
(660,314,cs),
(614,314,o),
(564,300,o),
(521,273,c),
(383,130,l),
(383,126,o),
(382,121,o),
(382,117,cs),
(382,31,o),
(468,-15,o),
(580,-15,cs,{
"Letterink-NibData" = {
AngleInDegrees = "360";
};
})
);
}
);
};
layerId = "0C4B00F6-5348-41D6-8EE7-AA18FE59D1B1";
shapes = (
{
closed = 1;
nodes = (
(690,-15,o),
(802,38,o),
(894,110,c),
(929,137,l),
(1012,200,o),
(1078,272,o),
(1078,351,cs),
(1078,453,o),
(966,507,o),
(793,507,cs),
(634,507,o),
(480,468,o),
(401,435,c,{
"Letterink-NibData" = {
AngleInDegrees = "360";
};
}),
(401,423,l),
(441,395,o),
(470,342,o),
(470,292,cs),
(470,215,o),
(396,146,o),
(294,146,cs),
(227,146,o),
(191,184,o),
(191,225,cs),
(191,261,o),
(220,306,o),
(287,325,c,{
"Letterink-NibData" = {
AngleInDegrees = "360";
};
}),
(281,364,l),
(123,334,o),
(75,261,o),
(75,203,cs),
(75,131,o),
(151,81,o),
(253,81,cs),
(324,81,o),
(387,101,o),
(438,135,c),
(482,227,l),
(566,276,l),
(570,291,o),
(572,305,o),
(572,319,cs),
(572,385,o),
(531,431,o),
(484,460,c),
(472,394,l),
(512,412,o),
(613,445,o),
(748,445,cs),
(897,445,o),
(967,397,o),
(967,318,cs),
(967,276,o),
(951,230,o),
(892,176,c),
(839,146,l,{
"Letterink-NibData" = {
AngleInDegrees = "360";
};
}),
(796,98,o),
(695,46,o),
(616,46,cs,{
"Letterink-NibData" = {
AngleInDegrees = "360";
};
}),
(538,46,o),
(481,92,o),
(481,149,cs,{
"Letterink-NibData" = {
AngleInDegrees = "360";
};
}),
(481,207,o),
(536,249,o),
(609,249,cs),
(680,249,o),
(731,208,o),
(784,163,cs),
(846,110,o),
(909,50,o),
(1026,50,cs,{
"Letterink-NibData" = {
AngleInDegrees = "360";
};
}),
(1229,50,o),
(1441,232,o),
(1441,369,cs),
(1441,421,o),
(1411,458,o),
(1371,471,c,{
"Letterink-NibData" = {
AngleInDegrees = "360";
};
}),
(1280,464,l),
(1277,452,l),
(1312,421,o),
(1337,383,o),
(1337,331,cs),
(1337,232,o),
(1190,116,o),
(1064,116,cs),
(994,116,o),
(954,156,o),
(893,208,cs),
(842,252,o),
(760,314,o),
(660,314,cs),
(614,314,o),
(564,300,o),
(521,273,c),
(383,130,l),
(383,126,o),
(382,121,o),
(382,117,cs),
(382,31,o),
(468,-15,o),
(580,-15,cs,{
"Letterink-NibData" = {
AngleInDegrees = "360";
};
})
);
},
{
closed = 1;
nodes = (
(1097,-139,o),
(1284,-85,o),
(1441,-6,cs),
(1609,79,o),
(1755,205,o),
(1755,332,cs),
(1755,417,o),
(1672,509,o),
(1508,509,cs),
(1426,509,o),
(1331,486,o),
(1280,464,c),
(1367,436,l),
(1396,448,o),
(1428,454,o),
(1459,454,cs),
(1561,454,o),
(1638,391,o),
(1638,306,cs),
(1638,217,o),
(1563,129,o),
(1423,53,cs),
(1308,-9,o),
(1142,-70,o),
(1028,-70,cs),
(961,-70,o),
(947,-49,o),
(947,-29,cs),
(947,0,o),
(987,35,o),
(1049,63,c),
(995,68,l),
(875,15,o),
(827,-33,o),
(827,-75,cs),
(827,-105,o),
(851,-139,o),
(936,-139,cs)
);
}
);
width = 1830;
},
{
associatedMasterId = "0C4B00F6-5348-41D6-8EE7-AA18FE59D1B1";
background = {
shapes = (
{
closed = 1;
nodes = (
(699,-17,o),
(813,37,o),
(907,110,c),
(942,137,l),
(1031,200,o),
(1101,272,o),
(1101,351,cs),
(1101,453,o),
(989,507,o),
(816,507,cs),
(653,507,o),
(495,464,o),
(414,431,c,{
"Letterink-NibData" = {
AngleInDegrees = "360";
};
}),
(414,419,l),
(454,392,o),
(483,340,o),
(483,292,cs),
(483,215,o),
(409,146,o),
(307,146,cs),
(231,146,o),
(191,187,o),
(191,236,cs),
(191,269,o),
(208,306,o),
(291,327,c,{
"Letterink-NibData" = {
AngleInDegrees = "360";
};
}),
(285,366,l),
(120,342,o),
(75,269,o),
(75,215,cs),
(75,133,o),
(157,82,o),
(266,81,cs),
(337,81,o),
(400,101,o),
(451,135,c),
(495,227,l),
(579,276,l),
(583,291,o),
(585,305,o),
(585,319,cs),
(585,383,o),
(544,428,o),
(497,456,c),
(485,390,l),
(526,409,o),
(631,445,o),
(771,445,cs),
(920,445,o),
(990,397,o),
(990,318,cs),
(990,276,o),
(972,230,o),
(905,176,c),
(852,146,l,{
"Letterink-NibData" = {
AngleInDegrees = "360";
};
}),
(809,98,o),
(708,46,o),
(629,46,cs,{
"Letterink-NibData" = {
AngleInDegrees = "360";
};
}),
(550,46,o),
(493,93,o),
(494,151,cs,{
"Letterink-NibData" = {
AngleInDegrees = "360";
};
}),
(495,208,o),
(550,249,o),
(622,249,cs),
(693,249,o),
(744,208,o),
(797,163,cs),
(860,109,o),
(924,48,o),
(1037,50,cs,{
"Letterink-NibData" = {
AngleInDegrees = "360";
};
}),
(1234,54,o),
(1471,254,o),
(1471,418,cs),
(1471,471,o),
(1441,500,o),
(1365,500,cs),
(1312,500,o),
(1235,482,o),
(1178,465,c),
(1186,427,l,{
"Letterink-NibData" = {
AngleInDegrees = "360";
};
}),
(1229,436,o),
(1267,441,o),
(1290,441,cs),
(1337,441,o),
(1360,430,o),
(1360,386,cs),
(1360,261,o),
(1183,112,o),
(1066,116,cs),
(1007,118,o),
(966,157,o),
(906,208,cs),
(856,251,o),
(786,312,o),
(678,314,cs),
(630,315,o),
(578,301,o),
(534,273,c),
(396,130,l),
(387,38,o),
(472,-13,o),
(587,-15,cs,{
"Letterink-NibData" = {
AngleInDegrees = "360";
};
})
);
}
);
};
layerId = "BC13FB4E-5A3E-47EB-8EC2-6934C6D0E1D6";
name = "Jun 24, 24 at 16:27";
shapes = (
{
closed = 1;
nodes = (
(699,-17,o),
(813,37,o),
(907,110,c),
(942,137,l),
(1031,200,o),
(1101,272,o),
(1101,351,cs),
(1101,453,o),
(989,507,o),
(816,507,cs),
(653,507,o),
(495,464,o),
(414,431,c,{
"Letterink-NibData" = {
AngleInDegrees = "360";
};
}),
(414,419,l),
(454,392,o),
(483,340,o),
(483,292,cs),
(483,215,o),
(409,146,o),
(307,146,cs),
(231,146,o),
(191,187,o),
(191,236,cs),
(191,269,o),
(208,306,o),
(291,327,c,{
"Letterink-NibData" = {
AngleInDegrees = "360";
};
}),
(285,366,l),
(120,342,o),
(75,269,o),
(75,215,cs),
(75,133,o),
(157,82,o),
(266,81,cs),
(337,81,o),
(400,101,o),
(451,135,c),
(495,227,l),
(579,276,l),
(583,291,o),
(585,305,o),
(585,319,cs),
(585,383,o),
(544,428,o),
(497,456,c),
(485,390,l),
(526,409,o),
(631,445,o),
(771,445,cs),
(920,445,o),
(990,397,o),
(990,318,cs),
(990,276,o),
(972,230,o),
(905,176,c),
(852,146,l,{
"Letterink-NibData" = {
AngleInDegrees = "360";
};
}),
(809,98,o),
(708,46,o),
(629,46,cs,{
"Letterink-NibData" = {
AngleInDegrees = "360";
};
}),
(550,46,o),
(493,93,o),
(494,151,cs,{
"Letterink-NibData" = {
AngleInDegrees = "360";
};
}),
(495,208,o),
(550,249,o),
(622,249,cs),
(693,249,o),
(744,208,o),
(797,163,cs),
(860,109,o),
(924,48,o),
(1037,50,cs,{
"Letterink-NibData" = {
AngleInDegrees = "360";
};
}),
(1234,54,o),
(1471,254,o),
(1471,418,cs),
(1471,471,o),
(1441,500,o),
(1365,500,cs),
(1312,500,o),
(1235,482,o),
(1178,465,c),
(1186,427,l,{
"Letterink-NibData" = {
AngleInDegrees = "360";
};
}),
(1229,436,o),
(1267,441,o),
(1290,441,cs),
(1337,441,o),
(1360,430,o),
(1360,386,cs),
(1360,261,o),
(1183,112,o),
(1066,116,cs),
(1007,118,o),
(966,157,o),
(906,208,cs),
(856,251,o),
(786,312,o),
(678,314,cs),
(630,315,o),
(578,301,o),
(534,273,c),
(396,130,l),
(387,38,o),
(472,-13,o),
(587,-15,cs,{
"Letterink-NibData" = {
AngleInDegrees = "360";
};
})
);
}
);
width = 600;
}
);
metricLeft = "=u-divesakuru";
metricRight = "=ya-divesakuru";
unicode = 71945;
}
{
glyphname = "ga-divesakuru";
kernLeft = ga;
kernRight = ga;
lastChange = "2025-02-05 08:22:42 +0000";
layers = (
{
associatedMasterId = "0C4B00F6-5348-41D6-8EE7-AA18FE59D1B1";
background = {
shapes = (
{
closed = 1;
nodes = (
(122,-177,o),
(286,-212,o),
(408,-212,cs),
(718,-212,o),
(1173,-46,o),
(1142,203,cs),
(1130,308,o),
(1021,397,o),
(855,397,cs),
(772,397,o),
(695,374,o),
(630,344,c,{
"Letterink-NibData" = {
AngleInDegrees = 360;
};
}),
(630,329,l),
(668,307,o),
(705,259,o),
(712,205,cs),
(724,109,o),
(636,51,o),
(561,51,cs),
(434,51,o),
(357,178,o),
(341,312,cs),
(324,454,o),
(340,606,o),
(392,702,c),
(323,632,l),
(424,684,o),
(457,745,o),
(452,792,cs),
(446,838,o),
(416,855,o),
(389,855,cs),
(330,855,o),
(300,794,o),
(275,698,cs),
(248,598,o),
(223,440,o),
(241,293,cs),
(263,113,o),
(373,-12,o),
(535,-12,cs),
(702,-12,o),
(837,98,o),
(821,227,cs),
(814,285,o),
(775,326,o),
(733,350,c,{
"Letterink-NibData" = {
AngleInDegrees = 360;
};
}),
(745,332,l),
(771,338,o),
(797,341,o),
(821,341,cs),
(940,341,o),
(1018,267,o),
(1028,183,cs),
(1054,-28,o),
(671,-151,o),
(429,-151,cs),
(349,-151,o),
(231,-131,o),
(219,-34,cs),
(213,10,o),
(251,57,o),
(367,87,c),
(335,123,l,{
"Letterink-NibData" = {
AngleInDegrees = 360;
};
}),
(195,90,o),
(98,20,o),
(109,-66,cs)
);
},
{
closed = 1;
nodes = (
(617,-2,o),
(629,11,o),
(627,27,cs),
(625,43,o),
(610,56,o),
(594,56,cs),
(578,56,o),
(567,43,o),
(569,27,cs),
(571,11,o),
(585,-2,o),
(601,-2,cs)
);
},
{
closed = 1;
nodes = (
(841,-130,o),
(853,-117,o),
(851,-101,cs),
(849,-85,o),
(834,-72,o),
(818,-72,cs),
(802,-72,o),
(791,-85,o),
(793,-101,cs),
(795,-117,o),
(809,-130,o),
(825,-130,cs)
);
}
);
};
layerId = "374D8E7D-0E39-4B27-ADD3-E6C85CD09643";
name = "Apr 11, 24 at 18:06";
shapes = (
{
closed = 1;
nodes = (
(67,-177,o),
(239,-212,o),
(369,-212,cs),
(651,-212,o),
(1134,-46,o),
(1134,203,cs),
(1134,308,o),
(1037,397,o),
(871,397,cs),
(788,397,o),
(708,374,o),
(640,344,c,{
"Letterink-NibData" = {
AngleInDegrees = "360";
};
}),
(638,329,l),
(672,305,o),
(703,253,o),
(703,195,cs),
(703,105,o),
(629,51,o),
(554,51,cs),
(416,51,o),
(350,192,o),
(350,342,cs),
(350,473,o),
(380,613,o),
(435,702,c),
(368,632,l),
(465,684,o),
(506,745,o),
(506,792,cs),
(506,838,o),
(479,855,o),
(451,855,cs),
(392,855,o),
(355,794,o),
(318,698,cs),
(282,606,o),
(248,459,o),
(248,323,cs),
(248,125,o),
(348,-12,o),
(520,-12,cs),
(677,-12,o),
(816,98,o),
(816,227,cs),
(816,290,o),
(783,334,o),
(745,360,c,{
"Letterink-NibData" = {
AngleInDegrees = "360";
};
}),
(753,332,l),
(780,338,o),
(806,341,o),
(830,341,cs),
(949,341,o),
(1018,267,o),
(1018,183,cs),
(1018,-28,o),
(612,-151,o),
(398,-151,cs),
(310,-151,o),
(182,-131,o),
(182,-34,cs),
(182,10,o),
(225,57,o),
(345,87,c),
(317,123,l,{
"Letterink-NibData" = {
AngleInDegrees = "360";
};
}),
(174,90,o),
(67,20,o),
(67,-66,cs)
);
},
{
closed = 1;
nodes = (
(604,-2,o),
(617,11,o),
(617,27,cs),
(617,43,o),
(604,56,o),
(588,56,cs),
(572,56,o),
(559,43,o),
(559,27,cs),
(559,11,o),
(572,-2,o),
(588,-2,cs)
);
},
{
closed = 1;
nodes = (
(792,-130,o),
(805,-117,o),
(805,-101,cs),
(805,-85,o),
(792,-72,o),
(776,-72,cs),
(760,-72,o),
(747,-85,o),
(747,-101,cs),
(747,-117,o),
(760,-130,o),
(776,-130,cs)
);
},
{
closed = 1;
nodes = (
(1095,386,o),
(1121,412,o),
(1121,445,cs),
(1121,478,o),
(1095,504,o),
(1062,504,cs),
(1029,504,o),
(1003,478,o),
(1003,445,cs),
(1003,412,o),
(1029,386,o),
(1062,386,cs)
);
},
{
closed = 1;
nodes = (
(926,-239,o),
(939,-226,o),
(939,-210,cs),
(939,-194,o),
(926,-181,o),
(910,-181,cs),
(894,-181,o),
(881,-194,o),
(881,-210,cs),
(881,-226,o),
(894,-239,o),
(910,-239,cs)
);
}
);
width = 1205;
},
{
associatedMasterId = "0C4B00F6-5348-41D6-8EE7-AA18FE59D1B1";
background = {
shapes = (
{
closed = 1;
nodes = (
(67,-177,o),
(239,-212,o),
(369,-212,cs),
(651,-212,o),
(1134,-46,o),
(1134,203,cs),
(1134,308,o),
(1037,397,o),
(871,397,cs),
(788,397,o),
(708,374,o),
(640,344,c,{
"Letterink-NibData" = {
AngleInDegrees = "360";
};
}),
(638,329,l),
(672,305,o),
(703,253,o),
(703,195,cs),
(703,105,o),
(629,51,o),
(554,51,cs),
(416,51,o),
(350,192,o),
(350,342,cs),
(350,473,o),
(380,613,o),
(435,702,c),
(368,632,l),
(465,684,o),
(506,745,o),
(506,792,cs),
(506,838,o),
(479,855,o),
(451,855,cs),
(392,855,o),
(355,794,o),
(318,698,cs),
(282,606,o),
(248,459,o),
(248,323,cs),
(248,125,o),
(348,-12,o),
(520,-12,cs),
(677,-12,o),
(816,98,o),
(816,227,cs),
(816,290,o),
(783,334,o),
(745,360,c,{
"Letterink-NibData" = {
AngleInDegrees = "360";
};
}),
(753,332,l),
(780,338,o),
(806,341,o),
(830,341,cs),
(949,341,o),
(1018,267,o),
(1018,183,cs),
(1018,-28,o),
(612,-151,o),
(398,-151,cs),
(310,-151,o),
(182,-131,o),
(182,-34,cs),
(182,10,o),
(225,57,o),
(345,87,c),
(317,123,l,{
"Letterink-NibData" = {
AngleInDegrees = "360";
};
}),
(174,90,o),
(67,20,o),
(67,-66,cs)
);
},
{
closed = 1;
nodes = (
(604,-2,o),
(617,11,o),
(617,27,cs),
(617,43,o),
(604,56,o),
(588,56,cs),
(572,56,o),
(559,43,o),
(559,27,cs),
(559,11,o),
(572,-2,o),
(588,-2,cs)
);
},
{
closed = 1;
nodes = (
(792,-130,o),
(805,-117,o),
(805,-101,cs),
(805,-85,o),
(792,-72,o),
(776,-72,cs),
(760,-72,o),
(747,-85,o),
(747,-101,cs),
(747,-117,o),
(760,-130,o),
(776,-130,cs)
);
}
);
};
layerId = "D49A29BD-2A5E-490F-B992-63ABE2556F4B";
name = "Apr 14, 24 at 18:22";
shapes = (
{
closed = 1;
nodes = (
(641,-212,o),
(1124,-36,o),
(1124,198,cs),
(1124,308,o),
(1031,397,o),
(872,397,cs),
(788,397,o),
(708,374,o),
(640,344,c,{
"Letterink-NibData" = {
AngleInDegrees = "360";
};
}),
(638,329,l),
(672,307,o),
(703,260,o),
(703,204,cs),
(703,109,o),
(619,50,o),
(541,50,cs),
(425,50,o),
(353,181,o),
(353,339,cs),
(353,464,o),
(383,606,o),
(432,702,c),
(368,632,l),
(465,684,o),
(506,745,o),
(506,796,cs),
(506,838,o),
(479,855,o),
(449,855,cs),
(392,855,o),
(355,794,o),
(325,716,cs),
(280,600,o),
(248,450,o),
(248,320,cs),
(248,118,o),
(348,-12,o),
(512,-12,cs),
(676,-12,o),
(814,108,o),
(814,231,cs),
(814,289,o),
(783,327,o),
(748,350,c,{
"Letterink-NibData" = {
AngleInDegrees = "360";
};
}),
(753,332,l),
(782,340,o),
(810,344,o),
(836,344,cs),
(945,344,o),
(1008,267,o),
(1008,177,cs),
(1008,-19,o),
(597,-151,o),
(355,-151,cs),
(273,-151,o),
(182,-134,o),
(182,-53,cs),
(182,1,o),
(225,53,o),
(345,87,c),
(317,123,l,{
"Letterink-NibData" = {
AngleInDegrees = "360";
};
}),
(159,83,o),
(67,12,o),
(67,-74,cs),
(67,-180,o),
(206,-212,o),
(337,-212,cs)
);
}
);
width = 1205;
},
{
associatedMasterId = "0C4B00F6-5348-41D6-8EE7-AA18FE59D1B1";
background = {
shapes = (
{
closed = 1;
nodes = (
(249,270,ls),
(248,258,o),
(248,246,o),
(248,235,cs),
(248,81,o),
(330,-12,o),
(483,-12,cs),
(641,-12,o),
(774,98,o),
(774,214,cs),
(774,278,o),
(734,322,o),
(688,348,c,{
"Letterink-NibData" = {
AngleInDegrees = "360";
};
}),
(693,330,l),
(729,337,o),
(757,340,o),
(780,340,cs),
(905,340,o),
(963,254,o),
(963,170,cs),
(963,-39,o),
(610,-158,o),
(366,-158,cs),
(239,-158,o),
(176,-124,o),
(176,-56,cs),
(176,0,o),
(217,52,o),
(336,81,c),
(310,117,l,{
"Letterink-NibData" = {
AngleInDegrees = "360";
};
}),
(152,84,o),
(60,16,o),
(60,-73,cs),
(60,-166,o),
(172,-218,o),
(353,-218,cs),
(642,-218,o),
(1067,-64,o),
(1080,168,cs),
(1085,286,o),
(990,395,o),
(811,395,cs),
(734,395,o),
(638,375,o),
(580,342,c,{
"Letterink-NibData" = {
AngleInDegrees = "360";
};
}),
(578,327,l),
(622,302,o),
(663,248,o),
(663,184,cs),
(663,101,o),
(585,50,o),
(512,50,cs),
(406,50,o),
(353,138,o),
(353,255,cs),
(353,266,o),
(353,277,o),
(354,289,cs),
(396,839,l),
(289,823,l)
);
}
);
};
layerId = "9168BF34-20DF-4BC0-9B6C-611F325F6171";
name = "Apr 14, 24 at 21:07";
shapes = (
{
closed = 1;
nodes = (
(249,270,ls),
(248,258,o),
(248,246,o),
(248,235,cs),
(248,81,o),
(330,-12,o),
(479,-12,cs),
(641,-12,o),
(774,98,o),
(774,214,cs),
(774,278,o),
(734,322,o),
(688,348,c,{
"Letterink-NibData" = {
AngleInDegrees = "360";
};
}),
(693,330,l),
(725,338,o),
(750,341,o),
(770,341,cs),
(902,341,o),
(963,244,o),
(963,150,cs),
(963,-46,o),
(616,-158,o),
(376,-158,cs),
(242,-158,o),
(176,-128,o),
(176,-69,cs),
(176,-8,o),
(230,35,o),
(336,81,c),
(310,117,l,{
"Letterink-NibData" = {
AngleInDegrees = "360";
};
}),
(166,67,o),
(60,8,o),
(60,-86,cs),
(60,-171,o),
(168,-218,o),
(343,-218,cs),
(636,-218,o),
(1080,-64,o),
(1080,176,cs),
(1080,286,o),
(990,395,o),
(818,395,cs),
(734,395,o),
(638,369,o),
(580,342,c,{
"Letterink-NibData" = {
AngleInDegrees = "360";
};
}),
(578,327,l),
(622,302,o),
(663,248,o),
(663,184,cs),
(663,101,o),
(585,50,o),
(508,50,cs),
(406,50,o),
(353,138,o),
(353,255,cs),
(353,266,o),
(353,277,o),
(354,289,cs),
(396,839,l),
(289,823,l)
);
}
);
width = 1205;
},
{
associatedMasterId = "0C4B00F6-5348-41D6-8EE7-AA18FE59D1B1";
background = {
shapes = (
{
closed = 1;
nodes = (
(253,270,ls),
(252,258,o),
(252,246,o),
(252,235,cs),
(252,81,o),
(336,-12,o),
(489,-12,cs),
(651,-12,o),
(784,89,o),
(784,214,cs),
(784,283,o),
(740,334,o),
(688,358,c,{
"Letterink-NibData" = {
AngleInDegrees = "360";
};
}),
(683,336,l),
(719,347,o),
(747,351,o),
(770,351,cs),
(909,351,o),
(973,259,o),
(973,157,cs),
(973,-46,o),
(620,-158,o),
(376,-158,cs),
(242,-158,o),
(176,-128,o),
(176,-69,cs),
(176,-8,o),
(230,35,o),
(336,81,c),
(310,117,l,{
"Letterink-NibData" = {
AngleInDegrees = "360";
};
}),
(166,67,o),
(60,8,o),
(60,-86,cs),
(60,-171,o),
(168,-218,o),
(343,-218,cs),
(640,-218,o),
(1090,-64,o),
(1090,181,cs),
(1090,291,o),
(993,405,o),
(808,405,cs),
(724,405,o),
(624,379,o),
(570,352,c,{
"Letterink-NibData" = {
AngleInDegrees = "360";
};
}),
(568,337,l),
(622,310,o),
(673,252,o),
(673,184,cs),
(673,92,o),
(595,50,o),
(518,50,cs),
(409,50,o),
(353,138,o),
(353,255,cs),
(353,266,o),
(353,277,o),
(354,289,cs),
(396,839,l),
(293,823,l)
);
}
);
};
layerId = "464BF7C0-9734-4843-8884-4A872F354BA7";
name = "Apr 14, 24 at 21:59";
shapes = (
{
closed = 1;
nodes = (
(253,270,ls),
(252,258,o),
(252,246,o),
(252,235,cs),
(252,81,o),
(336,-12,o),
(489,-12,cs),
(651,-12,o),
(784,89,o),
(784,214,cs),
(784,283,o),
(740,334,o),
(688,358,c,{
"Letterink-NibData" = {
AngleInDegrees = "360";
};
}),
(683,336,l),
(719,347,o),
(747,351,o),
(770,351,cs),
(909,351,o),
(973,259,o),
(973,157,cs),
(973,-46,o),
(620,-158,o),
(376,-158,cs),
(242,-158,o),
(176,-128,o),
(176,-69,cs),
(176,-8,o),
(230,35,o),
(336,81,c),
(310,117,l,{
"Letterink-NibData" = {
AngleInDegrees = "360";
};
}),
(166,67,o),
(60,8,o),
(60,-86,cs),
(60,-171,o),
(168,-218,o),
(343,-218,cs),
(640,-218,o),
(1090,-64,o),
(1090,181,cs),
(1090,291,o),
(993,405,o),
(808,405,cs),
(724,405,o),
(624,379,o),
(570,352,c,{
"Letterink-NibData" = {
AngleInDegrees = "360";
};
}),
(568,337,l),
(622,310,o),
(673,252,o),
(673,184,cs),
(673,92,o),
(595,50,o),
(518,50,cs),
(409,50,o),
(353,138,o),
(353,255,cs),
(353,266,o),
(353,277,o),
(354,289,cs),
(396,839,l),
(293,823,l)
);
}
);
width = 1205;
},
{
associatedMasterId = "0C4B00F6-5348-41D6-8EE7-AA18FE59D1B1";
background = {
shapes = (
{
closed = 1;
nodes = (
(449,859,l),
(396,243,ls),
(386,132,o),
(440,38,o),
(534,38,cs),
(607,38,o),
(685,95,o),
(685,176,cs),
(685,236,o),
(643,288,o),
(581,301,c),
(580,318,l),
(662,355,o),
(775,382,o),
(853,382,cs),
(987,382,o),
(1122,308,o),
(1122,178,cs),
(1122,-65,o),
(639,-223,o),
(356,-223,cs),
(195,-223,o),
(129,-180,o),
(129,-117,cs),
(129,-32,o),
(248,26,o),
(364,60,c),
(388,27,l),
(299,-9,o),
(244,-41,o),
(244,-89,cs),
(244,-128,o),
(279,-162,o),
(365,-162,cs),
(607,-162,o),
(1000,-54,o),
(1000,160,cs),
(1000,249,o),
(930,323,o),
(806,323,cs),
(780,323,o),
(733,315,o),
(695,305,c),
(720,324,l),
(764,298,o),
(790,246,o),
(790,196,cs),
(790,76,o),
(646,-25,o),
(506,-25,cs),
(369,-25,o),
(280,63,o),
(295,238,cs),
(348,848,l)
);
}
);
};
layerId = "9E2DF9B9-5E95-4E27-9B14-F7AD6F9F5B43";
name = "Apr 21, 24 at 16:48";
shapes = (
{
closed = 1;
nodes = (
(449,859,l),
(396,243,ls),
(386,132,o),
(440,38,o),
(534,38,cs),
(607,38,o),
(685,95,o),
(685,174,cs),
(685,234,o),
(639,284,o),
(571,297,c),
(570,314,l),
(655,353,o),
(772,382,o),
(855,382,cs),
(987,382,o),
(1122,308,o),
(1122,179,cs),
(1122,-65,o),
(639,-223,o),
(347,-223,cs),
(195,-223,o),
(129,-180,o),
(129,-117,cs),
(129,-32,o),
(248,26,o),
(364,60,c),
(388,27,l),
(299,-9,o),
(244,-41,o),
(244,-87,cs),
(244,-126,o),
(265,-162,o),
(383,-162,cs),
(593,-162,o),
(1000,-54,o),
(1000,159,cs),
(1000,249,o),
(927,323,o),
(814,323,cs),
(777,323,o),
(733,315,o),
(695,305,c),
(708,321,l),
(759,296,o),
(790,254,o),
(790,198,cs),
(790,76,o),
(646,-25,o),
(503,-25,cs),
(369,-25,o),
(280,63,o),
(295,238,cs),
(348,848,l)
);
}
);
width = 1205;
},
{
associatedMasterId = "0C4B00F6-5348-41D6-8EE7-AA18FE59D1B1";
background = {
shapes = (
{
closed = 1;
nodes = (
(450,869,l),
(394,223,ls),
(386,130,o),
(433,45,o),
(534,45,cs),
(615,45,o),
(705,99,o),
(706,195,cs),
(705,253,o),
(671,311,o),
(613,329,c),
(612,344,l),
(679,367,o),
(778,384,o),
(849,384,cs),
(991,384,o),
(1122,313,o),
(1122,188,cs),
(1122,-45,o),
(670,-213,o),
(370,-213,cs),
(216,-213,o),
(128,-178,o),
(128,-109,cs),
(127,-29,o),
(248,37,o),
(364,70,c),
(388,37,l),
(299,3,o),
(243,-35,o),
(243,-85,cs),
(243,-123,o),
(281,-152,o),
(401,-152,cs),
(619,-152,o),
(1000,-34,o),
(1000,170,cs),
(1000,256,o),
(933,328,o),
(816,328,cs),
(788,328,o),
(736,324,o),
(695,318,c),
(723,343,l),
(784,325,o),
(810,272,o),
(810,220,cs),
(811,90,o),
(646,-15,o),
(498,-15,cs),
(356,-15,o),
(281,83,o),
(293,218,cs),
(348,858,l)
);
}
);
};
layerId = "D1705F86-BD2B-497E-AE55-A6DA6F36480E";
name = "Apr 29, 24 at 09:04";
shapes = (
{
closed = 1;
nodes = (
(450,869,l),
(394,223,ls),
(386,130,o),
(433,45,o),
(534,45,cs),
(618,45,o),
(711,101,o),
(712,200,cs),
(711,256,o),
(675,312,o),
(613,329,c),
(612,344,l),
(679,367,o),
(778,384,o),
(849,384,cs),
(991,384,o),
(1122,313,o),
(1122,188,cs),
(1122,-45,o),
(670,-213,o),
(370,-213,cs),
(216,-213,o),
(128,-178,o),
(128,-109,cs),
(127,-29,o),
(248,37,o),
(364,70,c),
(388,37,l),
(299,3,o),
(243,-35,o),
(243,-85,cs),
(243,-123,o),
(281,-152,o),
(401,-152,cs),
(619,-152,o),
(1000,-34,o),
(1000,170,cs),
(1000,259,o),
(933,333,o),
(820,333,cs),
(788,333,o),
(736,327,o),
(700,318,c),
(727,343,l),
(789,326,o),
(816,275,o),
(816,225,cs),
(817,92,o),
(649,-15,o),
(498,-15,cs),
(356,-15,o),
(281,83,o),
(293,218,cs),
(348,858,l)
);
}
);
width = 1205;
},
{
anchors = (
{
name = bottom;
pos = (625,-289);
},
{
name = halanta;
pos = (743,340);
},
{
name = top;
pos = (321,753);
}
);
background = {
shapes = (
{
closed = 1;
nodes = (
(599,-211,o),
(1021,-50,o),
(1021,178,cs),
(1021,300,o),
(900,369,o),
(734,369,cs),
(657,369,o),
(571,350,o),
(508,324,c),
(506,307,l),
(575,275,o),
(608,220,o),
(608,171,cs),
(608,99,o),
(542,45,o),
(465,45,cs),
(371,45,o),
(317,131,o),
(317,239,cs),
(317,320,o),
(358,669,o),
(369,761,c),
(267,750,l),
(257,670,o),
(215,317,o),
(215,225,cs),
(215,73,o),
(312,-15,o),
(446,-15,cs),
(595,-15,o),
(711,87,o),
(713,192,cs),
(714,251,o),
(677,309,o),
(615,326,c),
(607,303,l),
(649,309,o),
(665,311,o),
(703,311,cs),
(824,311,o),
(899,245,o),
(899,156,cs),
(899,-34,o),
(556,-148,o),
(342,-148,cs),
(215,-148,o),
(165,-109,o),
(165,-66,cs),
(165,-21,o),
(218,16,o),
(307,46,c),
(283,79,l),
(167,50,o),
(49,-14,o),
(50,-95,cs),
(51,-165,o),
(142,-211,o),
(303,-211,cs)
);
}
);
};
layerId = "0C4B00F6-5348-41D6-8EE7-AA18FE59D1B1";
name = "117";
shapes = (
{
closed = 1;
nodes = (
(598,-211,o),
(1019,-50,o),
(1019,178,cs),
(1019,300,o),
(899,369,o),
(734,369,cs),
(657,369,o),
(571,350,o),
(508,324,c),
(506,307,l),
(575,275,o),
(608,220,o),
(608,169,cs),
(608,99,o),
(547,45,o),
(471,45,cs),
(375,45,o),
(317,131,o),
(317,239,cs),
(317,320,o),
(358,669,o),
(369,761,c),
(267,750,l),
(257,670,o),
(215,317,o),
(215,225,cs),
(215,73,o),
(316,-15,o),
(452,-15,cs),
(600,-15,o),
(713,89,o),
(713,192,cs),
(713,251,o),
(676,306,o),
(615,323,c),
(607,303,l),
(649,309,o),
(665,311,o),
(703,311,cs),
(824,311,o),
(899,245,o),
(899,156,cs),
(899,-34,o),
(556,-148,o),
(342,-148,cs),
(215,-148,o),
(165,-109,o),
(165,-66,cs),
(165,-21,o),
(218,16,o),
(307,46,c),
(283,79,l),
(167,50,o),
(50,-13,o),
(50,-94,cs),
(50,-164,o),
(141,-211,o),
(303,-211,cs)
);
}
);
width = 1094;
},
{
associatedMasterId = "0C4B00F6-5348-41D6-8EE7-AA18FE59D1B1";
background = {
shapes = (
{
closed = 1;
nodes = (
(450,869,l),
(394,223,ls),
(386,130,o),
(446,45,o),
(548,45,cs),
(622,45,o),
(710,103,o),
(710,182,cs),
(710,262,o),
(646,303,o),
(572,305,c),
(565,335,l),
(655,373,o),
(765,398,o),
(850,398,cs),
(1002,398,o),
(1122,317,o),
(1122,192,cs),
(1122,-50,o),
(670,-213,o),
(360,-213,cs),
(216,-213,o),
(128,-178,o),
(128,-110,cs),
(127,-29,o),
(248,37,o),
(364,70,c),
(388,37,l),
(299,3,o),
(243,-35,o),
(243,-83,cs),
(243,-123,o),
(281,-152,o),
(393,-152,cs),
(619,-152,o),
(1000,-34,o),
(1000,174,cs),
(1000,264,o),
(928,343,o),
(804,343,cs),
(762,343,o),
(722,334,o),
(681,318,c),
(682,353,l),
(763,337,o),
(815,281,o),
(815,212,cs),
(815,91,o),
(652,-15,o),
(511,-15,cs),
(368,-15,o),
(281,83,o),
(293,218,cs),
(348,858,l)
);
}
);
};
layerId = "E329D9BA-DC00-4516-97FB-F98C6EE5B4BE";
name = "May 16, 24 at 08:39";
shapes = (
{
closed = 1;
nodes = (
(450,869,l),
(394,223,ls),
(386,130,o),
(433,45,o),
(533,45,cs),
(628,45,o),
(711,115,o),
(711,188,cs),
(711,264,o),
(647,313,o),
(572,305,c),
(565,335,l),
(655,373,o),
(765,398,o),
(848,398,cs),
(1002,398,o),
(1122,322,o),
(1122,188,cs),
(1122,-45,o),
(670,-213,o),
(358,-213,cs),
(216,-213,o),
(128,-178,o),
(128,-110,cs),
(127,-29,o),
(248,37,o),
(364,70,c),
(388,37,l),
(299,3,o),
(243,-35,o),
(243,-83,cs),
(243,-123,o),
(281,-152,o),
(393,-152,cs),
(619,-152,o),
(1000,-34,o),
(1000,172,cs),
(1000,264,o),
(928,343,o),
(800,343,cs),
(762,343,o),
(722,334,o),
(681,318,c),
(682,353,l),
(763,338,o),
(816,297,o),
(816,212,cs),
(816,104,o),
(659,-15,o),
(497,-15,cs),
(356,-15,o),
(281,83,o),
(293,218,cs),
(348,858,l)
);
}
);
width = 1205;
},
{
associatedMasterId = "0C4B00F6-5348-41D6-8EE7-AA18FE59D1B1";
background = {
shapes = (
{
closed = 1;
nodes = (
(280,869,l),
(224,223,ls),
(216,130,o),
(268,45,o),
(370,45,cs),
(454,45,o),
(540,103,o),
(540,189,cs),
(540,264,o),
(476,306,o),
(402,308,c),
(395,335,l),
(485,373,o),
(595,398,o),
(676,398,cs),
(822,398,o),
(952,317,o),
(952,188,cs),
(952,-50,o),
(510,-213,o),
(198,-213,cs),
(46,-213,o),
(-43,-174,o),
(-43,-105,cs),
(-44,-25,o),
(78,37,o),
(194,70,c),
(218,37,l),
(129,3,o),
(72,-31,o),
(72,-77,cs),
(72,-119,o),
(120,-150,o),
(238,-150,cs),
(467,-150,o),
(830,-34,o),
(830,170,cs),
(830,264,o),
(753,343,o),
(632,343,cs),
(602,343,o),
(552,338,o),
(511,328,c),
(512,353,l),
(593,337,o),
(645,281,o),
(645,212,cs),
(645,91,o),
(484,-15,o),
(334,-15,cs),
(190,-15,o),
(111,83,o),
(123,218,cs),
(178,858,l)
);
}
);
};
layerId = "DD94DD3E-34C3-4840-942E-111CAFFC9C1F";
name = "May 23, 24 at 14:34";
shapes = (
{
closed = 1;
nodes = (
(280,869,l),
(224,223,ls),
(216,130,o),
(265,45,o),
(366,45,cs),
(449,45,o),
(540,103,o),
(540,189,cs),
(540,264,o),
(476,306,o),
(402,308,c),
(395,335,l),
(488,370,o),
(602,393,o),
(681,393,cs),
(827,393,o),
(952,314,o),
(952,188,cs),
(952,-50,o),
(510,-213,o),
(198,-213,cs),
(46,-213,o),
(-43,-174,o),
(-43,-105,cs),
(-44,-25,o),
(78,37,o),
(194,70,c),
(218,37,l),
(129,3,o),
(72,-31,o),
(72,-77,cs),
(72,-119,o),
(120,-150,o),
(238,-150,cs),
(467,-150,o),
(830,-34,o),
(830,170,cs),
(830,261,o),
(757,338,o),
(634,338,cs),
(610,338,o),
(555,335,o),
(511,328,c),
(512,353,l),
(593,337,o),
(645,281,o),
(645,210,cs),
(645,91,o),
(496,-15,o),
(338,-15,cs),
(187,-15,o),
(111,83,o),
(123,218,cs),
(178,858,l)
);
}
);
width = 1027;
},
{
anchors = (
{
name = top;
pos = (223,754);
}
);
associatedMasterId = "0C4B00F6-5348-41D6-8EE7-AA18FE59D1B1";
background = {
shapes = (
{
closed = 1;
nodes = (
(514,-211,o),
(948,-46,o),
(948,188,cs),
(948,316,o),
(817,389,o),
(673,389,cs),
(598,389,o),
(507,369,o),
(420,340,c),
(418,313,l),
(482,296,o),
(535,238,o),
(535,174,cs),
(535,105,o),
(465,45,o),
(377,45,cs),
(276,45,o),
(224,121,o),
(224,210,cs),
(224,305,o),
(262,641,o),
(273,731,c),
(171,720,l),
(162,641,o),
(122,303,o),
(122,200,cs),
(122,59,o),
(215,-15,o),
(351,-15,cs),
(516,-15,o),
(639,91,o),
(641,192,cs),
(642,259,o),
(592,321,o),
(516,340,c),
(507,313,l),
(555,326,o),
(611,331,o),
(643,331,cs),
(761,331,o),
(826,261,o),
(826,174,cs),
(826,-30,o),
(471,-148,o),
(250,-148,cs),
(122,-148,o),
(72,-109,o),
(72,-66,cs),
(72,-21,o),
(125,16,o),
(214,46,c),
(190,79,l),
(74,50,o),
(-44,-14,o),
(-43,-95,cs),
(-42,-165,o),
(49,-211,o),
(210,-211,cs)
);
}
);
};
layerId = "8AB009F0-A353-4C3D-93F4-84F364374DD8";
name = "Jun 3, 24 at 23:55";
shapes = (
{
closed = 1;
nodes = (
(514,-211,o),
(948,-46,o),
(948,188,cs),
(948,316,o),
(817,389,o),
(673,389,cs),
(598,389,o),
(507,369,o),
(420,340,c),
(418,313,l),
(482,296,o),
(535,238,o),
(535,176,cs),
(535,105,o),
(465,45,o),
(376,45,cs),
(276,45,o),
(224,121,o),
(224,210,cs),
(224,311,o),
(265,666,o),
(276,761,c),
(174,750,l),
(164,667,o),
(122,309,o),
(122,200,cs),
(122,59,o),
(215,-15,o),
(352,-15,cs),
(516,-15,o),
(639,91,o),
(641,193,cs),
(642,259,o),
(592,321,o),
(516,340,c),
(507,307,l),
(552,322,o),
(598,331,o),
(641,331,cs),
(743,331,o),
(826,275,o),
(826,174,cs),
(826,-30,o),
(471,-148,o),
(249,-148,cs),
(122,-148,o),
(72,-109,o),
(72,-66,cs),
(72,-21,o),
(125,16,o),
(214,46,c),
(190,79,l),
(74,50,o),
(-44,-14,o),
(-43,-95,cs),
(-42,-165,o),
(49,-211,o),
(210,-211,cs)
);
}
);
width = 1028;
},
{
anchors = (
{
name = top;
pos = (228,753);
}
);
associatedMasterId = "0C4B00F6-5348-41D6-8EE7-AA18FE59D1B1";
background = {
shapes = (
{
closed = 1;
nodes = (
(344,901,o),
(393,957,o),
(393,1008,cs),
(393,1059,o),
(344,1087,o),
(293,1080,c),
(315,1065,l),
(372,1099,o),
(435,1108,o),
(483,1108,cs),
(576,1108,o),
(625,1073,o),
(626,1026,cs),
(626,996,o),
(609,970,o),
(570,952,c),
(644,950,l),
(709,980,o),
(735,1010,o),
(735,1052,cs),
(735,1126,o),
(628,1168,o),
(509,1168,cs),
(367,1168,o),
(165,1101,o),
(165,990,cs),
(165,936,o),
(205,901,o),
(267,901,cs)
);
},
{
closed = 1;
nodes = (
(-48,1201,o),
(62,1322,o),
(62,1389,cs),
(62,1432,o),
(10,1475,o),
(-65,1475,cs),
(-139,1475,o),
(-235,1438,o),
(-311,1389,c),
(-264,1350,l),
(-222,1384,o),
(-202,1385,o),
(-179,1385,cs),
(-136,1385,o),
(-108,1364,o),
(-108,1330,cs),
(-108,1307,o),
(-132,1288,o),
(-179,1288,cs),
(-214,1288,o),
(-259,1298,o),
(-323,1332,c),
(-432,1256,l),
(-377,1215,o),
(-312,1201,o),
(-244,1201,cs)
);
},
{
closed = 1;
nodes = (
(-371,1412,o),
(-251,1509,o),
(-190,1604,c),
(-235,1584,l),
(-223,1587,o),
(-211,1588,o),
(-201,1588,cs),
(-142,1588,o),
(-113,1545,o),
(-113,1507,cs),
(-113,1490,o),
(-123,1469,o),
(-137,1456,c),
(-63,1456,l),
(36,1483,o),
(54,1526,o),
(55,1560,cs),
(55,1627,o),
(-37,1672,o),
(-161,1672,cs),
(-369,1672,o),
(-583,1595,o),
(-583,1486,cs),
(-583,1448,o),
(-548,1412,o),
(-482,1412,cs)
);
},
{
closed = 1;
nodes = (
(264,681,o),
(290,697,o),
(338,697,cs),
(380,697,o),
(406,677,o),
(479,677,cs),
(642,677,o),
(746,781,o),
(746,851,cs),
(746,913,o),
(691,964,o),
(607,964,cs),
(550,964,o),
(487,950,o),
(431,931,c),
(448,893,l),
(483,903,o),
(517,909,o),
(541,909,cs),
(595,909,o),
(633,870,o),
(633,824,cs),
(633,790,o),
(600,737,o),
(508,737,cs),
(456,737,o),
(422,757,o),
(360,757,cs),
(254,757,o),
(162,670,o),
(151,570,cs),
(143,500,o),
(122,275,o),
(122,204,cs),
(122,54,o),
(213,-15,o),
(346,-15,cs),
(514,-15,o),
(639,91,o),
(641,203,cs),
(642,261,o),
(606,320,o),
(543,346,c),
(534,316,l),
(576,331,o),
(588,331,o),
(632,331,cs),
(743,331,o),
(826,275,o),
(826,176,cs),
(826,-30,o),
(471,-148,o),
(249,-148,cs),
(122,-148,o),
(72,-109,o),
(72,-66,cs),
(72,-21,o),
(125,16,o),
(214,46,c),
(190,79,l),
(74,50,o),
(-44,-14,o),
(-43,-95,cs),
(-42,-165,o),
(49,-211,o),
(210,-211,cs),
(514,-211,o),
(948,-46,o),
(948,188,cs),
(948,316,o),
(817,389,o),
(667,389,cs),
(588,389,o),
(524,378,o),
(447,349,c),
(445,332,l),
(498,301,o),
(535,241,o),
(535,182,cs),
(535,101,o),
(463,45,o),
(372,45,cs),
(274,45,o),
(224,116,o),
(224,217,cs),
(224,309,o),
(250,559,o),
(257,616,cs)
);
}
);
};
layerId = "DC6691E2-098E-4054-A854-541BFC10C02C";
name = "Jun 12, 24 at 19:09";
shapes = (
{
closed = 1;
nodes = (
(514,-211,o),
(948,-46,o),
(948,188,cs),
(948,316,o),
(817,389,o),
(667,389,cs),
(588,389,o),
(497,369,o),
(420,340,c),
(418,313,l),
(482,289,o),
(535,234,o),
(535,170,cs),
(535,99,o),
(465,45,o),
(377,45,cs),
(276,45,o),
(224,116,o),
(224,217,cs),
(224,306,o),
(265,666,o),
(276,761,c),
(174,750,l),
(164,667,o),
(122,304,o),
(122,204,cs),
(122,54,o),
(215,-15,o),
(351,-15,cs),
(516,-15,o),
(639,89,o),
(641,191,cs),
(642,258,o),
(592,318,o),
(516,337,c),
(507,307,l),
(549,322,o),
(588,331,o),
(632,331,cs),
(743,331,o),
(826,275,o),
(826,176,cs),
(826,-30,o),
(471,-148,o),
(249,-148,cs),
(122,-148,o),
(72,-109,o),
(72,-66,cs),
(72,-21,o),
(125,16,o),
(214,46,c),
(190,79,l),
(74,50,o),
(-44,-14,o),
(-43,-95,cs),
(-42,-165,o),
(49,-211,o),
(210,-211,cs)
);
}
);
width = 1028;
},
{
anchors = (
{
name = top;
pos = (228,753);
}
);
associatedMasterId = "0C4B00F6-5348-41D6-8EE7-AA18FE59D1B1";
background = {
shapes = (
{
closed = 1;
nodes = (
(514,-211,o),
(948,-46,o),
(948,188,cs),
(948,316,o),
(817,389,o),
(661,389,cs),
(586,389,o),
(502,372,o),
(441,349,c),
(439,332,l),
(504,297,o),
(535,236,o),
(535,185,cs),
(535,109,o),
(465,45,o),
(376,45,cs),
(282,45,o),
(224,116,o),
(224,219,cs),
(224,306,o),
(265,666,o),
(276,761,c),
(174,750,l),
(164,667,o),
(122,304,o),
(122,205,cs),
(122,54,o),
(221,-15,o),
(352,-15,cs),
(516,-15,o),
(639,94,o),
(641,201,cs),
(642,264,o),
(601,328,o),
(533,346,c),
(534,323,l),
(576,329,o),
(602,331,o),
(630,331,cs),
(741,331,o),
(826,261,o),
(826,166,cs),
(826,-30,o),
(471,-148,o),
(249,-148,cs),
(122,-148,o),
(72,-109,o),
(72,-66,cs),
(72,-21,o),
(125,16,o),
(214,46,c),
(190,79,l),
(74,50,o),
(-44,-14,o),
(-43,-95,cs),
(-42,-165,o),
(49,-211,o),
(210,-211,cs)
);
}
);
};
layerId = "64B279D2-5827-40D3-8555-0AB6F033A01A";
name = "Jun 25, 24 at 14:54";
shapes = (
{
closed = 1;
nodes = (
(514,-211,o),
(948,-46,o),
(948,188,cs),
(948,316,o),
(817,389,o),
(661,389,cs),
(586,389,o),
(502,372,o),
(441,349,c),
(439,332,l),
(504,297,o),
(535,236,o),
(535,185,cs),
(535,109,o),
(465,45,o),
(376,45,cs),
(282,45,o),
(224,116,o),
(224,219,cs),
(224,306,o),
(265,666,o),
(276,761,c),
(174,750,l),
(164,667,o),
(122,304,o),
(122,205,cs),
(122,54,o),
(221,-15,o),
(352,-15,cs),
(516,-15,o),
(639,94,o),
(641,201,cs),
(642,264,o),
(601,328,o),
(533,346,c),
(534,323,l),
(576,329,o),
(602,331,o),
(630,331,cs),
(741,331,o),
(826,261,o),
(826,166,cs),
(826,-30,o),
(471,-148,o),
(249,-148,cs),
(122,-148,o),
(72,-109,o),
(72,-66,cs),
(72,-21,o),
(125,16,o),
(214,46,c),
(190,79,l),
(74,50,o),
(-44,-14,o),
(-43,-95,cs),
(-42,-165,o),
(49,-211,o),
(210,-211,cs)
);
}
);
width = 1028;
},
{
anchors = (
{
name = top;
pos = (228,753);
}
);
associatedMasterId = "0C4B00F6-5348-41D6-8EE7-AA18FE59D1B1";
background = {
shapes = (
{
closed = 1;
nodes = (
(514,-211,o),
(948,-46,o),
(948,188,cs),
(948,316,o),
(817,389,o),
(661,389,cs),
(584,389,o),
(498,370,o),
(435,344,c),
(433,327,l),
(502,291,o),
(535,228,o),
(535,173,cs),
(535,99,o),
(474,45,o),
(394,45,cs),
(290,45,o),
(224,125,o),
(224,239,cs),
(224,320,o),
(265,669,o),
(276,761,c),
(174,750,l),
(164,670,o),
(122,317,o),
(122,225,cs),
(122,67,o),
(232,-15,o),
(376,-15,cs),
(526,-15,o),
(638,87,o),
(640,194,cs),
(641,260,o),
(600,327,o),
(532,346,c),
(534,323,l),
(576,329,o),
(592,331,o),
(630,331,cs),
(741,331,o),
(826,261,o),
(826,166,cs),
(826,-30,o),
(471,-148,o),
(249,-148,cs),
(122,-148,o),
(72,-109,o),
(72,-66,cs),
(72,-21,o),
(125,16,o),
(214,46,c),
(190,79,l),
(74,50,o),
(-44,-14,o),
(-43,-95,cs),
(-42,-165,o),
(49,-211,o),
(210,-211,cs)
);
}
);
};
layerId = "2DEB38B3-B5C6-4790-A2EB-6E3C44D38FD0";
name = "Jun 25, 24 at 15:00";
shapes = (
{
closed = 1;
nodes = (
(514,-211,o),
(948,-46,o),
(948,188,cs),
(948,316,o),
(817,389,o),
(661,389,cs),
(584,389,o),
(498,370,o),
(435,344,c),
(433,327,l),
(502,291,o),
(535,228,o),
(535,173,cs),
(535,99,o),
(474,45,o),
(394,45,cs),
(290,45,o),
(224,125,o),
(224,239,cs),
(224,320,o),
(265,669,o),
(276,761,c),
(174,750,l),
(164,670,o),
(122,317,o),
(122,225,cs),
(122,67,o),
(232,-15,o),
(376,-15,cs),
(526,-15,o),
(638,87,o),
(640,194,cs),
(641,260,o),
(600,327,o),
(532,346,c),
(534,323,l),
(576,329,o),
(592,331,o),
(630,331,cs),
(741,331,o),
(826,261,o),
(826,166,cs),
(826,-30,o),
(471,-148,o),
(249,-148,cs),
(122,-148,o),
(72,-109,o),
(72,-66,cs),
(72,-21,o),
(125,16,o),
(214,46,c),
(190,79,l),
(74,50,o),
(-44,-14,o),
(-43,-95,cs),
(-42,-165,o),
(49,-211,o),
(210,-211,cs)
);
}
);
width = 1028;
}
);
metricRight = "ka-divesakuru";
unicode = 71950;
}
{
glyphname = "ddha-divesakuru";
kernLeft = ddha;
kernRight = ya;
lastChange = "2025-02-05 08:22:42 +0000";
layers = (
{
anchors = (
{
name = bottom;
pos = (889,-109);
},
{
name = top;
pos = (258,735);
}
);
background = {
shapes = (
{
closed = 1;
nodes = (
(186,667,o),
(282,707,o),
(385,707,cs),
(477,707,o),
(532,669,o),
(533,620,cs),
(534,574,o),
(485,536,o),
(381,511,c,{
"Letterink-NibData" = {
AngleInDegrees = "360";
};
}),
(390,469,l),
(462,485,o),
(508,497,o),
(554,522,c,{
"Letterink-NibData" = {
AngleInDegrees = "360";
};
}),
(534,525,l,{
"Letterink-NibData" = {
AngleInDegrees = "360";
};
}),
(591,548,o),
(647,597,o),
(647,648,cs),
(647,710,o),
(567,767,o),
(419,767,cs),
(212,767,o),
(11,673,o),
(12,552,cs),
(13,491,o),
(62,451,o),
(129,452,cs),
(208,453,o),
(271,510,o),
(271,576,cs),
(270,632,o),
(214,675,o),
(106,649,c,{
"Letterink-NibData" = {
AngleInDegrees = "360";
};
}),
(152,612,l)
);
},
{
closed = 1;
nodes = (
(335,223,o),
(402,258,o),
(480,283,cs),
(582,317,o),
(701,353,o),
(701,444,cs),
(701,514,o),
(629,557,o),
(512,543,c,{
"Letterink-NibData" = {
AngleInDegrees = "360";
};
}),
(493,508,l),
(545,511,o),
(583,483,o),
(583,440,cs),
(583,376,o),
(511,349,o),
(430,323,cs),
(327,291,o),
(214,244,o),
(214,152,cs),
(214,41,o),
(377,-9,o),
(538,-9,cs),
(651,-9,o),
(769,16,o),
(869,50,c,{
"Letterink-NibData" = {
AngleInDegrees = "360";
};
}),
(834,92,l,{
"Letterink-NibData" = {
AngleInDegrees = "360";
};
}),
(750,68,o),
(661,51,o),
(564,51,cs),
(435,51,o),
(335,97,o),
(335,163,cs)
);
},
{
closed = 1;
nodes = (
(1201,37,o),
(1449,257,o),
(1449,411,cs),
(1449,473,o),
(1409,504,o),
(1340,507,cs),
(1286,509,o),
(1213,494,o),
(1158,479,c),
(1165,441,l,{
"Letterink-NibData" = {
AngleInDegrees = "360";
};
}),
(1204,448,o),
(1239,452,o),
(1262,451,cs),
(1310,449,o),
(1333,423,o),
(1333,381,cs),
(1333,263,o),
(1148,93,o),
(963,93,cs),
(850,93,o),
(805,157,o),
(805,224,cs),
(805,285,o),
(843,322,o),
(891,322,cs),
(943,322,o),
(982,278,o),
(982,218,cs),
(982,153,o),
(936,106,o),
(886,93,c,{
"Letterink-NibData" = {
AngleInDegrees = "360";
};
}),
(952,78,l,{
"Letterink-NibData" = {
AngleInDegrees = "360";
};
}),
(1019,102,o),
(1088,169,o),
(1088,245,cs),
(1088,319,o),
(1023,383,o),
(920,383,cs),
(802,383,o),
(699,300,o),
(699,202,cs),
(699,103,o),
(805,37,o),
(945,37,cs)
);
}
);
};
layerId = "0C4B00F6-5348-41D6-8EE7-AA18FE59D1B1";
shapes = (
{
closed = 1;
nodes = (
(651,-9,o),
(769,16,o),
(869,50,c,{
"Letterink-NibData" = {
AngleInDegrees = "360";
};
}),
(825,96,l,{
"Letterink-NibData" = {
AngleInDegrees = "360";
};
}),
(744,70,o),
(658,51,o),
(564,51,cs),
(402,51,o),
(335,97,o),
(335,163,cs),
(335,222,o),
(403,255,o),
(480,281,cs),
(582,315,o),
(701,352,o),
(701,444,cs),
(701,505,o),
(646,546,o),
(554,546,cs),
(541,546,o),
(527,545,o),
(512,543,c,{
"Letterink-NibData" = {
AngleInDegrees = "360";
};
}),
(493,508,l),
(545,511,o),
(583,483,o),
(583,440,cs),
(583,377,o),
(511,351,o),
(430,325,cs),
(328,292,o),
(214,245,o),
(214,152,cs),
(214,41,o),
(377,-9,o),
(538,-9,c)
);
},
{
closed = 1;
nodes = (
(206,452,o),
(271,509,o),
(271,576,cs),
(271,620,o),
(235,657,o),
(166,657,cs),
(148,657,o),
(128,654,o),
(106,649,c,{
"Letterink-NibData" = {
AngleInDegrees = "360";
};
}),
(152,613,l),
(186,668,o),
(282,708,o),
(381,708,cs),
(478,708,o),
(533,669,o),
(533,619,cs),
(533,573,o),
(484,536,o),
(381,511,c,{
"Letterink-NibData" = {
AngleInDegrees = "360";
};
}),
(390,469,l),
(462,485,o),
(508,497,o),
(554,522,c,{
"Letterink-NibData" = {
AngleInDegrees = "360";
};
}),
(534,525,l,{
"Letterink-NibData" = {
AngleInDegrees = "360";
};
}),
(591,548,o),
(647,597,o),
(647,648,cs),
(647,710,o),
(567,767,o),
(414,767,cs),
(213,767,o),
(12,668,o),
(12,553,cs),
(12,493,o),
(61,452,o),
(127,452,cs)
);
},
{
closed = 1;
nodes = (
(1201,37,o),
(1449,257,o),
(1449,411,cs),
(1449,476,o),
(1405,507,o),
(1330,507,cs),
(1277,507,o),
(1210,493,o),
(1158,479,c),
(1165,441,l,{
"Letterink-NibData" = {
AngleInDegrees = "360";
};
}),
(1200,447,o),
(1232,451,o),
(1255,451,cs),
(1308,451,o),
(1333,425,o),
(1333,381,cs),
(1333,263,o),
(1148,93,o),
(963,93,cs),
(850,93,o),
(805,157,o),
(805,224,cs),
(805,285,o),
(843,322,o),
(891,322,cs),
(943,322,o),
(982,278,o),
(982,218,cs),
(982,153,o),
(936,106,o),
(886,93,c,{
"Letterink-NibData" = {
AngleInDegrees = "360";
};
}),
(952,78,l,{
"Letterink-NibData" = {
AngleInDegrees = "360";
};
}),
(1019,102,o),
(1088,169,o),
(1088,245,cs),
(1088,319,o),
(1023,383,o),
(920,383,cs),
(802,383,o),
(699,300,o),
(699,202,cs),
(699,103,o),
(805,37,o),
(945,37,cs)
);
}
);
width = 1524;
},
{
associatedMasterId = "0C4B00F6-5348-41D6-8EE7-AA18FE59D1B1";
background = {
shapes = (
{
closed = 1;
nodes = (
(625,94,o),
(575,157,o),
(575,225,cs),
(575,285,o),
(613,322,o),
(661,322,cs),
(713,322,o),
(752,278,o),
(752,218,cs),
(752,153,o),
(706,106,o),
(656,93,c,{
"Letterink-NibData" = {
AngleInDegrees = "360";
};
}),
(722,78,l,{
"Letterink-NibData" = {
AngleInDegrees = "360";
};
}),
(789,102,o),
(858,169,o),
(858,245,cs),
(858,319,o),
(793,383,o),
(690,383,cs),
(572,383,o),
(469,300,o),
(469,200,cs),
(469,103,o),
(565,39,o),
(709,39,cs),
(936,39,o),
(1208,198,o),
(1208,369,cs),
(1208,469,o),
(1115,509,o),
(1009,509,cs),
(976,509,o),
(935,505,o),
(903,498,c),
(909,458,l,{
"Letterink-NibData" = {
AngleInDegrees = "360";
};
}),
(928,460,o),
(949,462,o),
(965,462,cs),
(1055,461,o),
(1098,409,o),
(1098,350,cs),
(1098,225,o),
(914,95,o),
(748,95,c)
);
},
{
closed = 1;
nodes = (
(-90,647,o),
(19,687,o),
(135,687,cs),
(239,687,o),
(302,649,o),
(303,600,cs),
(304,554,o),
(255,516,o),
(151,491,c,{
"Letterink-NibData" = {
AngleInDegrees = "360";
};
}),
(160,449,l),
(232,465,o),
(278,477,o),
(324,502,c,{
"Letterink-NibData" = {
AngleInDegrees = "360";
};
}),
(304,505,l,{
"Letterink-NibData" = {
AngleInDegrees = "360";
};
}),
(361,528,o),
(417,575,o),
(417,622,cs),
(417,698,o),
(330,747,o),
(169,747,cs),
(-53,747,o),
(-269,653,o),
(-268,532,cs),
(-267,471,o),
(-218,431,o),
(-151,432,cs),
(-72,433,o),
(-9,490,o),
(-9,556,cs),
(-10,612,o),
(-66,655,o),
(-174,629,c,{
"Letterink-NibData" = {
AngleInDegrees = "360";
};
}),
(-128,592,l)
);
},
{
closed = 1;
nodes = (
(225,246,cs),
(265,259,o),
(471,320,o),
(471,428,cs),
(471,490,o),
(399,537,o),
(282,523,c,{
"Letterink-NibData" = {
AngleInDegrees = "360";
};
}),
(263,488,l),
(320,488,o),
(353,463,o),
(353,420,cs),
(353,337,o),
(212,298,o),
(155,282,cs),
(42,250,o),
(-16,182,o),
(-16,107,cs),
(-16,18,o),
(112,-9,o),
(254,-9,cs),
(381,-9,o),
(517,16,o),
(639,50,c,{
"Letterink-NibData" = {
AngleInDegrees = "360";
};
}),
(604,92,l,{
"Letterink-NibData" = {
AngleInDegrees = "360";
};
}),
(495,68,o),
(389,51,o),
(295,51,cs),
(187,51,o),
(105,69,o),
(105,126,cs),
(105,178,o),
(140,219,o)
);
}
);
};
layerId = "76612CC0-523B-4936-A339-B4AD2D5D75D8";
name = "Jul 12, 24 at 10:36";
shapes = (
{
closed = 1;
nodes = (
(625,94,o),
(575,157,o),
(575,225,cs),
(575,285,o),
(613,322,o),
(661,322,cs),
(713,322,o),
(752,278,o),
(752,218,cs),
(752,153,o),
(706,106,o),
(656,93,c,{
"Letterink-NibData" = {
AngleInDegrees = "360";
};
}),
(722,78,l,{
"Letterink-NibData" = {
AngleInDegrees = "360";
};
}),
(789,102,o),
(858,169,o),
(858,245,cs),
(858,319,o),
(793,383,o),
(690,383,cs),
(572,383,o),
(469,300,o),
(469,200,cs),
(469,103,o),
(565,39,o),
(709,39,cs),
(936,39,o),
(1208,198,o),
(1208,369,cs),
(1208,469,o),
(1115,509,o),
(1009,509,cs),
(976,509,o),
(935,505,o),
(903,498,c),
(909,458,l,{
"Letterink-NibData" = {
AngleInDegrees = "360";
};
}),
(928,460,o),
(949,462,o),
(965,462,cs),
(1055,461,o),
(1098,409,o),
(1098,350,cs),
(1098,225,o),
(914,95,o),
(748,95,c)
);
},
{
closed = 1;
nodes = (
(-90,647,o),
(19,687,o),
(135,687,cs),
(239,687,o),
(302,649,o),
(303,600,cs),
(304,554,o),
(255,516,o),
(151,491,c,{
"Letterink-NibData" = {
AngleInDegrees = "360";
};
}),
(160,449,l),
(232,465,o),
(278,477,o),
(324,502,c,{
"Letterink-NibData" = {
AngleInDegrees = "360";
};
}),
(304,505,l,{
"Letterink-NibData" = {
AngleInDegrees = "360";
};
}),
(361,528,o),
(417,575,o),
(417,622,cs),
(417,698,o),
(330,747,o),
(169,747,cs),
(-53,747,o),
(-269,653,o),
(-268,532,cs),
(-267,471,o),
(-218,431,o),
(-151,432,cs),
(-72,433,o),
(-9,490,o),
(-9,556,cs),
(-10,612,o),
(-66,655,o),
(-174,629,c,{
"Letterink-NibData" = {
AngleInDegrees = "360";
};
}),
(-128,592,l)
);
},
{
closed = 1;
nodes = (
(173,238,o),
(250,263,cs),
(352,297,o),
(471,329,o),
(471,428,cs),
(471,490,o),
(399,537,o),
(282,523,c,{
"Letterink-NibData" = {
AngleInDegrees = "360";
};
}),
(263,488,l),
(320,488,o),
(353,463,o),
(353,420,cs),
(353,356,o),
(281,329,o),
(200,303,cs),
(99,271,o),
(-16,242,o),
(-16,147,cs),
(-16,48,o),
(126,-9,o),
(284,-9,cs),
(402,-9,o),
(526,16,o),
(639,50,c,{
"Letterink-NibData" = {
AngleInDegrees = "360";
};
}),
(604,92,l,{
"Letterink-NibData" = {
AngleInDegrees = "360";
};
}),
(505,68,o),
(410,51,o),
(325,51,cs),
(200,51,o),
(105,89,o),
(105,156,cs),
(105,212,o)
);
}
);
width = 1283;
}
);
unicode = 71961;
}
{
glyphname = "nna-divesakuru";
kernLeft = nna;
kernRight = ka;
lastChange = "2025-02-05 08:22:42 +0000";
layers = (
{
associatedMasterId = "0C4B00F6-5348-41D6-8EE7-AA18FE59D1B1";
background = {
shapes = (
{
closed = 1;
nodes = (
(300,109,l,{
"Letterink-NibData" = {
AngleInDegrees = "360";
};
}),
(142,78,o),
(76,23,o),
(76,-36,cs),
(76,-93,o),
(139,-147,o),
(315,-147,cs),
(421,-147,o),
(568,-124,o),
(705,-84,cs),
(954,-13,o),
(1151,117,o),
(1153,300,cs),
(1153,422,o),
(1047,488,o),
(938,488,cs),
(884,488,o),
(812,471,o),
(758,444,c,{
"Letterink-NibData" = {
AngleInDegrees = "360";
};
}),
(753,435,l),
(757,410,o),
(760,387,o),
(760,364,cs),
(760,295,o),
(725,228,o),
(657,228,cs),
(617,228,o),
(604,258,o),
(604,290,cs),
(604,319,o),
(612,353,o),
(612,390,cs),
(612,509,o),
(518,563,o),
(397,563,cs),
(241,563,o),
(82,453,o),
(82,312,cs),
(81,250,o),
(130,206,o),
(200,205,cs),
(276,205,o),
(340,260,o),
(340,322,cs),
(342,379,o),
(282,438,o),
(178,399,c,{
"Letterink-NibData" = {
AngleInDegrees = "360";
};
}),
(192,380,l),
(211,464,o),
(303,502,o),
(368,502,cs),
(453,502,o),
(497,446,o),
(497,377,cs),
(497,341,o),
(487,305,o),
(487,272,cs),
(487,193,o),
(554,165,o),
(628,165,cs),
(760,165,o),
(877,258,o),
(877,398,cs),
(877,416,o),
(873,436,o),
(867,456,c),
(855,428,l,{
"Letterink-NibData" = {
AngleInDegrees = "360";
};
}),
(973,456,o),
(1037,380,o),
(1036,287,cs),
(1035,135,o),
(890,30,o),
(688,-30,cs),
(572,-65,o),
(444,-88,o),
(361,-88,cs),
(243,-88,o),
(190,-62,o),
(190,-15,cs),
(190,23,o),
(236,51,o),
(309,72,c)
);
}
);
};
layerId = "CE7CF2FB-369A-47A7-B62E-F4E8B456E13F";
name = "Apr 18, 24 at 13:44";
shapes = (
{
closed = 1;
nodes = (
(300,109,l,{
"Letterink-NibData" = {
AngleInDegrees = "360";
};
}),
(142,78,o),
(76,23,o),
(76,-36,cs),
(76,-93,o),
(139,-147,o),
(315,-147,cs),
(421,-147,o),
(568,-124,o),
(705,-84,cs),
(954,-13,o),
(1151,117,o),
(1153,300,cs),
(1153,422,o),
(1047,488,o),
(938,488,cs),
(884,488,o),
(812,471,o),
(758,444,c,{
"Letterink-NibData" = {
AngleInDegrees = "360";
};
}),
(753,435,l),
(757,410,o),
(760,387,o),
(760,364,cs),
(760,295,o),
(725,228,o),
(657,228,cs),
(617,228,o),
(604,258,o),
(604,290,cs),
(604,319,o),
(612,353,o),
(612,390,cs),
(612,509,o),
(518,563,o),
(397,563,cs),
(241,563,o),
(82,453,o),
(82,312,cs),
(81,250,o),
(130,206,o),
(200,205,cs),
(276,205,o),
(340,260,o),
(340,322,cs),
(342,379,o),
(282,438,o),
(178,399,c,{
"Letterink-NibData" = {
AngleInDegrees = "360";
};
}),
(192,380,l),
(211,464,o),
(303,502,o),
(368,502,cs),
(453,502,o),
(497,446,o),
(497,377,cs),
(497,341,o),
(487,305,o),
(487,272,cs),
(487,193,o),
(554,165,o),
(628,165,cs),
(760,165,o),
(877,258,o),
(877,398,cs),
(877,416,o),
(873,436,o),
(867,456,c),
(855,428,l,{
"Letterink-NibData" = {
AngleInDegrees = "360";
};
}),
(973,456,o),
(1037,380,o),
(1036,287,cs),
(1035,135,o),
(890,30,o),
(688,-30,cs),
(572,-65,o),
(444,-88,o),
(361,-88,cs),
(243,-88,o),
(190,-62,o),
(190,-15,cs),
(190,23,o),
(236,51,o),
(309,72,c)
);
}
);
width = 1232;
},
{
anchors = (
{
name = bottom;
pos = (613.5,-247);
},
{
name = halanta;
pos = (491,494);
},
{
name = top;
pos = (300,531);
}
);
background = {
shapes = (
{
closed = 1;
nodes = (
(498,-147,o),
(1148,-7,o),
(1148,309,cs),
(1148,434,o),
(1037,488,o),
(931,488,cs),
(871,488,o),
(808,471,o),
(753,444,c,{
"Letterink-NibData" = {
AngleInDegrees = "360";
};
}),
(748,435,l),
(752,410,o),
(755,387,o),
(755,366,cs),
(755,295,o),
(720,228,o),
(654,228,cs),
(612,228,o),
(596,255,o),
(596,294,cs),
(596,334,o),
(611,399,o),
(611,427,cs),
(611,516,o),
(551,563,o),
(453,563,cs),
(304,563,o),
(195,447,o),
(195,317,cs),
(195,283,o),
(202,243,o),
(218,202,c,{
"Letterink-NibData" = {
AngleInDegrees = "360";
};
}),
(233,229,l,{
"Letterink-NibData" = {
AngleInDegrees = "360";
};
}),
(189,249,o),
(138,258,o),
(82,258,cs),
(-19,258,o),
(-128,228,o),
(-203,174,c),
(-161,114,l,{
"Letterink-NibData" = {
AngleInDegrees = "360";
};
}),
(-109,157,o),
(-20,200,o),
(77,200,cs),
(145,200,o),
(217,181,o),
(278,126,c),
(364,150,l),
(367,161,l,{
"Letterink-NibData" = {
AngleInDegrees = "360";
};
}),
(322,211,o),
(298,282,o),
(298,344,cs),
(298,437,o),
(359,501,o),
(423,501,cs),
(474,501,o),
(500,463,o),
(500,415,cs),
(500,363,o),
(484,317,o),
(484,277,cs),
(484,207,o),
(531,165,o),
(620,165,cs),
(753,165,o),
(869,258,o),
(869,391,cs),
(869,416,o),
(865,436,o),
(859,456,c),
(850,429,l,{
"Letterink-NibData" = {
AngleInDegrees = "360";
};
}),
(868,434,o),
(885,436,o),
(901,436,cs),
(974,436,o),
(1030,375,o),
(1030,289,cs),
(1030,18,o),
(469,-88,o),
(216,-88,cs),
(96,-88,o),
(40,-62,o),
(40,-17,cs),
(40,23,o),
(90,51,o),
(169,72,c),
(160,109,l,{
"Letterink-NibData" = {
AngleInDegrees = "360";
};
}),
(5,78,o),
(-74,23,o),
(-74,-35,cs),
(-74,-93,o),
(-10,-147,o),
(179,-147,cs)
);
}
);
};
layerId = "0C4B00F6-5348-41D6-8EE7-AA18FE59D1B1";
name = "117";
shapes = (
{
closed = 1;
nodes = (
(412,-147,o),
(563,-126,o),
(691,-88,cs),
(948,-12,o),
(1141,129,o),
(1141,300,cs),
(1141,423,o),
(1036,488,o),
(931,488,cs),
(877,488,o),
(806,471,o),
(753,444,c,{
"Letterink-NibData" = {
AngleInDegrees = "360";
};
}),
(748,435,l),
(752,410,o),
(755,387,o),
(755,366,cs),
(755,295,o),
(721,228,o),
(657,228,cs),
(614,228,o),
(601,258,o),
(601,290,cs),
(601,319,o),
(609,353,o),
(609,390,cs),
(609,504,o),
(511,563,o),
(396,563,cs),
(240,563,o),
(91,449,o),
(91,320,cs),
(91,245,o),
(141,206,o),
(210,206,cs),
(286,206,o),
(350,261,o),
(350,320,cs),
(350,366,o),
(314,412,o),
(249,412,cs),
(230,412,o),
(209,408,o),
(186,399,c,{
"Letterink-NibData" = {
AngleInDegrees = "360";
};
}),
(201,380,l),
(219,464,o),
(300,502,o),
(368,502,cs),
(451,502,o),
(500,446,o),
(500,377,cs),
(500,341,o),
(491,305,o),
(491,272,cs),
(491,194,o),
(555,166,o),
(626,166,cs),
(755,166,o),
(869,261,o),
(869,393,cs),
(869,418,o),
(865,436,o),
(859,456,c),
(849,429,l,{
"Letterink-NibData" = {
AngleInDegrees = "360";
};
}),
(866,433,o),
(881,435,o),
(895,435,cs),
(979,435,o),
(1024,370,o),
(1024,286,cs),
(1024,140,o),
(884,32,o),
(676,-31,cs),
(570,-63,o),
(440,-86,o),
(345,-86,cs),
(247,-86,o),
(200,-62,o),
(200,-19,cs),
(200,21,o),
(249,49,o),
(328,71,c),
(319,108,l,{
"Letterink-NibData" = {
AngleInDegrees = "360";
};
}),
(164,75,o),
(86,19,o),
(86,-39,cs),
(86,-95,o),
(142,-147,o),
(301,-147,cs)
);
}
);
width = 1216;
}
);
metricRight = "ka-divesakuru";
unicode = 71962;
}
{
glyphname = "bha-divesakuru";
kernLeft = ba;
kernRight = ka;
lastChange = "2025-02-05 08:22:42 +0000";
layers = (
{
anchors = (
{
name = bottom;
pos = (980,-259);
},
{
name = halanta;
pos = (1537,375);
},
{
name = top;
pos = (441,499);
}
);
background = {
shapes = (
{
closed = 1;
nodes = (
(920,-179,o),
(1122,-139,o),
(1280,-70,cs),
(1430,-5,o),
(1610,116,o),
(1610,245,cs),
(1610,328,o),
(1535,404,o),
(1392,404,cs),
(1304,404,o),
(1209,375,o),
(1156,348,c),
(1258,327,l),
(1290,342,o),
(1327,349,o),
(1356,349,cs),
(1435,349,o),
(1493,295,o),
(1493,224,cs),
(1493,123,o),
(1374,37,o),
(1267,-13,cs),
(1144,-70,o),
(951,-119,o),
(800,-119,cs),
(676,-119,o),
(659,-86,o),
(659,-65,cs),
(659,-37,o),
(691,-12,o),
(757,5,c),
(744,38,l),
(611,8,o),
(544,-34,o),
(544,-88,cs),
(544,-137,o),
(601,-179,o),
(762,-179,cs)
);
},
{
closed = 1;
nodes = (
(799,48,o),
(765,78,o),
(765,112,cs),
(765,140,o),
(798,162,o),
(838,186,cs),
(899,224,o),
(975,273,o),
(975,359,cs),
(975,486,o),
(824,558,o),
(652,558,cs),
(353,558,o),
(75,339,o),
(75,164,cs),
(75,97,o),
(122,51,o),
(192,51,cs),
(268,51,o),
(333,108,o),
(333,168,cs),
(333,213,o),
(296,259,o),
(232,259,cs),
(213,259,o),
(191,255,o),
(167,245,c,{
"Letterink-NibData" = {
AngleInDegrees = "360";
};
}),
(189,219,l),
(227,388,o),
(448,496,o),
(626,496,cs),
(770,496,o),
(854,423,o),
(854,337,cs),
(854,259,o),
(787,220,o),
(727,186,cs),
(680,160,o),
(638,137,o),
(638,94,cs),
(638,31,o),
(714,-12,o),
(845,-12,cs),
(1087,-12,o),
(1310,153,o),
(1310,272,cs),
(1310,306,o),
(1287,340,o),
(1256,356,c,{
"Letterink-NibData" = {
AngleInDegrees = "360";
};
}),
(1156,348,l),
(1153,336,l),
(1180,318,o),
(1198,287,o),
(1198,258,cs),
(1198,133,o),
(1011,48,o),
(876,48,cs)
);
}
);
};
layerId = "0C4B00F6-5348-41D6-8EE7-AA18FE59D1B1";
shapes = (
{
closed = 1;
nodes = (
(923,-179,o),
(1126,-145,o),
(1306,-82,cs),
(1505,-12,o),
(1667,96,o),
(1667,241,cs),
(1667,362,o),
(1545,469,o),
(1401,469,cs),
(1278,469,o),
(1207,401,o),
(1207,330,cs),
(1207,319,o),
(1209,307,o),
(1213,295,cs),
(1227,255,ls),
(1231,243,o),
(1234,231,o),
(1234,218,cs),
(1234,108,o),
(1010,48,o),
(886,48,cs),
(799,48,o),
(765,78,o),
(765,110,cs),
(765,140,o),
(798,161,o),
(830,181,cs),
(899,223,o),
(975,272,o),
(975,361,cs),
(975,486,o),
(824,558,o),
(652,558,cs),
(353,558,o),
(75,339,o),
(75,168,cs),
(75,97,o),
(122,51,o),
(191,51,cs),
(268,51,o),
(333,108,o),
(333,168,cs),
(333,213,o),
(296,259,o),
(232,259,cs),
(213,259,o),
(191,255,o),
(167,245,c,{
"Letterink-NibData" = {
AngleInDegrees = "360";
};
}),
(200,219,l),
(247,380,o),
(440,496,o),
(626,496,cs),
(770,496,o),
(854,423,o),
(854,336,cs),
(854,259,o),
(787,220,o),
(734,190,cs),
(680,160,o),
(638,137,o),
(638,92,cs),
(638,31,o),
(714,-12,o),
(856,-12,cs),
(1078,-12,o),
(1336,94,o),
(1336,235,cs),
(1336,247,o),
(1334,260,o),
(1329,275,cs),
(1315,315,ls),
(1311,326,o),
(1310,336,o),
(1310,345,cs),
(1310,385,o),
(1343,410,o),
(1386,410,cs),
(1481,410,o),
(1555,312,o),
(1555,221,cs),
(1555,109,o),
(1454,32,o),
(1288,-26,cs),
(1149,-75,o),
(954,-119,o),
(804,-119,cs),
(676,-119,o),
(659,-86,o),
(659,-65,cs),
(659,-37,o),
(691,-12,o),
(757,5,c),
(744,38,l),
(611,8,o),
(544,-34,o),
(544,-89,cs),
(544,-136,o),
(601,-179,o),
(770,-179,cs)
);
}
);
width = 1742;
},
{
associatedMasterId = "0C4B00F6-5348-41D6-8EE7-AA18FE59D1B1";
background = {
shapes = (
{
closed = 1;
nodes = (
(1566,98,o),
(1449,30,o),
(1278,-29,cs),
(1149,-73,o),
(954,-119,o),
(796,-119,cs),
(676,-119,o),
(659,-86,o),
(659,-63,cs),
(659,-37,o),
(691,-12,o),
(757,5,c),
(744,38,l),
(608,9,o),
(539,-32,o),
(539,-83,cs),
(539,-135,o),
(597,-179,o),
(760,-179,cs),
(923,-179,o),
(1125,-144,o),
(1300,-84,cs),
(1503,-14,o),
(1684,88,o),
(1683,240,cs),
(1683,354,o),
(1577,468,o),
(1421,469,cs),
(1291,470,o),
(1181,394,o),
(1217,281,cs),
(1228,246,ls),
(1271,109,o),
(1023,48,o),
(876,48,cs),
(799,48,o),
(765,78,o),
(765,112,cs),
(765,136,o),
(790,155,o),
(823,174,cs),
(923,232,o),
(975,281,o),
(975,358,cs),
(975,488,o),
(824,558,o),
(661,558,cs),
(373,558,o),
(74,338,o),
(75,163,cs),
(75,96,o),
(123,51,o),
(192,51,cs),
(269,52,o),
(334,109,o),
(333,169,cs),
(333,228,o),
(269,286,o),
(167,245,c,{
"Letterink-NibData" = {
AngleInDegrees = "360";
};
}),
(194,219,l),
(235,388,o),
(479,496,o),
(635,496,cs),
(761,496,o),
(854,426,o),
(854,338,cs),
(854,281,o),
(816,237,o),
(746,199,cs),
(693,169,o),
(638,144,o),
(638,94,cs),
(638,31,o),
(714,-12,o),
(845,-12,cs),
(1100,-12,o),
(1378,104,o),
(1331,264,cs),
(1319,304,ls),
(1301,365,o),
(1341,408,o),
(1404,408,cs),
(1498,408,o),
(1566,310,o),
(1566,220,cs)
);
}
);
};
layerId = "F39134EE-089E-4A95-812B-C936742C0BEE";
name = "Jul 12, 24 at 10:18";
shapes = (
{
closed = 1;
nodes = (
(1566,98,o),
(1449,30,o),
(1278,-29,cs),
(1149,-73,o),
(954,-119,o),
(796,-119,cs),
(676,-119,o),
(659,-86,o),
(659,-63,cs),
(659,-37,o),
(691,-12,o),
(757,5,c),
(744,38,l),
(608,9,o),
(539,-32,o),
(539,-83,cs),
(539,-135,o),
(597,-179,o),
(760,-179,cs),
(923,-179,o),
(1125,-144,o),
(1300,-84,cs),
(1503,-14,o),
(1684,88,o),
(1683,240,cs),
(1683,354,o),
(1577,468,o),
(1421,469,cs),
(1291,470,o),
(1181,394,o),
(1217,281,cs),
(1228,246,ls),
(1271,109,o),
(1023,48,o),
(876,48,cs),
(799,48,o),
(765,78,o),
(765,112,cs),
(765,136,o),
(790,155,o),
(823,174,cs),
(923,232,o),
(975,281,o),
(975,358,cs),
(975,488,o),
(824,558,o),
(661,558,cs),
(373,558,o),
(74,338,o),
(75,163,cs),
(75,96,o),
(123,51,o),
(192,51,cs),
(269,52,o),
(334,109,o),
(333,169,cs),
(333,228,o),
(269,286,o),
(167,245,c,{
"Letterink-NibData" = {
AngleInDegrees = "360";
};
}),
(194,219,l),
(235,388,o),
(479,496,o),
(635,496,cs),
(761,496,o),
(854,426,o),
(854,338,cs),
(854,281,o),
(816,237,o),
(746,199,cs),
(693,169,o),
(638,144,o),
(638,94,cs),
(638,31,o),
(714,-12,o),
(845,-12,cs),
(1100,-12,o),
(1378,104,o),
(1331,264,cs),
(1319,304,ls),
(1301,365,o),
(1341,408,o),
(1404,408,cs),
(1498,408,o),
(1566,310,o),
(1566,220,cs)
);
}
);
width = 1710;
},
{
anchors = (
{
name = bottom;
pos = (980,-259);
},
{
name = halanta;
pos = (1500,375);
},
{
name = top;
pos = (441,499);
}
);
associatedMasterId = "0C4B00F6-5348-41D6-8EE7-AA18FE59D1B1";
background = {
shapes = (
{
closed = 1;
nodes = (
(1536,95,o),
(1442,28,o),
(1272,-31,cs),
(1149,-73,o),
(954,-119,o),
(796,-119,cs),
(676,-119,o),
(659,-86,o),
(659,-63,cs),
(659,-37,o),
(691,-12,o),
(757,5,c),
(744,38,l),
(608,9,o),
(539,-32,o),
(539,-83,cs),
(539,-135,o),
(597,-179,o),
(760,-179,cs),
(923,-179,o),
(1125,-144,o),
(1294,-86,cs),
(1495,-16,o),
(1648,85,o),
(1648,226,cs),
(1648,351,o),
(1538,469,o),
(1378,469,cs),
(1256,469,o),
(1173,401,o),
(1217,281,cs),
(1227,255,ls),
(1279,121,o),
(1023,48,o),
(876,48,cs),
(799,48,o),
(765,78,o),
(765,112,cs),
(765,136,o),
(790,155,o),
(823,174,cs),
(923,232,o),
(975,281,o),
(975,358,cs),
(975,488,o),
(824,558,o),
(661,558,cs),
(373,558,o),
(74,338,o),
(75,163,cs),
(75,96,o),
(123,51,o),
(192,51,cs),
(269,52,o),
(334,109,o),
(333,169,cs),
(333,228,o),
(269,286,o),
(167,245,c,{
"Letterink-NibData" = {
AngleInDegrees = "360";
};
}),
(194,219,l),
(235,388,o),
(479,496,o),
(635,496,cs),
(761,496,o),
(854,426,o),
(854,338,cs),
(854,281,o),
(816,237,o),
(746,199,cs),
(693,169,o),
(638,144,o),
(638,94,cs),
(638,31,o),
(714,-12,o),
(845,-12,cs),
(1100,-12,o),
(1386,115,o),
(1330,273,cs),
(1319,304,ls),
(1295,374,o),
(1321,408,o),
(1378,408,cs),
(1470,408,o),
(1536,307,o),
(1536,207,cs)
);
}
);
};
layerId = "58FFA85C-E8F5-4AEF-9A65-90EAB02A0EDA";
name = "Aug 12, 24 at 10:57";
shapes = (
{
closed = 1;
nodes = (
(1536,95,o),
(1442,28,o),
(1272,-31,cs),
(1149,-74,o),
(954,-119,o),
(796,-119,cs),
(676,-119,o),
(659,-86,o),
(659,-63,cs),
(659,-37,o),
(691,-12,o),
(757,5,c),
(744,38,l),
(608,9,o),
(539,-32,o),
(539,-83,cs),
(539,-135,o),
(597,-179,o),
(760,-179,cs),
(923,-179,o),
(1126,-145,o),
(1294,-86,cs),
(1495,-16,o),
(1648,85,o),
(1648,226,cs),
(1648,351,o),
(1538,469,o),
(1378,469,cs),
(1279,469,o),
(1205,424,o),
(1205,342,cs),
(1205,324,o),
(1209,303,o),
(1217,281,cs),
(1227,255,ls),
(1232,243,o),
(1234,231,o),
(1234,220,cs),
(1234,108,o),
(1010,48,o),
(876,48,cs),
(799,48,o),
(765,78,o),
(765,112,cs),
(765,136,o),
(790,155,o),
(823,174,cs),
(923,232,o),
(975,281,o),
(975,358,cs),
(975,488,o),
(824,558,o),
(661,558,cs),
(373,558,o),
(75,339,o),
(75,164,cs),
(75,97,o),
(122,51,o),
(192,51,cs),
(268,51,o),
(333,108,o),
(333,168,cs),
(333,213,o),
(296,259,o),
(232,259,cs),
(213,259,o),
(191,255,o),
(167,245,c,{
"Letterink-NibData" = {
AngleInDegrees = "360";
};
}),
(194,219,l),
(235,388,o),
(479,496,o),
(635,496,cs),
(761,496,o),
(854,426,o),
(854,338,cs),
(854,281,o),
(816,237,o),
(746,199,cs),
(692,170,o),
(638,144,o),
(638,94,cs),
(638,31,o),
(714,-12,o),
(845,-12,cs),
(1078,-12,o),
(1337,94,o),
(1337,233,cs),
(1337,246,o),
(1335,259,o),
(1330,273,cs),
(1319,304,ls),
(1313,322,o),
(1310,337,o),
(1310,350,cs),
(1310,389,o),
(1335,408,o),
(1378,408,cs),
(1470,408,o),
(1536,307,o),
(1536,207,cs)
);
}
);
width = 1723;
},
{
anchors = (
{
name = bottom;
pos = (980,-259);
},
{
name = halanta;
pos = (1500,375);
},
{
name = top;
pos = (441,499);
}
);
associatedMasterId = "0C4B00F6-5348-41D6-8EE7-AA18FE59D1B1";
background = {
shapes = (
{
closed = 1;
nodes = (
(1269,469,o),
(1205,406,o),
(1205,338,cs),
(1205,325,o),
(1207,312,o),
(1214,293,cs),
(1227,255,ls),
(1234,236,o),
(1235,226,o),
(1235,216,cs),
(1235,152,o),
(1147,104,o),
(894,47,cs),
(702,4,o),
(491,-6,o),
(414,-6,cs),
(340,-6,o),
(314,11,o),
(314,38,cs),
(314,58,o),
(332,75,o),
(358,98,cs),
(396,131,o),
(455,177,o),
(455,260,cs),
(455,368,o),
(354,450,o),
(207,450,cs),
(18,450,o),
(-172,316,o),
(-172,195,cs),
(-172,134,o),
(-123,91,o),
(-56,91,cs),
(21,91,o),
(86,147,o),
(86,208,cs),
(86,253,o),
(51,298,o),
(-12,298,cs),
(-32,298,o),
(-54,294,o),
(-78,284,c,{
"Letterink-NibData" = {
AngleInDegrees = "360";
};
}),
(-46,258,l),
(-16,343,o),
(82,389,o),
(162,389,cs),
(255,389,o),
(337,328,o),
(337,239,cs),
(337,168,o),
(284,128,o),
(239,89,cs),
(214,67,o),
(191,45,o),
(191,14,cs),
(191,-33,o),
(254,-68,o),
(352,-68,cs),
(473,-68,o),
(692,-57,o),
(882,-17,cs),
(1198,50,o),
(1336,125,o),
(1336,231,cs),
(1336,247,o),
(1332,264,o),
(1326,282,cs),
(1315,313,ls),
(1309,330,o),
(1306,346,o),
(1306,358,cs),
(1306,391,o),
(1327,408,o),
(1367,408,cs),
(1448,408,o),
(1535,300,o),
(1535,197,cs),
(1535,38,o),
(1361,-54,o),
(984,-132,cs),
(776,-175,o),
(555,-190,o),
(395,-190,cs),
(237,-190,o),
(167,-164,o),
(167,-115,cs),
(167,-80,o),
(211,-57,o),
(263,-44,c),
(229,-14,l),
(105,-41,o),
(45,-85,o),
(45,-140,cs),
(45,-208,o),
(137,-249,o),
(351,-249,cs),
(541,-249,o),
(776,-235,o),
(997,-190,cs),
(1417,-105,o),
(1647,41,o),
(1647,216,cs),
(1647,350,o),
(1517,469,o),
(1372,469,cs)
);
}
);
};
layerId = "E64D87AE-825D-45DE-ABEB-D908BC079F65";
name = "Aug 12, 24 at 10:57";
shapes = (
{
closed = 1;
nodes = (
(1536,95,o),
(1442,28,o),
(1272,-31,cs),
(1149,-74,o),
(954,-119,o),
(796,-119,cs),
(676,-119,o),
(659,-86,o),
(659,-63,cs),
(659,-37,o),
(691,-12,o),
(757,5,c),
(744,38,l),
(608,9,o),
(539,-32,o),
(539,-83,cs),
(539,-135,o),
(597,-179,o),
(760,-179,cs),
(923,-179,o),
(1126,-145,o),
(1294,-86,cs),
(1495,-16,o),
(1648,85,o),
(1648,226,cs),
(1648,351,o),
(1538,469,o),
(1378,469,cs),
(1279,469,o),
(1205,424,o),
(1205,342,cs),
(1205,324,o),
(1209,303,o),
(1217,281,cs),
(1227,255,ls),
(1232,243,o),
(1234,231,o),
(1234,220,cs),
(1234,108,o),
(1010,48,o),
(876,48,cs),
(799,48,o),
(765,78,o),
(765,112,cs),
(765,136,o),
(790,155,o),
(823,174,cs),
(923,232,o),
(975,281,o),
(975,358,cs),
(975,488,o),
(824,558,o),
(661,558,cs),
(373,558,o),
(75,339,o),
(75,164,cs),
(75,97,o),
(122,51,o),
(192,51,cs),
(268,51,o),
(333,108,o),
(333,168,cs),
(333,213,o),
(296,259,o),
(232,259,cs),
(213,259,o),
(191,255,o),
(167,245,c,{
"Letterink-NibData" = {
AngleInDegrees = "360";
};
}),
(194,219,l),
(235,388,o),
(479,496,o),
(635,496,cs),
(761,496,o),
(854,426,o),
(854,338,cs),
(854,281,o),
(816,237,o),
(746,199,cs),
(692,170,o),
(638,144,o),
(638,94,cs),
(638,31,o),
(714,-12,o),
(845,-12,cs),
(1078,-12,o),
(1337,94,o),
(1337,233,cs),
(1337,246,o),
(1335,259,o),
(1330,273,cs),
(1319,304,ls),
(1313,322,o),
(1310,337,o),
(1310,350,cs),
(1310,389,o),
(1335,408,o),
(1378,408,cs),
(1470,408,o),
(1536,307,o),
(1536,207,cs)
);
}
);
width = 1723;
},
{
anchors = (
{
name = bottom;
pos = (980,-259);
},
{
name = halanta;
pos = (1500,375);
},
{
name = top;
pos = (441,499);
}
);
associatedMasterId = "0C4B00F6-5348-41D6-8EE7-AA18FE59D1B1";
background = {
shapes = (
{
closed = 1;
nodes = (
(1270,469,o),
(1203,411,o),
(1203,348,cs),
(1203,333,o),
(1206,318,o),
(1214,295,cs),
(1227,257,ls),
(1234,238,o),
(1235,228,o),
(1235,218,cs),
(1235,154,o),
(1147,106,o),
(894,49,cs),
(702,6,o),
(491,-4,o),
(414,-4,cs),
(340,-4,o),
(314,13,o),
(314,40,cs),
(314,60,o),
(332,77,o),
(358,100,cs),
(396,133,o),
(455,179,o),
(455,262,cs),
(455,370,o),
(354,452,o),
(207,452,cs),
(18,452,o),
(-172,318,o),
(-172,197,cs),
(-172,136,o),
(-123,93,o),
(-56,93,cs),
(21,93,o),
(86,149,o),
(86,210,cs),
(86,255,o),
(51,300,o),
(-12,300,cs),
(-32,300,o),
(-54,296,o),
(-78,286,c,{
"Letterink-NibData" = {
AngleInDegrees = "360";
};
}),
(-46,260,l),
(-16,345,o),
(82,391,o),
(162,391,cs),
(255,391,o),
(337,330,o),
(337,241,cs),
(337,170,o),
(284,130,o),
(239,91,cs),
(214,69,o),
(191,47,o),
(191,16,cs),
(191,-31,o),
(254,-66,o),
(352,-66,cs),
(473,-66,o),
(692,-55,o),
(882,-15,cs),
(1198,52,o),
(1336,127,o),
(1336,233,cs),
(1336,249,o),
(1332,266,o),
(1326,284,cs),
(1315,315,ls),
(1309,333,o),
(1306,349,o),
(1306,362,cs),
(1306,394,o),
(1326,410,o),
(1365,410,cs),
(1435,410,o),
(1535,302,o),
(1535,199,cs),
(1535,40,o),
(1361,-52,o),
(984,-130,cs),
(776,-173,o),
(555,-188,o),
(395,-188,cs),
(237,-188,o),
(167,-162,o),
(167,-113,cs),
(167,-78,o),
(211,-55,o),
(263,-42,c),
(229,-12,l),
(105,-39,o),
(45,-83,o),
(45,-138,cs),
(45,-206,o),
(137,-247,o),
(351,-247,cs),
(541,-247,o),
(776,-233,o),
(997,-188,cs),
(1417,-103,o),
(1647,43,o),
(1647,218,cs),
(1647,351,o),
(1503,469,o),
(1366,469,cs)
);
}
);
};
layerId = "858C6080-C1B0-48F9-B58A-B78069713CD6";
name = "Sep 5, 24 at 14:55";
shapes = (
{
closed = 1;
nodes = (
(923,-179,o),
(1126,-145,o),
(1294,-86,cs),
(1494,-16,o),
(1647,80,o),
(1647,217,cs),
(1647,347,o),
(1510,469,o),
(1364,469,cs),
(1268,469,o),
(1203,412,o),
(1203,344,cs),
(1203,330,o),
(1206,316,o),
(1211,302,cs),
(1227,255,ls),
(1231,243,o),
(1234,231,o),
(1234,220,cs),
(1234,108,o),
(1010,48,o),
(876,48,cs),
(799,48,o),
(765,78,o),
(765,112,cs),
(765,139,o),
(798,160,o),
(838,184,cs),
(899,222,o),
(975,272,o),
(975,359,cs),
(975,486,o),
(824,558,o),
(652,558,cs),
(353,558,o),
(75,339,o),
(75,164,cs),
(75,97,o),
(122,51,o),
(192,51,cs),
(268,51,o),
(333,108,o),
(333,168,cs),
(333,213,o),
(296,259,o),
(232,259,cs),
(213,259,o),
(191,255,o),
(167,245,c,{
"Letterink-NibData" = {
AngleInDegrees = "360";
};
}),
(194,219,l),
(232,386,o),
(450,493,o),
(626,493,cs),
(770,493,o),
(854,421,o),
(854,337,cs),
(854,260,o),
(787,222,o),
(727,188,cs),
(680,162,o),
(638,138,o),
(638,94,cs),
(638,31,o),
(714,-12,o),
(845,-12,cs),
(1078,-12,o),
(1336,94,o),
(1336,233,cs),
(1336,247,o),
(1334,260,o),
(1329,275,cs),
(1315,315,ls),
(1309,331,o),
(1306,347,o),
(1306,360,cs),
(1306,389,o),
(1321,410,o),
(1363,410,cs),
(1443,410,o),
(1535,293,o),
(1535,198,cs),
(1535,90,o),
(1441,28,o),
(1272,-31,cs),
(1149,-74,o),
(954,-119,o),
(796,-119,cs),
(676,-119,o),
(659,-86,o),
(659,-63,cs),
(659,-37,o),
(691,-12,o),
(757,5,c),
(744,38,l),
(608,9,o),
(539,-32,o),
(539,-83,cs),
(539,-135,o),
(597,-179,o),
(760,-179,cs)
);
}
);
width = 1723;
}
);
metricLeft = "ba-divesakuru";
metricRight = "ka-divesakuru";
unicode = 71971;
}
{
glyphname = "aaVowel-divesakuru";
lastChange = "2025-02-05 08:22:42 +0000";
layers = (
{
background = {
shapes = (
{
closed = 1;
nodes = (
(1116,640,l),
(1118,640,o),
(1121,640,o),
(1123,640,cs),
(1438,640,o),
(1538,511,o),
(1538,377,cs),
(1538,215,o),
(1361,65,o),
(1048,-30,cs),
(857,-88,o),
(624,-131,o),
(425,-131,cs),
(267,-131,o),
(197,-105,o),
(197,-56,cs),
(197,-13,o),
(269,16,o),
(353,32,c),
(346,69,l),
(169,43,o),
(75,-16,o),
(75,-81,cs),
(75,-149,o),
(167,-190,o),
(381,-190,cs),
(641,-190,o),
(895,-134,o),
(1047,-91,cs,{
"Letterink-NibData" = {
AngleInDegrees = "360";
};
}),
(1450,24,o),
(1655,223,o),
(1655,401,cs),
(1655,533,o),
(1533,687,o),
(1184,687,cs),
(1162,687,o),
(1139,686,o),
(1116,685,c)
);
}
);
};
layerId = "0C4B00F6-5348-41D6-8EE7-AA18FE59D1B1";
shapes = (
{
closed = 1;
nodes = (
(641,-190,o),
(895,-134,o),
(1047,-91,cs,{
"Letterink-NibData" = {
AngleInDegrees = "360";
};
}),
(1450,24,o),
(1655,223,o),
(1655,404,cs),
(1655,541,o),
(1537,685,o),
(1277,685,cs),
(1216,685,o),
(1153,677,o),
(1111,665,c),
(1119,627,l),
(1153,633,o),
(1183,636,o),
(1217,636,cs),
(1437,636,o),
(1538,516,o),
(1538,386,cs),
(1538,215,o),
(1361,65,o),
(1048,-30,cs),
(857,-88,o),
(624,-131,o),
(425,-131,cs),
(267,-131,o),
(197,-105,o),
(197,-56,cs),
(197,-13,o),
(269,16,o),
(353,32,c),
(346,69,l),
(169,43,o),
(75,-16,o),
(75,-81,cs),
(75,-149,o),
(167,-190,o),
(381,-190,cs)
);
}
);
width = 1730;
}
);
unicode = 71984;
}
{
glyphname = "iiVowel-divesakuru";
lastChange = "2025-02-05 08:22:42 +0000";
layers = (
{
background = {
shapes = (
{
closed = 1;
nodes = (
(254,-146,o),
(197,-126,o),
(197,-88,cs),
(197,-53,o),
(241,-30,o),
(293,-17,c),
(286,14,l),
(148,-8,o),
(75,-58,o),
(75,-113,cs),
(75,-171,o),
(155,-205,o),
(311,-205,cs),
(510,-205,o),
(868,-179,o),
(1179,-112,cs),
(1545,-34,o),
(1693,54,o),
(1693,148,cs),
(1693,218,o),
(1610,254,o),
(1496,254,c),
(1452,217,l),
(1544,216,o),
(1574,175,o),
(1574,141,cs),
(1574,70,o),
(1443,4,o),
(1184,-51,cs),
(911,-109,o),
(510,-146,o),
(355,-146,cs)
);
},
{
closed = 1;
nodes = (
(1142,446,l),
(1208,477,o),
(1287,506,o),
(1363,506,cs),
(1464,506,o),
(1514,442,o),
(1514,375,cs),
(1514,291,o),
(1435,231,o),
(1303,196,c),
(1315,152,l),
(1474,192,o),
(1630,280,o),
(1630,404,cs),
(1630,498,o),
(1533,567,o),
(1401,567,cs),
(1308,567,o),
(1206,539,o),
(1125,493,c)
);
}
);
};
layerId = "0C4B00F6-5348-41D6-8EE7-AA18FE59D1B1";
shapes = (
{
closed = 1;
nodes = (
(564,-205,o),
(892,-173,o),
(1179,-112,cs),
(1546,-34,o),
(1693,61,o),
(1693,158,cs),
(1693,230,o),
(1598,267,o),
(1466,267,c),
(1422,230,l),
(1537,229,o),
(1574,186,o),
(1574,151,cs),
(1574,76,o),
(1444,4,o),
(1184,-51,cs),
(933,-104,o),
(567,-146,o),
(425,-146,cs),
(267,-146,o),
(197,-120,o),
(197,-71,cs),
(197,-28,o),
(269,1,o),
(353,17,c),
(346,54,l),
(169,28,o),
(75,-31,o),
(75,-96,cs),
(75,-164,o),
(167,-205,o),
(381,-205,cs)
);
},
{
closed = 1;
nodes = (
(1474,217,o),
(1630,302,o),
(1630,416,cs),
(1630,506,o),
(1533,567,o),
(1401,567,cs),
(1308,567,o),
(1206,539,o),
(1125,493,c),
(1142,446,l),
(1208,477,o),
(1287,506,o),
(1363,506,cs),
(1464,506,o),
(1514,451,o),
(1514,390,cs),
(1514,313,o),
(1435,256,o),
(1303,222,c),
(1315,178,l)
);
}
);
width = 1768;
}
);
unicode = 71986;
}
{
category = Mark;
glyphname = "eVowel-divesakuru";
kernLeft = ka_eVowel;
lastChange = "2025-02-05 08:22:42 +0000";
layers = (
{
anchors = (
{
name = caret_1;
}
);
background = {
shapes = (
{
closed = 1;
nodes = (
(433,-15,o),
(571,101,o),
(571,253,cs),
(571,393,o),
(454,509,o),
(289,509,cs),
(160,509,o),
(75,439,o),
(75,361,cs),
(75,288,o),
(151,227,o),
(260,232,c),
(298,264,l),
(236,278,o),
(187,322,o),
(187,374,cs),
(187,423,o),
(231,452,o),
(280,452,cs),
(380,452,o),
(465,329,o),
(465,225,cs),
(465,132,o),
(398,42,o),
(327,42,cs),
(284,42,o),
(255,75,o),
(255,120,cs),
(255,201,o),
(349,265,o),
(504,291,c),
(494,339,l),
(334,316,o),
(144,222,o),
(144,99,cs),
(144,37,o),
(195,-15,o),
(290,-15,cs)
);
}
);
};
layerId = "0C4B00F6-5348-41D6-8EE7-AA18FE59D1B1";
shapes = (
{
closed = 1;
nodes = (
(433,-15,o),
(571,101,o),
(571,253,cs),
(571,393,o),
(454,509,o),
(289,509,cs),
(160,509,o),
(75,439,o),
(75,361,cs),
(75,288,o),
(151,227,o),
(260,232,c),
(298,264,l),
(236,278,o),
(187,322,o),
(187,374,cs),
(187,423,o),
(231,452,o),
(280,452,cs),
(380,452,o),
(465,329,o),
(465,227,cs),
(465,134,o),
(395,47,o),
(323,47,cs),
(281,47,o),
(255,77,o),
(255,120,cs),
(255,201,o),
(349,265,o),
(504,291,c),
(494,339,l),
(334,316,o),
(144,212,o),
(144,97,cs),
(144,37,o),
(195,-15,o),
(290,-15,cs)
);
}
);
width = 646;
},
{
associatedMasterId = "0C4B00F6-5348-41D6-8EE7-AA18FE59D1B1";
layerId = "BAE2694C-77AA-498F-88CE-4285F4207B4D";
name = "Jun 14, 24 at 15:26";
shapes = (
{
closed = 1;
nodes = (
(529,342,l),
(355,311,o),
(151,218,o),
(151,101,cs),
(151,36,o),
(214,-15,o),
(314,-15,cs),
(462,-15,o),
(607,96,o),
(607,255,cs),
(607,398,o),
(491,509,o),
(317,509,cs),
(168,509,o),
(65,432,o),
(65,351,cs),
(65,281,o),
(142,236,o),
(252,231,c),
(293,265,l),
(211,284,o),
(182,325,o),
(182,367,cs),
(182,423,o),
(235,450,o),
(290,450,cs),
(411,450,o),
(498,316,o),
(498,215,cs),
(498,124,o),
(426,44,o),
(346,44,cs),
(293,44,o),
(265,79,o),
(265,119,cs),
(266,215,o),
(429,277,o),
(542,295,c)
);
}
);
width = 682;
},
{
associatedMasterId = "0C4B00F6-5348-41D6-8EE7-AA18FE59D1B1";
background = {
shapes = (
{
closed = 1;
nodes = (
(504,338,l),
(339,308,o),
(144,215,o),
(144,98,cs),
(144,34,o),
(203,-15,o),
(294,-15,cs),
(440,-15,o),
(581,101,o),
(581,258,cs),
(581,403,o),
(462,509,o),
(299,509,cs),
(162,509,o),
(75,429,o),
(75,352,cs),
(75,280,o),
(151,237,o),
(260,232,c),
(298,264,l),
(229,280,o),
(191,322,o),
(191,369,cs),
(191,423,o),
(240,452,o),
(288,452,cs),
(388,452,o),
(472,329,o),
(472,226,cs),
(472,132,o),
(403,42,o),
(330,42,cs),
(282,42,o),
(258,83,o),
(258,124,cs),
(258,219,o),
(410,276,o),
(514,293,c)
);
}
);
};
layerId = "4128F9D8-D0A4-49E1-BABD-9B4235A6CF8C";
name = "Jun 25, 24 at 15:04";
shapes = (
{
closed = 1;
nodes = (
(504,338,l),
(339,309,o),
(144,218,o),
(144,99,cs),
(144,37,o),
(196,-15,o),
(294,-15,cs),
(440,-15,o),
(581,101,o),
(581,260,cs),
(581,403,o),
(466,509,o),
(305,509,cs),
(166,509,o),
(75,429,o),
(75,351,cs),
(75,280,o),
(151,227,o),
(260,232,c),
(298,264,l),
(228,280,o),
(190,322,o),
(190,369,cs),
(190,423,o),
(240,452,o),
(288,452,cs),
(388,452,o),
(472,329,o),
(472,226,cs),
(472,132,o),
(403,42,o),
(334,42,cs),
(287,42,o),
(258,85,o),
(258,126,cs),
(258,221,o),
(410,276,o),
(514,293,c)
);
}
);
width = 656;
},
{
anchors = (
{
name = caret_1;
}
);
associatedMasterId = "0C4B00F6-5348-41D6-8EE7-AA18FE59D1B1";
background = {
shapes = (
{
closed = 1;
nodes = (
(433,-15,o),
(571,101,o),
(571,253,cs),
(571,393,o),
(454,509,o),
(289,509,cs),
(160,509,o),
(75,439,o),
(75,361,cs),
(75,288,o),
(151,227,o),
(260,232,c),
(298,264,l),
(236,278,o),
(187,322,o),
(187,374,cs),
(187,423,o),
(231,452,o),
(280,452,cs),
(380,452,o),
(465,329,o),
(465,225,cs),
(465,132,o),
(398,42,o),
(327,42,cs),
(284,42,o),
(255,75,o),
(255,120,cs),
(255,201,o),
(349,265,o),
(504,291,c),
(494,339,l),
(334,316,o),
(144,222,o),
(144,99,cs),
(144,37,o),
(195,-15,o),
(290,-15,cs)
);
}
);
};
layerId = "4ACA1215-8801-474F-A40E-55C4333985DE";
name = "Sep 5, 24 at 15:34";
shapes = (
{
closed = 1;
nodes = (
(433,-15,o),
(571,101,o),
(571,253,cs),
(571,393,o),
(454,509,o),
(289,509,cs),
(160,509,o),
(75,439,o),
(75,361,cs),
(75,288,o),
(151,227,o),
(260,232,c),
(298,264,l),
(236,278,o),
(187,322,o),
(187,374,cs),
(187,423,o),
(231,452,o),
(280,452,cs),
(380,452,o),
(465,329,o),
(465,225,cs),
(465,132,o),
(398,42,o),
(327,42,cs),
(284,42,o),
(255,75,o),
(255,120,cs),
(255,201,o),
(349,265,o),
(504,291,c),
(494,339,l),
(334,316,o),
(144,222,o),
(144,99,cs),
(144,37,o),
(195,-15,o),
(290,-15,cs)
);
}
);
width = 646;
}
);
subCategory = Spacing;
unicode = 71989;
}
{
glyphname = "halanta-divesakuru";
lastChange = "2025-02-05 08:22:42 +0000";
layers = (
{
anchors = (
{
name = _halanta;
pos = (290,494);
}
);
associatedMasterId = "0C4B00F6-5348-41D6-8EE7-AA18FE59D1B1";
background = {
shapes = (
{
closed = 1;
nodes = (
(704,778,o),
(1159,978,o),
(1296,978,cs),
(1338,978,o),
(1360,953,o),
(1360,925,cs),
(1360,877,o),
(1288,831,o),
(1235,805,c),
(1258,768,l),
(1353,811,o),
(1466,882,o),
(1466,960,cs),
(1466,1012,o),
(1422,1047,o),
(1350,1047,cs),
(1152,1047,o),
(693,841,o),
(270,517,c),
(312,467,l)
);
}
);
};
layerId = "F0FC35DE-904A-496C-83A0-81BBD2579018";
name = "Aug 30, 24 at 10:54";
shapes = (
{
closed = 1;
nodes = (
(704,778,o),
(1159,978,o),
(1296,978,cs),
(1338,978,o),
(1360,953,o),
(1360,925,cs),
(1360,877,o),
(1288,831,o),
(1235,805,c),
(1258,768,l),
(1353,811,o),
(1466,882,o),
(1466,960,cs),
(1466,1012,o),
(1422,1047,o),
(1350,1047,cs),
(1152,1047,o),
(693,841,o),
(270,517,c),
(312,467,l)
);
}
);
width = 300;
},
{
anchors = (
{
name = _halanta;
pos = (95,494);
}
);
background = {
shapes = (
{
closed = 1;
nodes = (
(517,881,o),
(977,1149,o),
(1121,1149,cs),
(1151,1149,o),
(1165,1133,o),
(1165,1112,cs),
(1165,1072,o),
(1087,1033,o),
(1030,1010,c),
(1053,973,l),
(1153,1011,o),
(1271,1074,o),
(1271,1142,cs),
(1271,1187,o),
(1226,1217,o),
(1158,1217,cs),
(955,1217,o),
(497,945,o),
(75,517,c),
(126,467,l)
);
}
);
};
layerId = "0C4B00F6-5348-41D6-8EE7-AA18FE59D1B1";
name = Regular;
shapes = (
{
closed = 1;
nodes = (
(517,881,o),
(977,1149,o),
(1121,1149,cs),
(1151,1149,o),
(1165,1133,o),
(1165,1112,cs),
(1165,1072,o),
(1087,1033,o),
(1030,1010,c),
(1053,973,l),
(1153,1011,o),
(1271,1074,o),
(1271,1142,cs),
(1271,1187,o),
(1226,1217,o),
(1158,1217,cs),
(955,1217,o),
(497,945,o),
(75,517,c),
(126,467,l)
);
}
);
width = 446;
}
);
metricRight = "ga_halanta-divesakuru";
unicode = 71997;
}
{
glyphname = "virama-divesakuru";
lastChange = "2025-02-05 08:22:42 +0000";
layers = (
{
layerId = "0C4B00F6-5348-41D6-8EE7-AA18FE59D1B1";
shapes = (
{
closed = 1;
nodes = (
(30,-376,l),
(30,0,l),
(-30,0,l),
(-30,-376,l)
);
},
{
closed = 1;
nodes = (
(183,-214,l),
(183,-160,l),
(-183,-160,l),
(-183,-214,l)
);
}
);
width = 0;
}
);
unicode = 71998;
}
{
category = Mark;
glyphname = "nukta-divesakuru";
lastChange = "2025-02-05 08:22:42 +0000";
layers = (
{
anchors = (
{
name = _bottom;
pos = (-3,-2);
}
);
background = {
shapes = (
{
closed = 1;
nodes = (
(78,-17,o),
(44,5,o),
(5,5,cs),
(-43,5,o),
(-78,-29,o),
(-78,-67,cs),
(-78,-106,o),
(-44,-128,o),
(-5,-128,cs),
(42,-128,o),
(78,-94,o),
(78,-56,cs)
);
}
);
};
layerId = "0C4B00F6-5348-41D6-8EE7-AA18FE59D1B1";
shapes = (
{
closed = 1;
nodes = (
(42,-128,o),
(78,-94,o),
(78,-56,cs),
(78,-17,o),
(44,5,o),
(5,5,cs),
(-42,5,o),
(-78,-29,o),
(-78,-67,cs),
(-78,-106,o),
(-44,-128,o),
(-5,-128,cs)
);
}
);
width = 300;
}
);
subCategory = Nonspacing;
unicode = 72003;
}
{
glyphname = "gapFiller-divesakuru";
lastChange = "2025-02-05 08:22:42 +0000";
layers = (
{
background = {
shapes = (
{
closed = 1;
nodes = (
(873,226,l),
(873,286,l),
(417,286,l),
(433,247,l),
(596,226,l)
);
},
{
closed = 1;
nodes = (
(546,-133,o),
(723,-12,o),
(723,115,cs),
(723,183,o),
(679,233,o),
(580,246,c),
(491,246,o),
(471,253,o),
(451,250,c),
(491,280,l),
(588,307,o),
(674,395,o),
(674,486,cs),
(674,595,o),
(556,678,o),
(390,678,cs),
(198,678,o),
(41,570,o),
(41,482,cs),
(41,430,o),
(89,394,o),
(146,394,cs),
(214,394,o),
(276,444,o),
(276,500,cs),
(276,543,o),
(240,582,o),
(177,581,c),
(179,561,l),
(224,594,o),
(293,618,o),
(365,618,cs),
(474,618,o),
(557,550,o),
(557,467,cs),
(557,374,o),
(469,284,o),
(271,261,c),
(278,212,l),
(315,221,o),
(379,236,o),
(422,236,cs),
(546,236,o),
(610,169,o),
(610,101,cs),
(610,10,o),
(507,-74,o),
(350,-74,cs),
(305,-74,o),
(265,-64,o),
(224,-51,c),
(233,-81,l),
(286,-70,o),
(326,-31,o),
(326,14,cs),
(326,65,o),
(276,98,o),
(219,98,cs),
(148,98,o),
(89,48,o),
(89,-10,cs),
(89,-78,o),
(180,-133,o),
(335,-133,cs)
);
}
);
};
layerId = "0C4B00F6-5348-41D6-8EE7-AA18FE59D1B1";
shapes = (
{
closed = 1;
nodes = (
(561,246,o),
(541,245,o),
(521,242,c),
(491,280,l),
(588,307,o),
(674,395,o),
(674,486,cs),
(674,595,o),
(556,678,o),
(390,678,cs),
(198,678,o),
(41,570,o),
(41,482,cs),
(41,430,o),
(89,394,o),
(146,394,cs),
(214,394,o),
(276,444,o),
(276,500,cs),
(276,543,o),
(240,582,o),
(177,581,c),
(179,561,l),
(224,594,o),
(293,618,o),
(365,618,cs),
(474,618,o),
(557,550,o),
(557,467,cs),
(557,374,o),
(467,286,o),
(270,286,cs),
(-10,286,l),
(-10,226,l),
(225,226,ls),
(305,226,o),
(379,233,o),
(422,233,cs),
(546,233,o),
(610,167,o),
(610,101,cs),
(610,10,o),
(507,-74,o),
(350,-74,cs),
(305,-74,o),
(265,-64,o),
(224,-51,c),
(233,-81,l),
(286,-70,o),
(326,-31,o),
(326,14,cs),
(326,65,o),
(276,98,o),
(219,98,cs),
(148,98,o),
(89,48,o),
(89,-10,cs),
(89,-78,o),
(180,-133,o),
(335,-133,cs),
(543,-133,o),
(718,-12,o),
(718,115,cs),
(718,183,o),
(676,233,o),
(580,246,c)
);
},
{
closed = 1;
nodes = (
(873,226,l),
(873,286,l),
(417,286,l),
(433,247,l),
(596,226,l)
);
}
);
width = 863;
},
{
associatedMasterId = "0C4B00F6-5348-41D6-8EE7-AA18FE59D1B1";
background = {
shapes = (
{
closed = 1;
nodes = (
(448,266,l),
(460,268,o),
(473,269,o),
(484,269,cs),
(592,269,o),
(660,190,o),
(654,115,cs),
(643,-1,o),
(512,-77,o),
(382,-77,cs),
(328,-77,o),
(277,-65,o),
(229,-39,c),
(275,-73,l),
(338,-62,o),
(373,-20,o),
(373,27,cs),
(373,87,o),
(314,118,o),
(260,118,cs),
(186,118,o),
(117,78,o),
(117,7,cs),
(117,-101,o),
(263,-132,o),
(366,-132,cs),
(596,-132,o),
(768,-3,o),
(768,140,cs),
(768,222,o),
(699,308,o),
(535,308,c)
);
},
{
closed = 1;
nodes = (
(329,226,l),
(589,226,o),
(710,347,o),
(710,475,cs),
(710,616,o),
(564,692,o),
(410,692,cs),
(253,692,o),
(90,606,o),
(90,498,cs),
(90,442,o),
(138,399,o),
(207,399,cs),
(285,399,o),
(350,455,o),
(350,516,cs),
(350,559,o),
(318,605,o),
(254,605,cs),
(238,605,o),
(218,602,o),
(196,593,c,{
"Letterink-NibData" = {
AngleInDegrees = "360";
};
}),
(236,560,l),
(253,606,o),
(335,636,o),
(416,632,cs),
(538,625,o),
(591,553,o),
(591,471,cs),
(591,363,o),
(501,286,o),
(320,286,c)
);
},
{
closed = 1;
nodes = (
(630,286,l),
(630,226,l),
(873,226,l),
(873,286,l)
);
},
{
closed = 1;
nodes = (
(320,286,l),
(-10,286,l),
(-10,226,l),
(329,226,l)
);
},
{
closed = 1;
nodes = (
(448,266,l),
(460,268,o),
(473,269,o),
(484,269,cs),
(592,269,o),
(660,190,o),
(654,115,cs),
(643,-1,o),
(512,-77,o),
(382,-77,cs),
(328,-77,o),
(277,-65,o),
(229,-39,c),
(275,-73,l),
(338,-62,o),
(373,-20,o),
(373,27,cs),
(373,87,o),
(314,118,o),
(260,118,cs),
(186,118,o),
(117,78,o),
(117,7,cs),
(117,-101,o),
(263,-132,o),
(366,-132,cs),
(596,-132,o),
(768,-3,o),
(768,140,cs),
(768,222,o),
(699,308,o),
(535,308,c)
);
},
{
closed = 1;
nodes = (
(329,226,l),
(589,226,o),
(710,347,o),
(710,475,cs),
(710,616,o),
(564,692,o),
(410,692,cs),
(253,692,o),
(90,606,o),
(90,498,cs),
(90,442,o),
(138,399,o),
(207,399,cs),
(285,399,o),
(350,455,o),
(350,516,cs),
(350,559,o),
(318,605,o),
(254,605,cs),
(238,605,o),
(218,602,o),
(196,593,c,{
"Letterink-NibData" = {
AngleInDegrees = "360";
};
}),
(236,560,l),
(253,606,o),
(335,636,o),
(416,632,cs),
(538,625,o),
(591,553,o),
(591,471,cs),
(591,363,o),
(501,286,o),
(320,286,c)
);
},
{
closed = 1;
nodes = (
(630,286,l),
(630,226,l),
(873,226,l),
(873,286,l)
);
},
{
closed = 1;
nodes = (
(320,286,l),
(-10,286,l),
(-10,226,l),
(329,226,l)
);
}
);
};
layerId = "EDFAC025-2934-4349-8565-A790884123EB";
name = "May 28, 24 at 16:21";
shapes = (
{
closed = 1;
nodes = (
(448,266,l),
(460,268,o),
(473,269,o),
(484,269,cs),
(592,269,o),
(660,190,o),
(654,115,cs),
(643,-1,o),
(512,-77,o),
(382,-77,cs),
(328,-77,o),
(277,-65,o),
(229,-39,c),
(275,-73,l),
(338,-62,o),
(373,-20,o),
(373,27,cs),
(373,87,o),
(314,118,o),
(260,118,cs),
(186,118,o),
(117,78,o),
(117,7,cs),
(117,-101,o),
(263,-132,o),
(366,-132,cs),
(596,-132,o),
(768,-3,o),
(768,140,cs),
(768,222,o),
(699,308,o),
(535,308,c)
);
},
{
closed = 1;
nodes = (
(329,226,l),
(589,226,o),
(710,347,o),
(710,475,cs),
(710,616,o),
(564,692,o),
(410,692,cs),
(253,692,o),
(90,606,o),
(90,498,cs),
(90,442,o),
(138,399,o),
(207,399,cs),
(285,399,o),
(350,455,o),
(350,516,cs),
(350,559,o),
(318,605,o),
(254,605,cs),
(238,605,o),
(218,602,o),
(196,593,c,{
"Letterink-NibData" = {
AngleInDegrees = "360";
};
}),
(236,560,l),
(253,606,o),
(335,636,o),
(416,632,cs),
(538,625,o),
(591,553,o),
(591,471,cs),
(591,363,o),
(501,286,o),
(320,286,c)
);
},
{
closed = 1;
nodes = (
(630,286,l),
(630,226,l),
(873,226,l),
(873,286,l)
);
},
{
closed = 1;
nodes = (
(320,286,l),
(-10,286,l),
(-10,226,l),
(329,226,l)
);
},
{
closed = 1;
nodes = (
(448,266,l),
(460,268,o),
(473,269,o),
(484,269,cs),
(592,269,o),
(660,190,o),
(654,115,cs),
(643,-1,o),
(512,-77,o),
(382,-77,cs),
(328,-77,o),
(277,-65,o),
(229,-39,c),
(275,-73,l),
(338,-62,o),
(373,-20,o),
(373,27,cs),
(373,87,o),
(314,118,o),
(260,118,cs),
(186,118,o),
(117,78,o),
(117,7,cs),
(117,-101,o),
(263,-132,o),
(366,-132,cs),
(596,-132,o),
(768,-3,o),
(768,140,cs),
(768,222,o),
(699,308,o),
(535,308,c)
);
},
{
closed = 1;
nodes = (
(329,226,l),
(589,226,o),
(710,347,o),
(710,475,cs),
(710,616,o),
(564,692,o),
(410,692,cs),
(253,692,o),
(90,606,o),
(90,498,cs),
(90,442,o),
(138,399,o),
(207,399,cs),
(285,399,o),
(350,455,o),
(350,516,cs),
(350,559,o),
(318,605,o),
(254,605,cs),
(238,605,o),
(218,602,o),
(196,593,c,{
"Letterink-NibData" = {
AngleInDegrees = "360";
};
}),
(236,560,l),
(253,606,o),
(335,636,o),
(416,632,cs),
(538,625,o),
(591,553,o),
(591,471,cs),
(591,363,o),
(501,286,o),
(320,286,c)
);
},
{
closed = 1;
nodes = (
(630,286,l),
(630,226,l),
(873,226,l),
(873,286,l)
);
},
{
closed = 1;
nodes = (
(320,286,l),
(-10,286,l),
(-10,226,l),
(329,226,l)
);
}
);
width = 863;
},
{
associatedMasterId = "0C4B00F6-5348-41D6-8EE7-AA18FE59D1B1";
background = {
shapes = (
{
closed = 1;
nodes = (
(630,286,l),
(630,226,l),
(873,226,l),
(873,286,l)
);
},
{
closed = 1;
nodes = (
(320,286,l),
(-10,286,l),
(-10,226,l),
(329,226,l)
);
},
{
closed = 1;
nodes = (
(630,286,l),
(630,226,l),
(873,226,l),
(873,286,l)
);
},
{
closed = 1;
nodes = (
(320,286,l),
(-10,286,l),
(-10,226,l),
(329,226,l)
);
},
{
closed = 1;
nodes = (
(442,267,l),
(456,270,o),
(473,271,o),
(484,271,cs),
(581,271,o),
(644,200,o),
(644,123,cs),
(644,9,o),
(508,-73,o),
(375,-73,cs),
(326,-73,o),
(280,-62,o),
(235,-40,c),
(282,-79,l),
(340,-69,o),
(381,-24,o),
(381,27,cs),
(381,88,o),
(323,123,o),
(264,123,cs),
(192,123,o),
(123,72,o),
(123,2,cs),
(123,-76,o),
(210,-133,o),
(360,-133,cs),
(590,-133,o),
(762,1,o),
(762,140,cs),
(762,228,o),
(693,314,o),
(526,309,c)
);
},
{
closed = 1;
nodes = (
(99,414,o),
(154,374,o),
(218,374,cs),
(292,374,o),
(357,428,o),
(357,491,cs),
(357,539,o),
(320,583,o),
(263,584,cs),
(245,584,o),
(223,580,o),
(198,568,c,{
"Letterink-NibData" = {
AngleInDegrees = "360";
};
}),
(246,539,l),
(259,586,o),
(335,631,o),
(420,631,cs),
(527,631,o),
(581,560,o),
(581,483,cs),
(581,375,o),
(493,279,o),
(339,279,cs),
(326,279,l),
(331,233,l),
(345,233,ls),
(542,233,o),
(699,354,o),
(699,497,cs),
(699,623,o),
(571,691,o),
(434,691,cs),
(275,691,o),
(99,599,o),
(99,480,cs)
);
}
);
};
layerId = "D2E6C89A-BB79-4120-B137-3608C792A224";
name = "May 28, 24 at 17:52";
shapes = (
{
closed = 1;
nodes = (
(630,286,l),
(630,226,l),
(873,226,l),
(873,286,l)
);
},
{
closed = 1;
nodes = (
(630,286,l),
(630,226,l),
(873,226,l),
(873,286,l)
);
},
{
closed = 1;
nodes = (
(326,286,l),
(-10,286,l),
(-10,226,l),
(331,226,l)
);
},
{
closed = 1;
nodes = (
(442,267,l),
(456,270,o),
(473,271,o),
(484,271,cs),
(581,271,o),
(644,200,o),
(644,123,cs),
(644,9,o),
(508,-73,o),
(375,-73,cs),
(326,-73,o),
(280,-62,o),
(235,-40,c),
(282,-79,l),
(340,-69,o),
(381,-24,o),
(381,27,cs),
(381,88,o),
(323,123,o),
(264,123,cs),
(192,123,o),
(123,72,o),
(123,2,cs),
(123,-76,o),
(210,-133,o),
(360,-133,cs),
(587,-133,o),
(757,1,o),
(757,140,cs),
(757,228,o),
(689,314,o),
(526,309,c)
);
},
{
closed = 1;
nodes = (
(99,414,o),
(154,374,o),
(218,374,cs),
(292,374,o),
(357,428,o),
(357,491,cs),
(357,539,o),
(320,583,o),
(263,584,cs),
(245,584,o),
(223,580,o),
(198,568,c,{
"Letterink-NibData" = {
AngleInDegrees = "360";
};
}),
(246,539,l),
(259,586,o),
(335,631,o),
(420,631,cs),
(527,631,o),
(581,560,o),
(581,483,cs),
(581,379,o),
(493,286,o),
(339,286,cs),
(326,286,l),
(331,226,l),
(345,226,ls),
(542,226,o),
(699,350,o),
(699,497,cs),
(699,623,o),
(571,691,o),
(434,691,cs),
(275,691,o),
(99,599,o),
(99,480,cs)
);
}
);
width = 863;
},
{
associatedMasterId = "0C4B00F6-5348-41D6-8EE7-AA18FE59D1B1";
background = {
shapes = (
{
closed = 1;
nodes = (
(312,226,ls),
(565,226,o),
(699,360,o),
(699,487,cs),
(699,623,o),
(546,691,o),
(412,691,cs),
(270,691,o),
(104,609,o),
(104,506,cs),
(104,448,o),
(157,410,o),
(218,410,cs),
(289,410,o),
(352,461,o),
(352,519,cs),
(352,564,o),
(316,605,o),
(262,606,cs),
(244,606,o),
(223,602,o),
(199,591,c,{
"Letterink-NibData" = {
AngleInDegrees = "360";
};
}),
(245,564,l),
(257,605,o),
(330,631,o),
(390,631,cs),
(504,631,o),
(581,560,o),
(581,470,cs),
(581,388,o),
(524,286,o),
(327,286,cs),
(-10,286,l),
(-10,226,l)
);
},
{
closed = 1;
nodes = (
(547,-133,o),
(710,-14,o),
(710,116,cs),
(710,203,o),
(636,272,o),
(474,272,c),
(392,257,l),
(496,269,o),
(594,208,o),
(594,110,cs),
(594,-1,o),
(467,-73,o),
(338,-73,cs),
(288,-73,o),
(237,-58,o),
(186,-36,c),
(231,-72,l),
(286,-63,o),
(326,-21,o),
(326,27,cs),
(326,83,o),
(270,116,o),
(212,116,cs),
(144,116,o),
(78,72,o),
(78,9,cs),
(78,-71,o),
(166,-133,o),
(325,-133,cs)
);
},
{
closed = 1;
nodes = (
(873,226,l),
(873,286,l),
(500,286,l),
(572,226,l)
);
}
);
};
layerId = "DC3ED0DE-2C26-44BB-9C22-C522DAE2CC49";
name = "May 31, 24 at 10:31";
shapes = (
{
closed = 1;
nodes = (
(312,226,ls),
(565,226,o),
(699,360,o),
(699,487,cs),
(699,623,o),
(546,691,o),
(412,691,cs),
(270,691,o),
(104,609,o),
(104,506,cs),
(104,448,o),
(157,410,o),
(218,410,cs),
(289,410,o),
(352,461,o),
(352,519,cs),
(352,564,o),
(316,605,o),
(262,606,cs),
(244,606,o),
(223,602,o),
(199,591,c,{
"Letterink-NibData" = {
AngleInDegrees = "360";
};
}),
(245,564,l),
(257,605,o),
(330,631,o),
(390,631,cs),
(504,631,o),
(581,560,o),
(581,470,cs),
(581,388,o),
(524,286,o),
(327,286,cs),
(-10,286,l),
(-10,226,l)
);
},
{
closed = 1;
nodes = (
(547,-133,o),
(710,-14,o),
(710,116,cs),
(710,203,o),
(636,272,o),
(474,272,c),
(392,257,l),
(496,269,o),
(594,208,o),
(594,110,cs),
(594,-1,o),
(467,-73,o),
(338,-73,cs),
(288,-73,o),
(237,-58,o),
(186,-36,c),
(231,-72,l),
(286,-63,o),
(326,-21,o),
(326,27,cs),
(326,83,o),
(270,116,o),
(212,116,cs),
(144,116,o),
(78,72,o),
(78,9,cs),
(78,-71,o),
(166,-133,o),
(325,-133,cs)
);
},
{
closed = 1;
nodes = (
(873,226,l),
(873,286,l),
(500,286,l),
(572,226,l)
);
}
);
width = 863;
}
);
metricLeft = "endofTextMark-divesakuru";
metricRight = "endofTextMark-divesakuru";
unicode = 72005;
}
{
export = 0;
glyphname = "_ma-divesakuru.alt2";
lastChange = "2025-02-05 08:22:42 +0000";
layers = (
{
anchors = (
{
name = bottom;
pos = (549,-100);
},
{
name = top;
pos = (307,471);
}
);
background = {
shapes = (
{
closed = 1;
nodes = (
(75,186,o),
(124,143,o),
(193,143,cs),
(268,143,o),
(333,199,o),
(333,262,cs),
(333,305,o),
(299,350,o),
(235,350,cs),
(216,350,o),
(193,346,o),
(169,336,c,{
"Letterink-NibData" = {
AngleInDegrees = "360";
};
}),
(196,310,l),
(224,390,o),
(315,448,o),
(413,448,cs),
(529,448,o),
(611,366,o),
(611,264,cs),
(611,168,o),
(537,88,o),
(422,28,c),
(431,-8,l),
(893,90,o),
(1077,227,o),
(1077,329,cs),
(1077,370,o),
(1047,400,o),
(974,400,cs),
(925,400,o),
(864,390,o),
(822,378,c),
(826,344,l),
(852,348,o),
(874,351,o),
(891,351,cs),
(937,351,o),
(954,336,o),
(954,308,cs),
(954,248,o),
(856,148,o),
(540,74,c),
(530,52,l),
(647,96,o),
(729,197,o),
(729,290,cs),
(729,399,o),
(628,509,o),
(448,509,cs),
(257,509,o),
(75,386,o),
(75,247,cs)
);
}
);
};
backgroundImage = {
imagePath = "/Users/fernandodemoraescaro/Library/CloudStorage/GoogleDrive-fernando.de-moraes-caro@mail.ensa-nancy.fr/Other computers/My MacBook Air/ANRT/Other/Work/Noto/2_Research/1_Character samples/Simple characters/Document 32/Samples/m_D32_205.jpg";
locked = 1;
pos = (-146,-185);
scale = (70,70);
};
layerId = "0C4B00F6-5348-41D6-8EE7-AA18FE59D1B1";
shapes = (
{
closed = 1;
nodes = (
(196,310,l),
(224,390,o),
(315,448,o),
(416,448,cs),
(529,448,o),
(611,366,o),
(611,264,cs),
(611,168,o),
(523,84,o),
(402,28,c),
(411,-8,l),
(802,55,o),
(1070,248,o),
(1070,402,cs),
(1070,450,o),
(1038,484,o),
(959,484,cs),
(916,484,o),
(862,474,o),
(825,462,c),
(829,428,l),
(847,431,o),
(863,433,o),
(877,433,cs),
(927,433,o),
(952,410,o),
(952,364,cs),
(952,273,o),
(788,124,o),
(513,72,c),
(506,47,l),
(638,93,o),
(729,194,o),
(729,292,cs),
(729,402,o),
(629,509,o),
(449,509,cs),
(257,509,o),
(75,386,o),
(75,247,cs),
(75,186,o),
(124,143,o),
(193,143,cs),
(268,143,o),
(333,199,o),
(333,262,cs),
(333,305,o),
(299,350,o),
(235,350,cs),
(216,350,o),
(193,346,o),
(169,336,c,{
"Letterink-NibData" = {
AngleInDegrees = "360";
};
})
);
}
);
width = 1139;
},
{
associatedMasterId = "0C4B00F6-5348-41D6-8EE7-AA18FE59D1B1";
backgroundImage = {
imagePath = "/Users/fernandodemoraescaro/Library/CloudStorage/GoogleDrive-fernando.de-moraes-caro@mail.ensa-nancy.fr/Other computers/My MacBook Air/ANRT/Other/Work/Noto/2_Research/1_Character samples/Simple characters/Document 32/Samples/m_D32_205.jpg";
locked = 1;
pos = (0,-185);
scale = (70,70);
};
layerId = "01A0812D-FB2C-4BC7-89B4-D9A475FB7BD2";
name = "May 14, 24 at 12:33";
width = 2028;
},
{
associatedMasterId = "0C4B00F6-5348-41D6-8EE7-AA18FE59D1B1";
backgroundImage = {
imagePath = "/Users/fernandodemoraescaro/Library/CloudStorage/GoogleDrive-fernando.de-moraes-caro@mail.ensa-nancy.fr/Other computers/My MacBook Air/ANRT/Other/Work/Noto/2_Research/1_Character samples/Simple characters/Document 32/Samples/m_D32_205.jpg";
locked = 1;
pos = (0,-185);
scale = (70,70);
};
layerId = "EA7D8158-01C9-4F49-934A-DBC3A302C1B0";
name = "May 14, 24 at 12:33";
shapes = (
{
closed = 1;
nodes = (
(547,362,o),
(580,284,o),
(580,227,cs),
(580,108,o),
(447,25,o),
(329,25,cs),
(181,25,o),
(110,100,o),
(110,208,cs),
(110,324,o),
(281,502,o),
(670,502,cs),
(858,502,o),
(1037,420,o),
(1037,244,cs),
(1037,133,o),
(988,68,o),
(905,9,c),
(862,51,l),
(1124,79,o),
(1228,119,o),
(1228,175,cs),
(1228,207,o),
(1157,272,o),
(1096,293,c),
(1096,306,l),
(1299,360,l),
(1385,301,o),
(1431,247,o),
(1431,187,cs),
(1431,90,o),
(1163,-46,o),
(858,-46,cs),
(712,-46,o),
(615,-38,o),
(556,-30,c),
(558,-9,l),
(757,61,o),
(836,122,o),
(836,223,cs),
(836,314,o),
(748,391,o),
(643,391,cs),
(589,391,o),
(536,367,o),
(485,318,c),
(481,403,l)
);
}
);
width = 2028;
},
{
associatedMasterId = "0C4B00F6-5348-41D6-8EE7-AA18FE59D1B1";
background = {
shapes = (
{
closed = 1;
nodes = (
(1090,-8,o),
(1347,146,o),
(1347,261,cs),
(1347,310,o),
(1300,340,o),
(1235,342,cs),
(1183,344,o),
(1110,328,o),
(1055,313,c),
(1063,276,l,{
"Letterink-NibData" = {
AngleInDegrees = "360";
};
}),
(1102,284,o),
(1137,288,o),
(1159,287,cs),
(1211,286,o),
(1235,259,o),
(1235,234,cs),
(1235,159,o),
(1019,28,o),
(669,42,c),
(686,8,l),
(889,67,o),
(954,195,o),
(954,280,cs),
(954,396,o),
(835,509,o),
(640,509,cs),
(445,509,o),
(214,395,o),
(214,272,cs),
(214,215,o),
(263,175,o),
(330,175,cs),
(402,175,o),
(476,220,o),
(476,284,cs),
(476,330,o),
(438,373,o),
(365,373,c),
(375,347,l),
(429,414,o),
(521,450,o),
(613,450,cs),
(758,450,o),
(836,361,o),
(836,273,cs),
(836,161,o),
(709,52,o),
(576,25,c),
(574,-3,l),
(597,-5,o),
(636,-8,o),
(692,-8,cs)
);
}
);
};
backgroundImage = {
imagePath = "/Users/fernandodemoraescaro/Library/CloudStorage/GoogleDrive-fernando.de-moraes-caro@mail.ensa-nancy.fr/Other computers/My MacBook Air/ANRT/Other/Work/Noto/2_Research/1_Character samples/Simple characters/Document 32/Samples/m_D32_205.jpg";
locked = 1;
pos = (0,-185);
scale = (70,70);
};
layerId = "0DCCB234-8219-4C8E-962C-071BC39E3537";
name = "May 14, 24 at 14:15";
shapes = (
{
closed = 1;
nodes = (
(1090,-8,o),
(1347,146,o),
(1347,261,cs),
(1347,310,o),
(1300,340,o),
(1235,342,cs),
(1183,344,o),
(1110,328,o),
(1055,313,c),
(1063,276,l,{
"Letterink-NibData" = {
AngleInDegrees = "360";
};
}),
(1102,284,o),
(1137,288,o),
(1159,287,cs),
(1211,286,o),
(1235,259,o),
(1235,234,cs),
(1235,159,o),
(1019,28,o),
(669,42,c),
(686,8,l),
(889,67,o),
(954,195,o),
(954,280,cs),
(954,396,o),
(835,509,o),
(640,509,cs),
(445,509,o),
(214,395,o),
(214,272,cs),
(214,215,o),
(263,175,o),
(330,175,cs),
(402,175,o),
(476,220,o),
(476,284,cs),
(476,330,o),
(438,373,o),
(365,373,c),
(375,347,l),
(429,414,o),
(521,450,o),
(613,450,cs),
(758,450,o),
(836,361,o),
(836,273,cs),
(836,161,o),
(709,52,o),
(576,25,c),
(574,-3,l),
(597,-5,o),
(636,-8,o),
(692,-8,cs)
);
}
);
width = 2028;
},
{
associatedMasterId = "0C4B00F6-5348-41D6-8EE7-AA18FE59D1B1";
background = {
shapes = (
{
closed = 1;
nodes = (
(702,29,l),
(861,108,o),
(917,217,o),
(917,300,cs),
(917,409,o),
(821,509,o),
(653,509,cs),
(465,509,o),
(289,385,o),
(289,260,cs),
(289,190,o),
(338,147,o),
(406,147,cs),
(484,148,o),
(548,205,o),
(548,264,cs),
(547,324,o),
(478,371,o),
(383,341,c,{
"Letterink-NibData" = {
AngleInDegrees = "360";
};
}),
(410,310,l),
(436,388,o),
(521,444,o),
(619,444,cs),
(722,444,o),
(799,383,o),
(799,280,cs),
(799,186,o),
(725,106,o),
(569,25,c),
(574,-3,l),
(597,-4,o),
(636,-5,o),
(692,-5,cs),
(1054,-5,o),
(1287,147,o),
(1287,261,cs),
(1287,310,o),
(1243,340,o),
(1183,342,cs),
(1134,344,o),
(1066,328,o),
(1015,313,c),
(1023,276,l,{
"Letterink-NibData" = {
AngleInDegrees = "360";
};
}),
(1058,284,o),
(1089,288,o),
(1109,287,cs),
(1154,286,o),
(1175,263,o),
(1175,234,cs),
(1175,160,o),
(982,31,o),
(669,45,c)
);
}
);
};
backgroundImage = {
imagePath = "/Users/fernandodemoraescaro/Library/CloudStorage/GoogleDrive-fernando.de-moraes-caro@mail.ensa-nancy.fr/Other computers/My MacBook Air/ANRT/Other/Work/Noto/2_Research/1_Character samples/Simple characters/Document 32/Samples/m_D32_205.jpg";
locked = 1;
pos = (0,-185);
scale = (70,70);
};
layerId = "7CE78D23-1316-413D-8098-1121E5193BAC";
name = "May 14, 24 at 14:17";
shapes = (
{
closed = 1;
nodes = (
(702,29,l),
(861,108,o),
(917,217,o),
(917,300,cs),
(917,409,o),
(821,509,o),
(653,509,cs),
(465,509,o),
(289,385,o),
(289,260,cs),
(289,190,o),
(338,147,o),
(406,147,cs),
(484,148,o),
(548,205,o),
(548,264,cs),
(547,324,o),
(478,371,o),
(383,341,c,{
"Letterink-NibData" = {
AngleInDegrees = "360";
};
}),
(410,310,l),
(436,388,o),
(521,444,o),
(619,444,cs),
(722,444,o),
(799,383,o),
(799,280,cs),
(799,186,o),
(725,106,o),
(569,25,c),
(574,-3,l),
(597,-4,o),
(636,-5,o),
(692,-5,cs),
(1054,-5,o),
(1287,147,o),
(1287,261,cs),
(1287,310,o),
(1243,340,o),
(1183,342,cs),
(1134,344,o),
(1066,328,o),
(1015,313,c),
(1023,276,l,{
"Letterink-NibData" = {
AngleInDegrees = "360";
};
}),
(1058,284,o),
(1089,288,o),
(1109,287,cs),
(1154,286,o),
(1175,263,o),
(1175,234,cs),
(1175,160,o),
(982,31,o),
(669,45,c)
);
}
);
width = 2028;
},
{
associatedMasterId = "0C4B00F6-5348-41D6-8EE7-AA18FE59D1B1";
background = {
shapes = (
{
closed = 1;
nodes = (
(523,29,l),
(652,105,o),
(698,220,o),
(698,290,cs),
(698,404,o),
(600,509,o),
(429,509,cs),
(238,509,o),
(60,385,o),
(60,260,cs),
(60,190,o),
(109,147,o),
(177,147,cs),
(255,148,o),
(319,205,o),
(319,264,cs),
(318,324,o),
(249,371,o),
(154,341,c,{
"Letterink-NibData" = {
AngleInDegrees = "360";
};
}),
(181,310,l),
(208,388,o),
(295,444,o),
(395,444,cs),
(501,444,o),
(580,379,o),
(580,270,cs),
(580,190,o),
(519,102,o),
(390,25,c),
(395,-3,l),
(445,-5,o),
(494,-6,o),
(539,-6,cs),
(807,-6,o),
(1068,130,o),
(1068,283,cs),
(1068,348,o),
(1024,370,o),
(964,372,cs),
(915,374,o),
(847,358,o),
(796,343,c),
(804,306,l,{
"Letterink-NibData" = {
AngleInDegrees = "360";
};
}),
(839,314,o),
(870,318,o),
(890,317,cs),
(935,316,o),
(956,293,o),
(956,258,cs),
(956,166,o),
(791,47,o),
(567,47,cs),
(543,47,o),
(517,46,o),
(490,45,c)
);
}
);
};
backgroundImage = {
imagePath = "/Users/fernandodemoraescaro/Library/CloudStorage/GoogleDrive-fernando.de-moraes-caro@mail.ensa-nancy.fr/Other computers/My MacBook Air/ANRT/Other/Work/Noto/2_Research/1_Character samples/Simple characters/Document 32/Samples/m_D32_205.jpg";
locked = 1;
pos = (-179,-185);
scale = (70,70);
};
layerId = "ED7D4712-1BC7-4EA5-B746-7B932FBFC727";
name = "May 14, 24 at 14:30";
shapes = (
{
closed = 1;
nodes = (
(513,29,l),
(646,109,o),
(698,220,o),
(698,290,cs),
(698,404,o),
(600,509,o),
(429,509,cs),
(238,509,o),
(60,385,o),
(60,260,cs),
(60,190,o),
(109,147,o),
(177,147,cs),
(255,148,o),
(319,205,o),
(319,264,cs),
(318,324,o),
(249,371,o),
(154,341,c,{
"Letterink-NibData" = {
AngleInDegrees = "360";
};
}),
(181,310,l),
(208,388,o),
(295,444,o),
(395,444,cs),
(501,444,o),
(580,379,o),
(580,270,cs),
(580,190,o),
(519,102,o),
(390,25,c),
(395,-3,l),
(801,9,o),
(1068,146,o),
(1068,288,cs),
(1068,338,o),
(1020,370,o),
(960,372,cs),
(911,374,o),
(847,358,o),
(796,343,c),
(804,306,l,{
"Letterink-NibData" = {
AngleInDegrees = "360";
};
}),
(839,314,o),
(870,318,o),
(890,317,cs),
(935,316,o),
(956,295,o),
(956,263,cs),
(956,180,o),
(793,73,o),
(490,45,c)
);
}
);
width = 1128;
},
{
associatedMasterId = "0C4B00F6-5348-41D6-8EE7-AA18FE59D1B1";
background = {
shapes = (
{
closed = 1;
nodes = (
(513,29,l),
(636,97,o),
(698,188,o),
(698,280,cs),
(698,395,o),
(600,509,o),
(423,509,cs),
(238,509,o),
(60,385,o),
(60,258,cs),
(60,190,o),
(109,147,o),
(177,147,cs),
(255,148,o),
(319,205,o),
(319,264,cs),
(318,324,o),
(249,371,o),
(154,341,c,{
"Letterink-NibData" = {
AngleInDegrees = "360";
};
}),
(181,310,l),
(208,388,o),
(295,444,o),
(392,444,cs),
(501,444,o),
(580,372,o),
(580,268,cs),
(580,177,o),
(519,96,o),
(390,25,c),
(395,-3,l),
(761,8,o),
(1068,148,o),
(1068,282,cs),
(1068,339,o),
(1020,370,o),
(959,372,cs),
(911,374,o),
(847,358,o),
(796,343,c),
(804,306,l,{
"Letterink-NibData" = {
AngleInDegrees = "360";
};
}),
(839,314,o),
(870,318,o),
(891,317,cs),
(935,316,o),
(956,296,o),
(956,266,cs),
(956,182,o),
(753,73,o),
(490,52,c)
);
}
);
};
backgroundImage = {
imagePath = "/Users/fernandodemoraescaro/Library/CloudStorage/GoogleDrive-fernando.de-moraes-caro@mail.ensa-nancy.fr/Other computers/My MacBook Air/ANRT/Other/Work/Noto/2_Research/1_Character samples/Simple characters/Document 32/Samples/m_D32_205.jpg";
locked = 1;
pos = (-179,-185);
scale = (70,70);
};
layerId = "93AEB810-DC55-41A1-9B78-6EDB53BC43C1";
name = "May 14, 24 at 14:52";
shapes = (
{
closed = 1;
nodes = (
(513,29,l),
(636,97,o),
(698,188,o),
(698,280,cs),
(698,395,o),
(600,509,o),
(423,509,cs),
(238,509,o),
(60,385,o),
(60,258,cs),
(60,190,o),
(109,147,o),
(177,147,cs),
(255,148,o),
(319,205,o),
(319,264,cs),
(318,324,o),
(249,371,o),
(154,341,c,{
"Letterink-NibData" = {
AngleInDegrees = "360";
};
}),
(181,310,l),
(208,388,o),
(295,444,o),
(392,444,cs),
(501,444,o),
(580,372,o),
(580,268,cs),
(580,177,o),
(519,96,o),
(390,25,c),
(395,-3,l),
(761,8,o),
(1068,148,o),
(1068,282,cs),
(1068,339,o),
(1020,370,o),
(959,372,cs),
(911,374,o),
(847,358,o),
(796,343,c),
(804,306,l,{
"Letterink-NibData" = {
AngleInDegrees = "360";
};
}),
(839,314,o),
(870,318,o),
(891,317,cs),
(935,316,o),
(956,296,o),
(956,266,cs),
(956,182,o),
(753,73,o),
(490,52,c)
);
}
);
width = 1128;
},
{
associatedMasterId = "0C4B00F6-5348-41D6-8EE7-AA18FE59D1B1";
background = {
shapes = (
{
closed = 1;
nodes = (
(473,29,l),
(612,84,o),
(698,185,o),
(698,290,cs),
(698,400,o),
(600,509,o),
(423,509,cs),
(238,509,o),
(60,385,o),
(60,258,cs),
(60,190,o),
(109,147,o),
(177,147,cs),
(255,148,o),
(319,205,o),
(319,264,cs),
(318,324,o),
(249,371,o),
(154,341,c,{
"Letterink-NibData" = {
AngleInDegrees = "360";
};
}),
(181,310,l),
(208,388,o),
(295,444,o),
(392,444,cs),
(501,444,o),
(580,372,o),
(580,268,cs),
(580,177,o),
(489,79,o),
(350,25,c),
(355,-3,l),
(534,7,o),
(693,37,o),
(815,80,cs),
(972,134,o),
(1068,219,o),
(1068,297,cs),
(1068,347,o),
(1030,370,o),
(974,372,cs),
(922,374,o),
(852,358,o),
(796,343,c),
(804,306,l,{
"Letterink-NibData" = {
AngleInDegrees = "360";
};
}),
(843,314,o),
(878,318,o),
(901,317,cs),
(938,316,o),
(956,296,o),
(956,270,cs),
(956,229,o),
(903,169,o),
(796,128,cs),
(714,96,o),
(598,69,o),
(450,52,c)
);
}
);
};
backgroundImage = {
imagePath = "/Users/fernandodemoraescaro/Library/CloudStorage/GoogleDrive-fernando.de-moraes-caro@mail.ensa-nancy.fr/Other computers/My MacBook Air/ANRT/Other/Work/Noto/2_Research/1_Character samples/Simple characters/Document 32/Samples/m_D32_205.jpg";
locked = 1;
pos = (-179,-185);
scale = (70,70);
};
layerId = "D14D3BE1-E490-4DF9-BA2C-BB2B55380A7A";
name = "May 14, 24 at 15:01";
shapes = (
{
closed = 1;
nodes = (
(473,29,l),
(612,84,o),
(698,185,o),
(698,290,cs),
(698,400,o),
(600,509,o),
(423,509,cs),
(238,509,o),
(60,385,o),
(60,258,cs),
(60,190,o),
(109,147,o),
(177,147,cs),
(255,148,o),
(319,205,o),
(319,264,cs),
(318,324,o),
(249,371,o),
(154,341,c,{
"Letterink-NibData" = {
AngleInDegrees = "360";
};
}),
(181,310,l),
(208,388,o),
(295,444,o),
(392,444,cs),
(501,444,o),
(580,372,o),
(580,268,cs),
(580,177,o),
(489,79,o),
(350,25,c),
(355,-3,l),
(534,7,o),
(693,37,o),
(815,80,cs),
(972,134,o),
(1068,219,o),
(1068,297,cs),
(1068,347,o),
(1030,370,o),
(974,372,cs),
(922,374,o),
(852,358,o),
(796,343,c),
(804,306,l,{
"Letterink-NibData" = {
AngleInDegrees = "360";
};
}),
(843,314,o),
(878,318,o),
(901,317,cs),
(938,316,o),
(956,296,o),
(956,270,cs),
(956,229,o),
(903,169,o),
(796,128,cs),
(714,96,o),
(598,69,o),
(450,52,c)
);
}
);
width = 1128;
},
{
associatedMasterId = "0C4B00F6-5348-41D6-8EE7-AA18FE59D1B1";
background = {
shapes = (
{
closed = 1;
nodes = (
(473,36,l),
(622,90,o),
(698,190,o),
(698,289,cs),
(698,402,o),
(600,509,o),
(425,509,cs),
(238,509,o),
(60,385,o),
(60,257,cs),
(60,190,o),
(109,147,o),
(177,147,cs),
(255,148,o),
(319,205,o),
(319,264,cs),
(318,324,o),
(249,371,o),
(154,341,c,{
"Letterink-NibData" = {
AngleInDegrees = "360";
};
}),
(181,310,l),
(208,388,o),
(295,444,o),
(392,444,cs),
(501,444,o),
(580,368,o),
(580,274,cs),
(580,174,o),
(489,81,o),
(349,28,c),
(358,-8,l),
(784,17,o),
(1032,165,o),
(1030,297,cs),
(1029,346,o),
(995,369,o),
(940,371,cs),
(886,373,o),
(820,355,o),
(768,339,c),
(776,303,l,{
"Letterink-NibData" = {
AngleInDegrees = "360";
};
}),
(811,311,o),
(842,316,o),
(863,315,cs),
(902,314,o),
(920,293,o),
(919,267,cs),
(916,195,o),
(770,86,o),
(483,48,c)
);
}
);
};
backgroundImage = {
imagePath = "/Users/fernandodemoraescaro/Library/CloudStorage/GoogleDrive-fernando.de-moraes-caro@mail.ensa-nancy.fr/Other computers/My MacBook Air/ANRT/Other/Work/Noto/2_Research/1_Character samples/Simple characters/Document 32/Samples/m_D32_205.jpg";
locked = 1;
pos = (-179,-185);
scale = (70,70);
};
layerId = "29A4279E-8453-4353-894A-F5E8B04AE0FC";
name = "May 15, 24 at 14:36";
shapes = (
{
closed = 1;
nodes = (
(473,36,l),
(622,90,o),
(698,190,o),
(698,289,cs),
(698,402,o),
(600,509,o),
(425,509,cs),
(238,509,o),
(60,385,o),
(60,257,cs),
(60,190,o),
(109,147,o),
(177,147,cs),
(255,148,o),
(319,205,o),
(319,264,cs),
(318,324,o),
(249,371,o),
(154,341,c,{
"Letterink-NibData" = {
AngleInDegrees = "360";
};
}),
(181,310,l),
(208,388,o),
(295,444,o),
(392,444,cs),
(501,444,o),
(580,368,o),
(580,274,cs),
(580,174,o),
(489,81,o),
(349,28,c),
(358,-8,l),
(784,17,o),
(1032,165,o),
(1030,297,cs),
(1029,346,o),
(995,369,o),
(940,371,cs),
(886,373,o),
(820,355,o),
(768,339,c),
(776,303,l,{
"Letterink-NibData" = {
AngleInDegrees = "360";
};
}),
(811,311,o),
(842,316,o),
(863,315,cs),
(902,314,o),
(920,293,o),
(919,267,cs),
(916,195,o),
(770,86,o),
(483,48,c)
);
}
);
width = 1128;
}
);
}
{
export = 0;
glyphname = "_part.i-divesakuru";
layers = (
{
background = {
shapes = (
{
closed = 1;
nodes = (
(36,-396,o),
(329,-314,cs),
(610,-236,o),
(792,-105,o),
(791,12,cs),
(790,105,o),
(685,146,o),
(575,140,c),
(530,99,l),
(632,93,o),
(673,52,o),
(673,-2,cs),
(673,-90,o),
(553,-186,o),
(339,-251,cs),
(116,-319,o),
(-102,-322,o),
(-102,-243,cs),
(-102,-202,o),
(-41,-160,o),
(57,-126,c),
(41,-93,l,{
"Letterink-NibData" = {
AngleInDegrees = "360";
};
}),
(-120,-140,o),
(-220,-204,o),
(-220,-272,cs),
(-220,-383,o)
);
},
{
closed = 1;
nodes = (
(91,228,o),
(140,185,o),
(208,185,cs),
(287,185,o),
(349,242,o),
(349,302,cs),
(349,346,o),
(315,394,o),
(252,394,cs),
(234,394,o),
(212,390,o),
(188,379,c,{
"Letterink-NibData" = {
AngleInDegrees = "360";
};
}),
(214,345,l),
(246,404,o),
(338,447,o),
(416,447,cs),
(513,447,o),
(587,379,o),
(587,293,cs),
(587,200,o),
(503,111,o),
(339,71,c),
(353,27,l),
(563,72,o),
(705,190,o),
(705,316,cs),
(705,421,o),
(604,508,o),
(443,508,cs),
(258,508,o),
(91,393,o,{
"Letterink-NibData" = {
AngleInDegrees = "360";
};
}),
(91,286,cs)
);
}
);
};
layerId = "0C4B00F6-5348-41D6-8EE7-AA18FE59D1B1";
width = 844;
},
{
associatedMasterId = "0C4B00F6-5348-41D6-8EE7-AA18FE59D1B1";
background = {
shapes = (
{
closed = 1;
nodes = (
(-1419,-710,o),
(-867,-605,o),
(-513,-527,cs),
(429,-320,o),
(780,-164,o),
(780,10,cs),
(780,107,o),
(678,146,o),
(566,140,c),
(520,100,l),
(605,96,o),
(662,62,o),
(662,2,cs),
(662,-156,o),
(337,-278,o),
(-539,-472,cs),
(-832,-536,o),
(-1390,-650,o),
(-1650,-650,cs),
(-1776,-650,o),
(-1829,-622,o),
(-1829,-579,cs),
(-1829,-524,o),
(-1769,-481,o),
(-1563,-409,c),
(-1577,-371,l),
(-1812,-441,o),
(-1946,-509,o),
(-1946,-592,cs),
(-1946,-657,o),
(-1869,-710,o),
(-1687,-710,cs)
);
},
{
closed = 1;
nodes = (
(110,238,o),
(159,195,o),
(227,195,cs),
(306,195,o),
(368,252,o),
(368,312,cs),
(368,356,o),
(334,404,o),
(271,404,cs),
(253,404,o),
(231,400,o),
(207,389,c,{
"Letterink-NibData" = {
AngleInDegrees = "360";
};
}),
(233,355,l),
(262,408,o),
(339,447,o),
(411,447,cs),
(507,447,o),
(586,379,o),
(586,293,cs),
(586,200,o),
(504,111,o),
(343,71,c),
(357,27,l),
(564,72,o),
(704,190,o),
(704,316,cs),
(704,421,o),
(599,508,o),
(441,508,cs),
(263,508,o),
(110,398,o,{
"Letterink-NibData" = {
AngleInDegrees = "360";
};
}),
(110,296,cs)
);
}
);
};
layerId = "957DB59B-F448-4752-8C35-7418989EA914";
name = wide;
partSelection = {
width = 2;
};
shapes = (
{
closed = 1;
nodes = (
(-1419,-710,o),
(-867,-605,o),
(-513,-527,cs),
(429,-320,o),
(780,-144,o),
(780,10,cs),
(780,107,o),
(678,146,o),
(566,140,c),
(520,100,l),
(605,96,o),
(662,62,o),
(662,2,cs),
(662,-136,o),
(337,-278,o),
(-539,-472,cs),
(-832,-536,o),
(-1390,-650,o),
(-1650,-650,cs),
(-1776,-650,o),
(-1829,-624,o),
(-1829,-583,cs),
(-1829,-530,o),
(-1769,-496,o),
(-1563,-439,c),
(-1573,-401,l),
(-1820,-455,o),
(-1946,-510,o),
(-1946,-593,cs),
(-1946,-656,o),
(-1869,-710,o),
(-1687,-710,cs)
);
},
{
closed = 1;
nodes = (
(110,238,o),
(159,195,o),
(227,195,cs),
(306,195,o),
(368,252,o),
(368,312,cs),
(368,356,o),
(334,404,o),
(271,404,cs),
(253,404,o),
(231,400,o),
(207,389,c,{
"Letterink-NibData" = {
AngleInDegrees = "360";
};
}),
(233,355,l),
(262,408,o),
(339,447,o),
(411,447,cs),
(507,447,o),
(586,379,o),
(586,293,cs),
(586,200,o),
(504,111,o),
(343,71,c),
(357,27,l),
(564,72,o),
(704,190,o),
(704,316,cs),
(704,421,o),
(599,508,o),
(441,508,cs),
(263,508,o),
(110,398,o,{
"Letterink-NibData" = {
AngleInDegrees = "360";
};
}),
(110,296,cs)
);
}
);
width = 844;
},
{
associatedMasterId = "0C4B00F6-5348-41D6-8EE7-AA18FE59D1B1";
background = {
shapes = (
{
closed = 1;
nodes = (
(181,-315,o),
(293,-298,o),
(404,-267,cs),
(590,-213,o),
(773,-108,o),
(779,6,cs),
(784,99,o),
(681,148,o),
(571,139,c),
(524,101,l),
(628,101,o),
(667,51,o),
(663,-6,cs),
(657,-92,o),
(535,-169,o),
(390,-211,cs),
(320,-231,o),
(223,-253,o),
(146,-253,cs),
(71,-253,o),
(15,-232,o),
(18,-182,cs),
(20,-143,o),
(82,-110,o),
(172,-87,c),
(162,-47,l),
(-7,-84,o),
(-98,-138,o),
(-101,-209,cs),
(-104,-276,o),
(-13,-315,o),
(105,-316,cs)
);
},
{
closed = 1;
nodes = (
(110,238,o),
(159,195,o),
(227,195,cs),
(306,195,o),
(368,252,o),
(368,312,cs),
(368,356,o),
(334,404,o),
(271,404,cs),
(253,404,o),
(231,400,o),
(207,389,c,{
"Letterink-NibData" = {
AngleInDegrees = "360";
};
}),
(233,355,l),
(262,408,o),
(339,447,o),
(411,447,cs),
(507,447,o),
(586,379,o),
(586,293,cs),
(586,200,o),
(504,111,o),
(343,71,c),
(357,27,l),
(564,72,o),
(704,190,o),
(704,316,cs),
(704,421,o),
(599,508,o),
(441,508,cs),
(263,508,o),
(110,398,o,{
"Letterink-NibData" = {
AngleInDegrees = "360";
};
}),
(110,296,cs)
);
}
);
};
layerId = "CF8B1869-682F-4816-AA8D-E0366F5E1460";
name = narrow;
partSelection = {
width = 1;
};
shapes = (
{
closed = 1;
nodes = (
(181,-315,o),
(293,-298,o),
(404,-267,cs),
(594,-212,o),
(779,-103,o),
(779,13,cs),
(779,112,o),
(655,148,o),
(571,139,c),
(524,101,l),
(623,101,o),
(663,55,o),
(663,2,cs),
(663,-87,o),
(540,-168,o),
(390,-211,cs),
(320,-231,o),
(223,-253,o),
(146,-253,cs),
(71,-253,o),
(15,-232,o),
(18,-182,cs),
(20,-143,o),
(82,-110,o),
(172,-87,c),
(162,-47,l),
(-9,-84,o),
(-101,-139,o),
(-101,-212,cs),
(-101,-277,o),
(-11,-315,o),
(105,-316,cs)
);
},
{
closed = 1;
nodes = (
(110,238,o),
(159,195,o),
(227,195,cs),
(306,195,o),
(368,252,o),
(368,312,cs),
(368,356,o),
(334,404,o),
(271,404,cs),
(253,404,o),
(231,400,o),
(207,389,c,{
"Letterink-NibData" = {
AngleInDegrees = "360";
};
}),
(233,355,l),
(262,408,o),
(339,447,o),
(411,447,cs),
(507,447,o),
(586,379,o),
(586,293,cs),
(586,200,o),
(504,111,o),
(343,71,c),
(357,27,l),
(564,72,o),
(704,190,o),
(704,316,cs),
(704,421,o),
(599,508,o),
(441,508,cs),
(263,508,o),
(110,398,o,{
"Letterink-NibData" = {
AngleInDegrees = "360";
};
}),
(110,296,cs)
);
}
);
width = 843;
},
{
associatedMasterId = "0C4B00F6-5348-41D6-8EE7-AA18FE59D1B1";
layerId = "11FEFFB7-079F-4D7C-9A77-24F4162CF7E1";
name = "wide May 23, 24 at 15:58";
partSelection = {
};
shapes = (
{
closed = 1;
nodes = (
(-1419,-720,o),
(-867,-615,o),
(-513,-537,cs),
(435,-328,o),
(788,-172,o),
(788,8,cs),
(788,116,o),
(671,164,o),
(581,150,c),
(537,104,l),
(621,106,o),
(672,63,o),
(672,-4,cs),
(672,-161,o),
(345,-291,o),
(-539,-487,cs),
(-832,-551,o),
(-1390,-660,o),
(-1650,-660,cs),
(-1776,-660,o),
(-1829,-632,o),
(-1829,-589,cs),
(-1829,-534,o),
(-1741,-481,o),
(-1563,-419,c),
(-1577,-381,l),
(-1812,-451,o),
(-1946,-519,o),
(-1946,-602,cs),
(-1946,-667,o),
(-1869,-720,o),
(-1687,-720,cs)
);
},
{
closed = 1;
nodes = (
(91,229,o),
(140,186,o),
(209,186,cs),
(287,186,o),
(349,243,o),
(349,302,cs),
(349,347,o),
(315,395,o),
(252,395,cs),
(234,395,o),
(212,391,o),
(188,380,c,{
"Letterink-NibData" = {
AngleInDegrees = "360";
};
}),
(214,346,l),
(250,420,o),
(347,448,o),
(407,448,cs),
(513,448,o),
(587,382,o),
(587,295,cs),
(587,222,o),
(537,133,o),
(339,78,c),
(353,34,l),
(632,104,o),
(705,223,o),
(705,314,cs),
(705,421,o),
(604,509,o),
(430,509,cs),
(246,509,o),
(91,399,o,{
"Letterink-NibData" = {
AngleInDegrees = "360";
};
}),
(91,289,cs)
);
}
);
width = 844;
},
{
associatedMasterId = "0C4B00F6-5348-41D6-8EE7-AA18FE59D1B1";
background = {
shapes = (
{
closed = 1;
nodes = (
(-1419,-710,o),
(-867,-605,o),
(-513,-527,cs),
(436,-318,o),
(789,-164,o),
(789,10,cs),
(789,110,o),
(688,146,o),
(576,140,c),
(531,98,l),
(629,97,o),
(674,62,o),
(674,2,cs),
(674,-153,o),
(346,-281,o),
(-539,-477,cs),
(-832,-541,o),
(-1390,-650,o),
(-1650,-650,cs),
(-1776,-650,o),
(-1829,-622,o),
(-1829,-579,cs),
(-1829,-524,o),
(-1769,-481,o),
(-1563,-409,c),
(-1577,-371,l),
(-1812,-441,o),
(-1946,-509,o),
(-1946,-592,cs),
(-1946,-657,o),
(-1869,-710,o),
(-1687,-710,cs)
);
},
{
closed = 1;
nodes = (
(91,229,o),
(140,186,o),
(208,186,cs),
(287,186,o),
(349,243,o),
(349,303,cs),
(349,347,o),
(315,395,o),
(252,395,cs),
(234,395,o),
(212,391,o),
(188,380,c,{
"Letterink-NibData" = {
AngleInDegrees = "360";
};
}),
(214,346,l),
(246,405,o),
(338,448,o),
(417,448,cs),
(513,448,o),
(587,380,o),
(587,289,cs),
(587,201,o),
(503,112,o),
(339,72,c),
(353,28,l),
(563,73,o),
(705,191,o),
(705,310,cs),
(705,422,o),
(604,509,o),
(442,509,cs),
(258,509,o),
(91,394,o,{
"Letterink-NibData" = {
AngleInDegrees = "360";
};
}),
(91,289,cs)
);
}
);
};
guides = (
{
angle = 102.5067;
pos = (734,198);
}
);
layerId = "5F1F7E21-2B6B-4A38-872D-4D3EBD46527A";
name = "narrow May 23, 24 at 16:05";
partSelection = {
};
shapes = (
{
closed = 1;
nodes = (
(-395,-472,o),
(-236,-451,o),
(-45,-410,cs),
(471,-300,o),
(789,-146,o),
(789,13,cs),
(789,112,o),
(685,147,o),
(576,140,c),
(531,99,l),
(632,95,o),
(671,62,o),
(671,3,cs),
(671,-136,o),
(407,-259,o),
(-44,-355,cs),
(-212,-391,o),
(-354,-410,o),
(-452,-410,cs),
(-546,-410,o),
(-601,-392,o),
(-601,-353,cs),
(-600,-322,o),
(-565,-279,o),
(-442,-236,c),
(-458,-203,l,{
"Letterink-NibData" = {
AngleInDegrees = "360";
};
}),
(-651,-261,o),
(-718,-327,o),
(-719,-382,cs),
(-720,-443,o),
(-645,-472,o),
(-510,-472,cs)
);
},
{
closed = 1;
nodes = (
(91,229,o),
(140,186,o),
(208,186,cs),
(287,186,o),
(349,243,o),
(349,303,cs),
(349,347,o),
(315,395,o),
(252,395,cs),
(234,395,o),
(212,391,o),
(188,380,c,{
"Letterink-NibData" = {
AngleInDegrees = "360";
};
}),
(214,346,l),
(246,405,o),
(338,448,o),
(416,448,cs),
(513,448,o),
(587,380,o),
(587,293,cs),
(587,201,o),
(503,112,o),
(339,72,c),
(353,28,l),
(563,73,o),
(705,191,o),
(705,316,cs),
(705,422,o),
(604,509,o),
(443,509,cs),
(258,509,o),
(91,394,o,{
"Letterink-NibData" = {
AngleInDegrees = "360";
};
}),
(91,287,cs)
);
}
);
width = 844;
},
{
associatedMasterId = "0C4B00F6-5348-41D6-8EE7-AA18FE59D1B1";
background = {
shapes = (
{
closed = 1;
nodes = (
(-139,-338,o),
(12,-338,cs),
(69,-338,o),
(133,-333,o),
(202,-322,cs),
(383,-292,o),
(772,-180,o),
(781,1,cs),
(784,95,o),
(681,140,o),
(571,140,c),
(524,102,l),
(626,91,o),
(664,48,o),
(662,-7,cs),
(653,-161,o),
(322,-243,o),
(203,-262,cs),
(146,-271,o),
(93,-276,o),
(47,-276,cs),
(-53,-276,o),
(-118,-253,o),
(-115,-207,cs),
(-113,-168,o),
(-52,-131,o),
(46,-104,c),
(36,-64,l,{
"Letterink-NibData" = {
AngleInDegrees = "360";
};
}),
(-128,-103,o),
(-231,-162,o),
(-234,-229,cs),
(-238,-300,o)
);
},
{
closed = 1;
nodes = (
(110,228,o),
(159,185,o),
(227,185,cs),
(306,185,o),
(368,242,o),
(368,302,cs),
(368,346,o),
(334,394,o),
(271,394,cs),
(253,394,o),
(231,390,o),
(207,379,c,{
"Letterink-NibData" = {
AngleInDegrees = "360";
};
}),
(233,345,l),
(265,404,o),
(351,447,o),
(424,447,cs),
(516,447,o),
(586,379,o),
(586,293,cs),
(586,200,o),
(504,111,o),
(343,71,c),
(357,27,l),
(564,72,o),
(704,190,o),
(704,316,cs),
(704,421,o),
(607,508,o),
(452,508,cs),
(273,508,o),
(110,393,o,{
"Letterink-NibData" = {
AngleInDegrees = "360";
};
}),
(110,286,cs)
);
}
);
};
guides = (
{
angle = -74.4415;
pos = (744,198);
}
);
layerId = "9E77D8F9-58DE-4357-9355-2542895D5D30";
name = "narrow Jun 4, 24 at 00:58";
partSelection = {
};
shapes = (
{
closed = 1;
nodes = (
(-139,-338,o),
(12,-338,cs),
(69,-338,o),
(133,-333,o),
(202,-322,cs),
(383,-292,o),
(772,-180,o),
(781,1,cs),
(784,95,o),
(681,140,o),
(571,140,c),
(524,102,l),
(626,91,o),
(664,48,o),
(662,-7,cs),
(653,-161,o),
(322,-243,o),
(203,-262,cs),
(146,-271,o),
(93,-276,o),
(47,-276,cs),
(-53,-276,o),
(-118,-253,o),
(-115,-207,cs),
(-113,-168,o),
(-52,-131,o),
(46,-104,c),
(36,-64,l,{
"Letterink-NibData" = {
AngleInDegrees = "360";
};
}),
(-128,-103,o),
(-231,-162,o),
(-234,-229,cs),
(-238,-300,o)
);
},
{
closed = 1;
nodes = (
(110,228,o),
(159,185,o),
(227,185,cs),
(306,185,o),
(368,242,o),
(368,302,cs),
(368,346,o),
(334,394,o),
(271,394,cs),
(253,394,o),
(231,390,o),
(207,379,c,{
"Letterink-NibData" = {
AngleInDegrees = "360";
};
}),
(233,345,l),
(265,404,o),
(351,447,o),
(424,447,cs),
(516,447,o),
(586,379,o),
(586,293,cs),
(586,200,o),
(504,111,o),
(343,71,c),
(357,27,l),
(564,72,o),
(704,190,o),
(704,316,cs),
(704,421,o),
(607,508,o),
(452,508,cs),
(273,508,o),
(110,393,o,{
"Letterink-NibData" = {
AngleInDegrees = "360";
};
}),
(110,286,cs)
);
}
);
width = 844;
},
{
associatedMasterId = "0C4B00F6-5348-41D6-8EE7-AA18FE59D1B1";
background = {
shapes = (
{
closed = 1;
nodes = (
(52,-338,o),
(119,-334,o),
(192,-322,cs),
(376,-291,o),
(772,-180,o),
(781,1,cs),
(784,95,o),
(681,140,o),
(571,140,c),
(524,102,l),
(626,91,o),
(664,48,o),
(662,-7,cs),
(653,-161,o),
(315,-243,o),
(193,-262,cs),
(132,-272,o),
(76,-276,o),
(36,-276,cs),
(-61,-276,o),
(-118,-253,o),
(-115,-207,cs),
(-113,-168,o),
(-52,-131,o),
(46,-104,c),
(36,-64,l,{
"Letterink-NibData" = {
AngleInDegrees = "360";
};
}),
(-128,-103,o),
(-231,-162,o),
(-234,-229,cs),
(-238,-300,o),
(-147,-338,o),
(3,-338,cs)
);
},
{
closed = 1;
nodes = (
(110,238,o),
(159,195,o),
(227,195,cs),
(306,195,o),
(368,252,o),
(368,312,cs),
(368,356,o),
(334,404,o),
(271,404,cs),
(253,404,o),
(231,400,o),
(207,389,c,{
"Letterink-NibData" = {
AngleInDegrees = "360";
};
}),
(233,355,l),
(262,408,o),
(339,447,o),
(411,447,cs),
(507,447,o),
(586,379,o),
(586,293,cs),
(586,200,o),
(504,111,o),
(343,71,c),
(357,27,l),
(564,72,o),
(704,190,o),
(704,316,cs),
(704,421,o),
(599,508,o),
(441,508,cs),
(263,508,o),
(110,398,o,{
"Letterink-NibData" = {
AngleInDegrees = "360";
};
}),
(110,296,cs)
);
}
);
};
guides = (
{
angle = -74.4415;
pos = (744,198);
}
);
layerId = "7CA666C4-8156-490D-BC99-9F77EB4B0920";
name = "narrow Aug 29, 24 at 15:13";
partSelection = {
width = 1;
};
shapes = (
{
closed = 1;
nodes = (
(52,-338,o),
(119,-334,o),
(192,-322,cs),
(376,-291,o),
(772,-180,o),
(781,1,cs),
(784,95,o),
(681,140,o),
(571,140,c),
(524,102,l),
(626,91,o),
(664,48,o),
(662,-7,cs),
(653,-161,o),
(315,-243,o),
(193,-262,cs),
(132,-272,o),
(76,-276,o),
(36,-276,cs),
(-61,-276,o),
(-118,-253,o),
(-115,-207,cs),
(-113,-168,o),
(-52,-131,o),
(46,-104,c),
(36,-64,l,{
"Letterink-NibData" = {
AngleInDegrees = "360";
};
}),
(-128,-103,o),
(-231,-162,o),
(-234,-229,cs),
(-238,-300,o),
(-147,-338,o),
(3,-338,cs)
);
},
{
closed = 1;
nodes = (
(110,238,o),
(159,195,o),
(227,195,cs),
(306,195,o),
(368,252,o),
(368,312,cs),
(368,356,o),
(334,404,o),
(271,404,cs),
(253,404,o),
(231,400,o),
(207,389,c,{
"Letterink-NibData" = {
AngleInDegrees = "360";
};
}),
(233,355,l),
(262,408,o),
(339,447,o),
(411,447,cs),
(507,447,o),
(586,379,o),
(586,293,cs),
(586,200,o),
(504,111,o),
(343,71,c),
(357,27,l),
(564,72,o),
(704,190,o),
(704,316,cs),
(704,421,o),
(599,508,o),
(441,508,cs),
(263,508,o),
(110,398,o,{
"Letterink-NibData" = {
AngleInDegrees = "360";
};
}),
(110,296,cs)
);
}
);
width = 844;
},
{
associatedMasterId = "0C4B00F6-5348-41D6-8EE7-AA18FE59D1B1";
background = {
shapes = (
{
closed = 1;
nodes = (
(-1419,-710,o),
(-867,-605,o),
(-513,-527,cs),
(429,-320,o),
(780,-164,o),
(780,10,cs),
(780,107,o),
(678,146,o),
(566,140,c),
(520,100,l),
(605,96,o),
(662,62,o),
(662,2,cs),
(662,-156,o),
(337,-278,o),
(-539,-472,cs),
(-832,-536,o),
(-1390,-650,o),
(-1650,-650,cs),
(-1776,-650,o),
(-1829,-622,o),
(-1829,-579,cs),
(-1829,-524,o),
(-1769,-481,o),
(-1563,-409,c),
(-1577,-371,l),
(-1812,-441,o),
(-1946,-509,o),
(-1946,-592,cs),
(-1946,-657,o),
(-1869,-710,o),
(-1687,-710,cs)
);
},
{
closed = 1;
nodes = (
(110,238,o),
(159,195,o),
(227,195,cs),
(306,195,o),
(368,252,o),
(368,312,cs),
(368,356,o),
(334,404,o),
(271,404,cs),
(253,404,o),
(231,400,o),
(207,389,c,{
"Letterink-NibData" = {
AngleInDegrees = "360";
};
}),
(233,355,l),
(262,408,o),
(339,447,o),
(411,447,cs),
(507,447,o),
(586,379,o),
(586,293,cs),
(586,200,o),
(504,111,o),
(343,71,c),
(357,27,l),
(564,72,o),
(704,190,o),
(704,316,cs),
(704,421,o),
(599,508,o),
(441,508,cs),
(263,508,o),
(110,398,o,{
"Letterink-NibData" = {
AngleInDegrees = "360";
};
}),
(110,296,cs)
);
}
);
};
layerId = "A3E78C78-CE56-486E-BCC3-502F6551BA2B";
name = "wide Aug 29, 24 at 15:28";
partSelection = {
width = 2;
};
shapes = (
{
closed = 1;
nodes = (
(-1419,-710,o),
(-867,-605,o),
(-513,-527,cs),
(429,-320,o),
(780,-164,o),
(780,10,cs),
(780,107,o),
(678,146,o),
(566,140,c),
(520,100,l),
(605,96,o),
(662,62,o),
(662,2,cs),
(662,-156,o),
(337,-278,o),
(-539,-472,cs),
(-832,-536,o),
(-1390,-650,o),
(-1650,-650,cs),
(-1776,-650,o),
(-1829,-622,o),
(-1829,-579,cs),
(-1829,-524,o),
(-1769,-481,o),
(-1563,-409,c),
(-1577,-371,l),
(-1812,-441,o),
(-1946,-509,o),
(-1946,-592,cs),
(-1946,-657,o),
(-1869,-710,o),
(-1687,-710,cs)
);
},
{
closed = 1;
nodes = (
(110,238,o),
(159,195,o),
(227,195,cs),
(306,195,o),
(368,252,o),
(368,312,cs),
(368,356,o),
(334,404,o),
(271,404,cs),
(253,404,o),
(231,400,o),
(207,389,c,{
"Letterink-NibData" = {
AngleInDegrees = "360";
};
}),
(233,355,l),
(262,408,o),
(339,447,o),
(411,447,cs),
(507,447,o),
(586,379,o),
(586,293,cs),
(586,200,o),
(504,111,o),
(343,71,c),
(357,27,l),
(564,72,o),
(704,190,o),
(704,316,cs),
(704,421,o),
(599,508,o),
(441,508,cs),
(263,508,o),
(110,398,o,{
"Letterink-NibData" = {
AngleInDegrees = "360";
};
}),
(110,296,cs)
);
}
);
width = 844;
},
{
associatedMasterId = "0C4B00F6-5348-41D6-8EE7-AA18FE59D1B1";
background = {
shapes = (
{
closed = 1;
nodes = (
(237,-307,o),
(369,-283,o),
(488,-240,cs),
(642,-184,o),
(774,-97,o),
(779,7,cs),
(784,100,o),
(681,139,o),
(571,140,c),
(524,102,l),
(628,92,o),
(664,52,o),
(661,-5,cs),
(656,-81,o),
(566,-144,o),
(460,-186,cs),
(364,-225,o),
(255,-246,o),
(184,-246,cs),
(110,-245,o),
(53,-222,o),
(56,-180,cs),
(59,-138,o),
(120,-102,o),
(207,-79,c),
(197,-39,l),
(40,-75,o),
(-60,-133,o),
(-63,-202,cs),
(-67,-270,o),
(25,-306,o),
(141,-307,cs)
);
},
{
closed = 1;
nodes = (
(110,238,o),
(159,195,o),
(227,195,cs),
(306,195,o),
(368,252,o),
(368,312,cs),
(368,356,o),
(334,404,o),
(271,404,cs),
(253,404,o),
(231,400,o),
(207,389,c,{
"Letterink-NibData" = {
AngleInDegrees = "360";
};
}),
(233,355,l),
(262,408,o),
(339,447,o),
(411,447,cs),
(507,447,o),
(586,379,o),
(586,293,cs),
(586,200,o),
(504,111,o),
(343,71,c),
(357,27,l),
(564,72,o),
(704,190,o),
(704,316,cs),
(704,421,o),
(599,508,o),
(441,508,cs),
(263,508,o),
(110,398,o,{
"Letterink-NibData" = {
AngleInDegrees = "360";
};
}),
(110,296,cs)
);
}
);
};
layerId = "4887AA56-DEE8-44F2-886F-6F406126BB16";
name = "narrow Aug 29, 24 at 15:35";
partSelection = {
width = 1;
};
shapes = (
{
closed = 1;
nodes = (
(237,-307,o),
(369,-283,o),
(488,-240,cs),
(642,-184,o),
(774,-97,o),
(779,7,cs),
(784,100,o),
(681,139,o),
(571,140,c),
(524,102,l),
(628,92,o),
(664,52,o),
(661,-5,cs),
(656,-81,o),
(566,-144,o),
(460,-186,cs),
(364,-225,o),
(255,-246,o),
(184,-246,cs),
(110,-245,o),
(53,-220,o),
(56,-177,cs),
(59,-135,o),
(120,-101,o),
(207,-79,c),
(197,-39,l),
(40,-74,o),
(-60,-130,o),
(-64,-200,cs),
(-67,-268,o),
(25,-306,o),
(141,-307,cs)
);
},
{
closed = 1;
nodes = (
(110,238,o),
(159,195,o),
(227,195,cs),
(306,195,o),
(368,252,o),
(368,312,cs),
(368,356,o),
(334,404,o),
(271,404,cs),
(253,404,o),
(231,400,o),
(207,389,c,{
"Letterink-NibData" = {
AngleInDegrees = "360";
};
}),
(233,355,l),
(262,408,o),
(339,447,o),
(411,447,cs),
(507,447,o),
(586,379,o),
(586,293,cs),
(586,200,o),
(504,111,o),
(343,71,c),
(357,27,l),
(564,72,o),
(704,190,o),
(704,316,cs),
(704,421,o),
(599,508,o),
(441,508,cs),
(263,508,o),
(110,398,o,{
"Letterink-NibData" = {
AngleInDegrees = "360";
};
}),
(110,296,cs)
);
}
);
width = 843;
}
);
partsSettings = (
{
bottomValue = 0;
name = width;
topValue = 100;
}
);
}
{
export = 0;
glyphname = "_part.na_halanda-divesakuru";
layers = (
{
layerId = "0C4B00F6-5348-41D6-8EE7-AA18FE59D1B1";
width = 600;
},
{
anchors = (
{
name = bottom;
pos = (522,-43);
},
{
name = caret_1;
pos = (886,-8);
},
{
name = top;
pos = (321,351);
}
);
associatedMasterId = "0C4B00F6-5348-41D6-8EE7-AA18FE59D1B1";
background = {
shapes = (
{
closed = 1;
nodes = (
(706,423,l),
(779,492,o),
(858,550,o),
(932,594,cs),
(1035,654,o),
(1129,688,o),
(1189,688,cs),
(1240,688,o),
(1258,664,o),
(1258,640,cs),
(1258,597,o),
(1197,558,o),
(1098,530,c),
(1112,486,l),
(1277,528,o),
(1376,601,o),
(1376,668,cs),
(1376,712,o),
(1333,756,o),
(1235,756,cs),
(1140,756,o),
(1013,714,o),
(885,639,cs),
(797,589,o),
(709,524,o),
(629,447,c)
);
},
{
closed = 1;
nodes = (
(599,407,l),
(553,366,o),
(520,313,o),
(520,259,cs),
(520,187,o),
(580,136,o),
(677,136,cs),
(802,136,o),
(909,221,o),
(909,312,cs),
(909,432,o),
(729,461,o),
(579,452,cs),
(401,441,o),
(75,315,o),
(75,147,cs),
(75,65,o),
(153,17,o),
(250,17,cs),
(363,17,o),
(466,90,o),
(466,181,cs),
(466,256,o),
(395,323,o),
(281,320,c),
(202,275,l),
(289,280,o),
(358,239,o),
(358,173,cs),
(358,123,o),
(318,82,o),
(268,82,cs),
(221,82,o),
(182,119,o),
(182,169,cs),
(182,307,o),
(485,398,o),
(625,398,cs),
(741,398,o),
(802,356,o),
(802,292,cs),
(802,244,o),
(761,201,o),
(706,201,cs),
(661,201,o),
(625,230,o),
(625,281,cs),
(625,320,o),
(646,368,o),
(688,403,c)
);
}
);
};
layerId = "A9DEF539-E187-482D-B450-96E9F6FD43EB";
name = narrow;
partSelection = {
width = 1;
};
shapes = (
{
closed = 1;
nodes = (
(706,423,l),
(756,472,o),
(821,526,o),
(889,569,cs),
(971,622,o),
(1057,661,o),
(1121,661,cs),
(1172,661,o),
(1190,637,o),
(1190,613,cs),
(1190,570,o),
(1129,531,o),
(1030,503,c),
(1044,459,l),
(1209,501,o),
(1308,574,o),
(1308,641,cs),
(1308,685,o),
(1265,729,o),
(1167,729,cs),
(1065,729,o),
(946,678,o),
(839,612,cs),
(758,561,o),
(683,501,o),
(629,447,c)
);
},
{
closed = 1;
nodes = (
(599,407,l),
(553,366,o),
(520,313,o),
(520,259,cs),
(520,187,o),
(580,136,o),
(677,136,cs),
(802,136,o),
(909,221,o),
(909,312,cs),
(909,432,o),
(729,461,o),
(579,452,cs),
(401,441,o),
(75,315,o),
(75,147,cs),
(75,65,o),
(153,17,o),
(250,17,cs),
(363,17,o),
(466,90,o),
(466,181,cs),
(466,256,o),
(395,323,o),
(281,320,c),
(202,275,l),
(289,280,o),
(358,239,o),
(358,173,cs),
(358,123,o),
(318,82,o),
(268,82,cs),
(221,82,o),
(182,119,o),
(182,169,cs),
(182,307,o),
(485,398,o),
(625,398,cs),
(741,398,o),
(802,356,o),
(802,292,cs),
(802,244,o),
(761,201,o),
(706,201,cs),
(661,201,o),
(625,230,o),
(625,281,cs),
(625,320,o),
(646,368,o),
(688,403,c)
);
}
);
width = 989;
},
{
anchors = (
{
name = bottom;
pos = (522,-35);
},
{
name = caret_1;
pos = (886,0);
},
{
name = top;
pos = (321,359);
}
);
associatedMasterId = "0C4B00F6-5348-41D6-8EE7-AA18FE59D1B1";
background = {
shapes = (
{
closed = 1;
nodes = (
(749,383,l),
(913,470,o),
(1267,616,o),
(1738,756,cs),
(2339,935,o),
(2927,1045,o),
(3199,1045,cs),
(3325,1045,o),
(3337,1019,o),
(3337,1000,cs),
(3337,955,o),
(3265,917,o),
(3148,886,c),
(3158,841,l),
(3344,885,o),
(3455,947,o),
(3455,1016,cs),
(3455,1053,o),
(3422,1099,o),
(3228,1099,cs),
(2914,1099,o),
(2323,989,o),
(1709,805,cs),
(1207,655,o),
(850,503,o),
(677,407,c)
);
},
{
closed = 1;
nodes = (
(638,365,l),
(571,326,o),
(531,276,o),
(531,225,cs),
(531,155,o),
(590,105,o),
(679,105,cs),
(805,105,o),
(909,187,o),
(909,270,cs),
(909,393,o),
(720,421,o),
(609,413,cs),
(422,399,o),
(99,285,o),
(99,121,cs),
(99,42,o),
(175,-10,o),
(265,-10,cs),
(379,-10,o),
(479,61,o),
(479,149,cs),
(479,222,o),
(410,287,o),
(299,284,c),
(223,240,l),
(307,245,o),
(374,205,o),
(374,139,cs),
(374,93,o),
(335,53,o),
(287,53,cs),
(241,53,o),
(203,87,o),
(203,137,cs),
(203,267,o),
(497,355,o),
(642,355,cs),
(726,355,o),
(805,315,o),
(805,254,cs),
(805,209,o),
(765,169,o),
(713,169,cs),
(668,169,o),
(633,197,o),
(633,246,cs),
(633,285,o),
(659,333,o),
(722,368,c)
);
}
);
};
layerId = "68216F9E-03FA-4B68-8309-7D8868C68705";
name = wide;
partSelection = {
width = 2;
};
shapes = (
{
closed = 1;
nodes = (
(745,423,l),
(910,505,o),
(1267,636,o),
(1738,776,cs),
(2336,954,o),
(2927,1045,o),
(3199,1045,cs),
(3325,1045,o),
(3337,1019,o),
(3337,1000,cs),
(3337,955,o),
(3265,917,o),
(3148,886,c),
(3158,841,l),
(3344,885,o),
(3455,947,o),
(3455,1016,cs),
(3455,1053,o),
(3422,1099,o),
(3228,1099,cs),
(2914,1099,o),
(2320,1008,o),
(1709,825,cs),
(1207,675,o),
(847,538,o),
(673,447,c)
);
},
{
closed = 1;
nodes = (
(630,407,l),
(561,366,o),
(520,313,o),
(520,259,cs),
(520,187,o),
(580,136,o),
(672,136,cs),
(802,136,o),
(909,220,o),
(909,305,cs),
(909,432,o),
(714,461,o),
(600,453,cs),
(407,438,o),
(75,321,o),
(75,152,cs),
(75,71,o),
(153,17,o),
(246,17,cs),
(363,17,o),
(466,90,o),
(466,181,cs),
(466,256,o),
(395,323,o),
(281,320,c),
(202,275,l),
(289,280,o),
(358,239,o),
(358,171,cs),
(358,123,o),
(318,82,o),
(268,82,cs),
(221,82,o),
(182,119,o),
(182,173,cs),
(182,307,o),
(485,398,o),
(634,398,cs),
(721,398,o),
(802,355,o),
(802,289,cs),
(802,243,o),
(761,201,o),
(707,201,cs),
(661,201,o),
(625,230,o),
(625,281,cs),
(625,320,o),
(652,368,o),
(716,403,c)
);
}
);
width = 1044;
},
{
anchors = (
{
name = bottom;
pos = (439,-64);
},
{
name = caret_1;
pos = (803,0);
},
{
name = top;
pos = (262,323);
}
);
associatedMasterId = "0C4B00F6-5348-41D6-8EE7-AA18FE59D1B1";
layerId = "69294EDF-48EC-470A-AF35-24D2A68BC7C9";
name = "narrow Aug 30, 24 at 11:46";
partSelection = {
width = 1;
};
shapes = (
{
closed = 1;
nodes = (
(677,383,l),
(752,428,o),
(844,465,o),
(931,490,cs),
(1014,514,o),
(1093,528,o),
(1149,528,cs),
(1213,528,o),
(1235,504,o),
(1235,477,cs),
(1235,434,o),
(1163,392,o),
(1046,361,c),
(1056,316,l),
(1242,360,o),
(1353,426,o),
(1353,492,cs),
(1353,534,o),
(1314,588,o),
(1181,588,cs),
(1098,588,o),
(1002,571,o),
(906,542,cs),
(794,509,o),
(684,460,o),
(597,407,c)
);
},
{
closed = 1;
nodes = (
(555,365,l),
(488,326,o),
(448,276,o),
(448,225,cs),
(448,155,o),
(507,105,o),
(596,105,cs),
(722,105,o),
(826,187,o),
(826,270,cs),
(826,393,o),
(637,421,o),
(526,413,cs),
(339,399,o),
(16,285,o),
(16,121,cs),
(16,42,o),
(92,-10,o),
(182,-10,cs),
(296,-10,o),
(396,61,o),
(396,149,cs),
(396,222,o),
(327,287,o),
(216,284,c),
(140,240,l),
(224,245,o),
(291,205,o),
(291,139,cs),
(291,93,o),
(252,53,o),
(204,53,cs),
(158,53,o),
(120,87,o),
(120,137,cs),
(120,267,o),
(414,355,o),
(559,355,cs),
(643,355,o),
(722,315,o),
(722,254,cs),
(722,209,o),
(682,169,o),
(630,169,cs),
(585,169,o),
(550,197,o),
(550,246,cs),
(550,285,o),
(576,333,o),
(639,368,c)
);
}
);
width = 1383;
},
{
anchors = (
{
name = bottom;
pos = (498,-64);
},
{
name = caret_1;
pos = (862,0);
},
{
name = top;
pos = (321,323);
}
);
associatedMasterId = "0C4B00F6-5348-41D6-8EE7-AA18FE59D1B1";
layerId = "C62E1312-33F9-4949-9364-7795F9EABD25";
name = "narrow Aug 30, 24 at 11:53";
partSelection = {
width = 1;
};
shapes = (
{
closed = 1;
nodes = (
(736,413,l),
(811,458,o),
(903,495,o),
(990,520,cs),
(1073,544,o),
(1152,558,o),
(1208,558,cs),
(1272,558,o),
(1294,534,o),
(1294,507,cs),
(1294,464,o),
(1222,422,o),
(1105,391,c),
(1115,346,l),
(1301,390,o),
(1412,456,o),
(1412,522,cs),
(1412,564,o),
(1373,618,o),
(1240,618,cs),
(1157,618,o),
(1061,601,o),
(965,572,cs),
(853,539,o),
(743,490,o),
(656,437,c)
);
},
{
closed = 1;
nodes = (
(614,395,l),
(547,356,o),
(507,306,o),
(507,255,cs),
(507,185,o),
(566,135,o),
(655,135,cs),
(781,135,o),
(885,217,o),
(885,300,cs),
(885,423,o),
(696,451,o),
(585,443,cs),
(398,429,o),
(75,315,o),
(75,151,cs),
(75,72,o),
(151,20,o),
(241,20,cs),
(355,20,o),
(455,91,o),
(455,179,cs),
(455,252,o),
(386,317,o),
(275,314,c),
(199,270,l),
(283,275,o),
(350,235,o),
(350,169,cs),
(350,123,o),
(311,83,o),
(263,83,cs),
(217,83,o),
(179,117,o),
(179,167,cs),
(179,297,o),
(473,385,o),
(618,385,cs),
(702,385,o),
(781,345,o),
(781,284,cs),
(781,239,o),
(741,199,o),
(689,199,cs),
(644,199,o),
(609,227,o),
(609,276,cs),
(609,315,o),
(635,363,o),
(698,398,c)
);
}
);
width = 975;
},
{
anchors = (
{
name = bottom;
pos = (522,-43);
},
{
name = caret_1;
pos = (886,-8);
},
{
name = top;
pos = (321,351);
}
);
associatedMasterId = "0C4B00F6-5348-41D6-8EE7-AA18FE59D1B1";
background = {
shapes = (
{
closed = 1;
nodes = (
(706,423,l),
(779,492,o),
(858,550,o),
(932,594,cs),
(1035,654,o),
(1129,688,o),
(1189,688,cs),
(1240,688,o),
(1258,664,o),
(1258,640,cs),
(1258,597,o),
(1197,558,o),
(1098,530,c),
(1112,486,l),
(1277,528,o),
(1376,601,o),
(1376,668,cs),
(1376,712,o),
(1333,756,o),
(1235,756,cs),
(1140,756,o),
(1013,714,o),
(885,639,cs),
(797,589,o),
(709,524,o),
(629,447,c)
);
},
{
closed = 1;
nodes = (
(599,407,l),
(553,366,o),
(520,313,o),
(520,259,cs),
(520,187,o),
(580,136,o),
(677,136,cs),
(802,136,o),
(909,221,o),
(909,312,cs),
(909,432,o),
(729,461,o),
(579,452,cs),
(401,441,o),
(75,315,o),
(75,147,cs),
(75,65,o),
(153,17,o),
(250,17,cs),
(363,17,o),
(466,90,o),
(466,181,cs),
(466,256,o),
(395,323,o),
(281,320,c),
(202,275,l),
(289,280,o),
(358,239,o),
(358,173,cs),
(358,123,o),
(318,82,o),
(268,82,cs),
(221,82,o),
(182,119,o),
(182,169,cs),
(182,307,o),
(485,398,o),
(625,398,cs),
(741,398,o),
(802,356,o),
(802,292,cs),
(802,244,o),
(761,201,o),
(706,201,cs),
(661,201,o),
(625,230,o),
(625,281,cs),
(625,320,o),
(646,368,o),
(688,403,c)
);
}
);
};
layerId = "C999CC8E-B135-4D36-895C-8A10E99F987E";
name = "narrow Aug 30, 24 at 21:33";
partSelection = {
width = 1;
};
shapes = (
{
closed = 1;
nodes = (
(706,423,l),
(779,492,o),
(858,550,o),
(932,594,cs),
(1035,654,o),
(1129,688,o),
(1189,688,cs),
(1240,688,o),
(1258,664,o),
(1258,640,cs),
(1258,597,o),
(1197,558,o),
(1098,530,c),
(1112,486,l),
(1277,528,o),
(1376,601,o),
(1376,668,cs),
(1376,712,o),
(1333,756,o),
(1235,756,cs),
(1140,756,o),
(1013,714,o),
(885,639,cs),
(797,589,o),
(709,524,o),
(629,447,c)
);
},
{
closed = 1;
nodes = (
(599,407,l),
(553,366,o),
(520,313,o),
(520,259,cs),
(520,187,o),
(580,136,o),
(677,136,cs),
(802,136,o),
(909,221,o),
(909,312,cs),
(909,432,o),
(729,461,o),
(579,452,cs),
(401,441,o),
(75,315,o),
(75,147,cs),
(75,65,o),
(153,17,o),
(250,17,cs),
(363,17,o),
(466,90,o),
(466,181,cs),
(466,256,o),
(395,323,o),
(281,320,c),
(202,275,l),
(289,280,o),
(358,239,o),
(358,173,cs),
(358,123,o),
(318,82,o),
(268,82,cs),
(221,82,o),
(182,119,o),
(182,169,cs),
(182,307,o),
(485,398,o),
(625,398,cs),
(741,398,o),
(802,356,o),
(802,292,cs),
(802,244,o),
(761,201,o),
(706,201,cs),
(661,201,o),
(625,230,o),
(625,281,cs),
(625,320,o),
(646,368,o),
(688,403,c)
);
}
);
width = 989;
}
);
partsSettings = (
{
bottomValue = 0;
name = width;
topValue = 100;
}
);
}
{
export = 0;
glyphname = "_va-divesakuru.alt2";
lastChange = "2025-02-05 08:22:42 +0000";
layers = (
{
anchors = (
{
name = bottom;
pos = (649,-100);
},
{
name = top;
pos = (585,512);
}
);
background = {
shapes = (
{
closed = 1;
nodes = (
(1175,450,o),
(1143,484,o),
(1064,484,cs),
(1021,484,o),
(967,474,o),
(930,462,c),
(934,428,l),
(1017,444,o),
(1057,417,o),
(1057,373,cs),
(1057,275,o),
(875,102,o),
(538,60,c),
(585,39,l),
(741,116,o),
(835,223,o),
(835,331,cs),
(835,440,o),
(740,512,o),
(585,512,cs),
(521,512,o),
(452,499,o),
(398,480,c),
(398,468,l),
(433,439,o),
(467,389,o),
(466,325,cs),
(465,235,o),
(372,174,o),
(288,174,cs),
(223,174,o),
(191,213,o),
(191,254,cs),
(191,302,o),
(234,334,o),
(288,350,c,{
"Letterink-NibData" = {
AngleInDegrees = "360";
};
}),
(282,389,l),
(177,374,o),
(75,318,o),
(75,233,cs),
(75,166,o),
(140,109,o),
(252,109,cs),
(408,109,o),
(577,219,o),
(577,359,cs),
(577,423,o),
(542,464,o),
(501,491,c),
(495,462,l),
(625,479,o),
(717,400,o),
(717,297,cs),
(717,183,o),
(605,100,o),
(458,28,c),
(468,-8,l),
(907,42,o),
(1175,256,o),
(1175,402,cs)
);
}
);
};
backgroundImage = {
imagePath = "/Users/fernandodemoraescaro/Library/CloudStorage/GoogleDrive-fernando.de-moraes-caro@mail.ensa-nancy.fr/Other computers/My MacBook Air/ANRT/Other/Work/Noto/2_Research/1_Character samples/Simple characters/Document 32/Samples/v_D32_140.jpg";
locked = 1;
pos = (-595,-357);
scale = (70,70);
};
layerId = "0C4B00F6-5348-41D6-8EE7-AA18FE59D1B1";
shapes = (
{
closed = 1;
nodes = (
(907,42,o),
(1175,256,o),
(1175,402,cs),
(1175,450,o),
(1143,484,o),
(1064,484,cs),
(1021,484,o),
(967,474,o),
(930,462,c),
(934,428,l),
(950,431,o),
(965,433,o),
(978,433,cs),
(1031,433,o),
(1057,408,o),
(1057,373,cs),
(1057,275,o),
(875,102,o),
(538,60,c),
(585,39,l),
(741,116,o),
(835,223,o),
(835,331,cs),
(835,440,o),
(740,512,o),
(585,512,cs),
(521,512,o),
(452,499,o),
(398,480,c),
(398,468,l),
(433,439,o),
(466,389,o),
(466,325,cs),
(466,234,o),
(372,173,o),
(288,173,cs),
(223,173,o),
(191,212,o),
(191,254,cs),
(191,302,o),
(234,334,o),
(288,350,c,{
"Letterink-NibData" = {
AngleInDegrees = "360";
};
}),
(282,389,l),
(177,374,o),
(75,318,o),
(75,233,cs),
(75,166,o),
(140,109,o),
(252,109,cs),
(408,109,o),
(577,219,o),
(577,359,cs),
(577,423,o),
(542,464,o),
(501,491,c),
(495,462,l),
(507,464,o),
(519,464,o),
(530,464,cs),
(641,464,o),
(717,391,o),
(717,297,cs),
(717,183,o),
(605,100,o),
(458,28,c),
(468,-8,l)
);
}
);
width = 1243;
},
{
associatedMasterId = "0C4B00F6-5348-41D6-8EE7-AA18FE59D1B1";
backgroundImage = {
imagePath = "/Users/fernandodemoraescaro/Library/CloudStorage/GoogleDrive-fernando.de-moraes-caro@mail.ensa-nancy.fr/Other computers/My MacBook Air/ANRT/Other/Work/Noto/2_Research/1_Character samples/Simple characters/Document 32/Samples/v_D32_140.jpg";
locked = 1;
pos = (-785,-357);
scale = (70,70);
};
layerId = "1593D92A-C85D-48BE-889A-B7ECBCCF3164";
name = "May 14, 24 at 14:24";
shapes = (
{
closed = 1;
nodes = (
(368,399,l),
(300,361,o),
(269,307,o),
(269,280,cs),
(269,239,o),
(286,216,o),
(333,216,cs),
(388,216,o),
(522,309,o),
(522,375,cs),
(522,419,o),
(472,478,o),
(392,475,c),
(387,500,l),
(471,561,o),
(559,589,o),
(663,589,cs),
(830,589,o),
(990,538,o),
(990,362,cs),
(990,207,o),
(895,81,o),
(690,15,c),
(656,25,l),
(935,50,o),
(1126,122,o),
(1126,207,cs),
(1126,249,o),
(1102,292,o),
(1065,323,c),
(1065,337,l),
(1233,417,l),
(1286,377,o),
(1319,310,o),
(1319,240,cs),
(1319,119,o),
(1208,80,o),
(1146,60,cs),
(1013,17,o),
(657,-72,o),
(583,-70,cs),
(520,-68,o),
(490,-68,o),
(421,-58,c),
(421,-21,l),
(615,36,o),
(797,145,o),
(797,302,cs),
(797,475,o),
(708,529,o),
(602,515,cs),
(485,500,l),
(573,534,l),
(675,500,o),
(708,438,o),
(708,399,cs),
(708,270,o),
(421,63,o),
(217,63,cs),
(126,63,o),
(60,133,o),
(60,207,cs),
(60,330,o),
(221,402,o),
(351,431,c)
);
}
);
width = 1379;
},
{
associatedMasterId = "0C4B00F6-5348-41D6-8EE7-AA18FE59D1B1";
backgroundImage = {
imagePath = "/Users/fernandodemoraescaro/Library/CloudStorage/GoogleDrive-fernando.de-moraes-caro@mail.ensa-nancy.fr/Other computers/My MacBook Air/ANRT/Other/Work/Noto/2_Research/1_Character samples/Simple characters/Document 32/Samples/v_D32_140.jpg";
locked = 1;
pos = (0,-357);
scale = (70,70);
};
layerId = "0098D29B-0063-4136-B75C-8D4C26F4ACFF";
name = "May 14, 24 at 14:24";
width = 2535;
},
{
associatedMasterId = "0C4B00F6-5348-41D6-8EE7-AA18FE59D1B1";
background = {
shapes = (
{
closed = 1;
nodes = (
(539,-27,o),
(727,18,o),
(802,38,cs),
(1015,96,o),
(1125,184,o),
(1125,268,cs),
(1125,317,o),
(1083,345,o),
(1029,349,cs),
(983,352,o),
(923,337,o),
(875,323,c),
(882,286,l,{
"Letterink-NibData" = {
AngleInDegrees = "360";
};
}),
(913,293,o),
(940,297,o),
(961,295,cs),
(996,293,o),
(1013,279,o),
(1013,251,cs),
(1013,198,o),
(954,131,o),
(796,85,cs),
(758,74,o),
(631,35,o),
(494,12,c),
(536,0,l),
(679,68,o),
(816,152,o),
(816,316,cs),
(816,446,o),
(708,508,o),
(588,508,cs),
(495,508,o),
(412,476,o),
(333,440,c),
(338,419,l),
(415,422,o),
(464,372,o),
(464,298,cs),
(464,179,o),
(346,129,o),
(293,129,cs),
(239,129,o),
(202,169,o),
(202,222,cs),
(202,270,o),
(232,310,o),
(291,337,c),
(280,363,l),
(193,340,o),
(84,275,o),
(84,186,cs),
(84,117,o),
(148,69,o),
(236,69,cs),
(386,69,o),
(582,207,o),
(582,342,cs),
(582,399,o),
(552,440,o),
(492,462,c),
(416,439,l),
(448,447,o),
(480,452,o),
(510,452,cs),
(613,452,o),
(698,391,o),
(698,285,cs),
(698,122,o),
(542,34,o),
(362,-21,c),
(369,-58,l)
);
}
);
};
backgroundImage = {
imagePath = "/Users/fernandodemoraescaro/Library/CloudStorage/GoogleDrive-fernando.de-moraes-caro@mail.ensa-nancy.fr/Other computers/My MacBook Air/ANRT/Other/Work/Noto/2_Research/1_Character samples/Simple characters/Document 32/Samples/v_D32_140.jpg";
locked = 1;
pos = (-731,-357);
scale = (70,70);
};
layerId = "44AFFB9A-E6D3-4D4F-8166-0A63BE02AF84";
name = "May 14, 24 at 14:49";
shapes = (
{
closed = 1;
nodes = (
(539,-27,o),
(727,18,o),
(802,38,cs),
(1015,96,o),
(1125,184,o),
(1125,268,cs),
(1125,317,o),
(1083,345,o),
(1029,349,cs),
(983,352,o),
(923,337,o),
(875,323,c),
(882,286,l,{
"Letterink-NibData" = {
AngleInDegrees = "360";
};
}),
(913,293,o),
(940,297,o),
(961,295,cs),
(996,293,o),
(1013,279,o),
(1013,251,cs),
(1013,198,o),
(954,131,o),
(796,85,cs),
(758,74,o),
(631,35,o),
(494,12,c),
(536,0,l),
(679,68,o),
(816,152,o),
(816,316,cs),
(816,446,o),
(708,508,o),
(588,508,cs),
(495,508,o),
(412,476,o),
(333,440,c),
(338,419,l),
(415,422,o),
(464,372,o),
(464,298,cs),
(464,179,o),
(346,129,o),
(293,129,cs),
(239,129,o),
(202,169,o),
(202,222,cs),
(202,270,o),
(232,310,o),
(291,337,c),
(280,363,l),
(193,340,o),
(84,275,o),
(84,186,cs),
(84,117,o),
(148,69,o),
(236,69,cs),
(386,69,o),
(582,207,o),
(582,342,cs),
(582,399,o),
(552,440,o),
(492,462,c),
(416,439,l),
(448,447,o),
(480,452,o),
(510,452,cs),
(613,452,o),
(698,391,o),
(698,285,cs),
(698,122,o),
(542,34,o),
(362,-21,c),
(369,-58,l)
);
}
);
width = 1171;
},
{
associatedMasterId = "0C4B00F6-5348-41D6-8EE7-AA18FE59D1B1";
background = {
shapes = (
{
closed = 1;
nodes = (
(1023,261,o),
(818,124,o),
(535,70,c),
(562,60,l),
(766,132,o),
(832,237,o),
(832,329,cs),
(832,445,o),
(727,509,o),
(583,509,cs),
(520,509,o),
(453,496,o),
(401,478,c),
(401,466,l),
(441,438,o),
(470,386,o),
(470,334,cs),
(470,247,o),
(378,188,o),
(296,188,cs),
(230,188,o),
(198,222,o),
(198,258,cs),
(198,304,o),
(242,334,o),
(298,349,c,{
"Letterink-NibData" = {
AngleInDegrees = "360";
};
}),
(292,388,l),
(185,373,o),
(82,319,o),
(82,237,cs),
(82,175,o),
(147,123,o),
(259,123,cs),
(415,123,o),
(584,230,o),
(584,364,cs),
(584,426,o),
(549,465,o),
(508,491,c),
(502,464,l),
(626,481,o),
(714,418,o),
(714,313,cs),
(714,194,o),
(599,95,o),
(373,25,c),
(382,-11,l),
(829,50,o),
(1135,235,o),
(1135,402,cs),
(1135,450,o),
(1102,482,o),
(1044,484,cs),
(998,486,o),
(933,472,o),
(884,459,c),
(891,421,l,{
"Letterink-NibData" = {
AngleInDegrees = "360";
};
}),
(922,426,o),
(950,429,o),
(968,428,cs),
(1005,427,o),
(1023,400,o),
(1023,373,cs)
);
}
);
};
backgroundImage = {
imagePath = "/Users/fernandodemoraescaro/Library/CloudStorage/GoogleDrive-fernando.de-moraes-caro@mail.ensa-nancy.fr/Other computers/My MacBook Air/ANRT/Other/Work/Noto/2_Research/1_Character samples/Simple characters/Document 32/Samples/v_D32_140.jpg";
locked = 1;
pos = (-598,-357);
scale = (70,70);
};
layerId = "523C8E5C-D99F-4262-8BBA-D559B38B43EB";
name = "May 15, 24 at 12:58";
shapes = (
{
closed = 1;
nodes = (
(1023,261,o),
(818,124,o),
(535,70,c),
(562,60,l),
(766,132,o),
(832,237,o),
(832,329,cs),
(832,445,o),
(727,509,o),
(583,509,cs),
(520,509,o),
(453,496,o),
(401,478,c),
(401,466,l),
(441,438,o),
(470,386,o),
(470,334,cs),
(470,247,o),
(378,188,o),
(296,188,cs),
(230,188,o),
(198,222,o),
(198,258,cs),
(198,304,o),
(242,334,o),
(298,349,c,{
"Letterink-NibData" = {
AngleInDegrees = "360";
};
}),
(292,388,l),
(185,373,o),
(82,319,o),
(82,237,cs),
(82,175,o),
(147,123,o),
(259,123,cs),
(415,123,o),
(584,230,o),
(584,364,cs),
(584,426,o),
(549,465,o),
(508,491,c),
(502,464,l),
(626,481,o),
(714,418,o),
(714,313,cs),
(714,194,o),
(599,95,o),
(373,25,c),
(382,-11,l),
(829,50,o),
(1135,235,o),
(1135,402,cs),
(1135,450,o),
(1102,482,o),
(1044,484,cs),
(998,486,o),
(933,472,o),
(884,459,c),
(891,421,l,{
"Letterink-NibData" = {
AngleInDegrees = "360";
};
}),
(922,426,o),
(950,429,o),
(968,428,cs),
(1005,427,o),
(1023,400,o),
(1023,373,cs)
);
}
);
width = 1304;
}
);
}
{
glyphname = "ba_va-divesakuru";
kernLeft = ba;
kernRight = va;
lastChange = "2025-02-05 08:22:42 +0000";
layers = (
{
anchors = (
{
name = bottom;
pos = (1358,-471);
},
{
name = caret_1;
pos = (1244,0);
},
{
name = top;
pos = (441,499);
}
);
background = {
shapes = (
{
closed = 1;
nodes = (
(1684,-371,o),
(1911,-252,o),
(1911,-148,cs),
(1911,-100,o),
(1873,-63,o),
(1775,-63,cs),
(1710,-63,o),
(1593,-83,o),
(1448,-129,c,{
"Letterink-NibData" = {
AngleInDegrees = "360";
};
}),
(1459,-172,l,{
"Letterink-NibData" = {
AngleInDegrees = "360";
};
}),
(1562,-142,o),
(1663,-124,o),
(1716,-124,cs),
(1768,-124,o),
(1793,-141,o),
(1793,-167,cs),
(1793,-230,o),
(1614,-311,o),
(1372,-311,cs),
(1181,-311,o),
(1086,-262,o),
(1086,-198,cs),
(1086,-148,o),
(1149,-129,o),
(1238,-99,cs),
(1411,-40,o),
(1588,56,o),
(1588,208,cs),
(1588,316,o),
(1479,399,o),
(1347,399,cs),
(1282,399,o),
(1202,379,o),
(1133,350,c),
(1230,327,l),
(1261,338,o),
(1290,344,o),
(1314,344,cs),
(1397,344,o),
(1473,274,o),
(1473,193,cs),
(1473,67,o),
(1340,-3,o),
(1184,-54,cs),
(1068,-92,o),
(968,-125,o),
(968,-204,cs),
(968,-305,o),
(1114,-371,o),
(1358,-371,cs)
);
},
{
closed = 1;
nodes = (
(799,48,o),
(765,78,o),
(765,112,cs),
(765,140,o),
(798,162,o),
(838,186,cs),
(899,224,o),
(975,273,o),
(975,359,cs),
(975,486,o),
(824,558,o),
(652,558,cs),
(353,558,o),
(75,339,o),
(75,164,cs),
(75,97,o),
(122,51,o),
(192,51,cs),
(268,51,o),
(333,108,o),
(333,168,cs),
(333,213,o),
(296,259,o),
(232,259,cs),
(213,259,o),
(191,255,o),
(167,245,c,{
"Letterink-NibData" = {
AngleInDegrees = "360";
};
}),
(189,219,l),
(227,388,o),
(448,496,o),
(626,496,cs),
(770,496,o),
(854,423,o),
(854,337,cs),
(854,259,o),
(787,220,o),
(727,186,cs),
(680,160,o),
(638,137,o),
(638,94,cs),
(638,31,o),
(715,-12,o),
(855,-12,cs),
(1094,-12,o),
(1305,141,o),
(1305,260,cs),
(1305,305,o),
(1275,342,o),
(1228,363,c,{
"Letterink-NibData" = {
AngleInDegrees = "360";
};
}),
(1133,350,l),
(1132,338,l),
(1172,316,o),
(1198,274,o),
(1198,232,cs),
(1198,133,o),
(1021,48,o),
(876,48,cs)
);
}
);
};
backgroundImage = {
imagePath = "/Users/fernandodemoraescaro/Library/CloudStorage/GoogleDrive-fernando.de-moraes-caro@mail.ensa-nancy.fr/Other computers/My MacBook Air/ANRT/Other/Work/Noto/2_Research/1_Character samples/Conjuncts/Document 32/Conjunct_D32_42.jpg";
pos = (2002,-399);
scale = (-70,70);
};
layerId = "0C4B00F6-5348-41D6-8EE7-AA18FE59D1B1";
shapes = (
{
closed = 1;
nodes = (
(1684,-371,o),
(1911,-252,o),
(1911,-148,cs),
(1911,-100,o),
(1873,-63,o),
(1775,-63,cs),
(1710,-63,o),
(1593,-83,o),
(1448,-129,c,{
"Letterink-NibData" = {
AngleInDegrees = "360";
};
}),
(1459,-172,l,{
"Letterink-NibData" = {
AngleInDegrees = "360";
};
}),
(1562,-142,o),
(1663,-124,o),
(1716,-124,cs),
(1768,-124,o),
(1793,-141,o),
(1793,-167,cs),
(1793,-230,o),
(1614,-311,o),
(1372,-311,cs),
(1181,-311,o),
(1086,-262,o),
(1086,-198,cs),
(1086,-148,o),
(1149,-129,o),
(1238,-99,cs),
(1411,-40,o),
(1588,56,o),
(1588,208,cs),
(1588,316,o),
(1479,399,o),
(1347,399,cs),
(1282,399,o),
(1202,379,o),
(1133,350,c),
(1230,327,l),
(1261,338,o),
(1290,344,o),
(1314,344,cs),
(1397,344,o),
(1473,274,o),
(1473,193,cs),
(1473,67,o),
(1340,-3,o),
(1184,-54,cs),
(1068,-92,o),
(968,-125,o),
(968,-204,cs),
(968,-305,o),
(1114,-371,o),
(1358,-371,cs)
);
},
{
closed = 1;
nodes = (
(799,48,o),
(765,78,o),
(765,112,cs),
(765,140,o),
(798,162,o),
(838,186,cs),
(899,224,o),
(975,273,o),
(975,359,cs),
(975,486,o),
(824,558,o),
(652,558,cs),
(353,558,o),
(75,339,o),
(75,164,cs),
(75,97,o),
(122,51,o),
(192,51,cs),
(268,51,o),
(333,108,o),
(333,168,cs),
(333,213,o),
(296,259,o),
(232,259,cs),
(213,259,o),
(191,255,o),
(167,245,c,{
"Letterink-NibData" = {
AngleInDegrees = "360";
};
}),
(200,219,l),
(247,380,o),
(440,496,o),
(626,496,cs),
(770,496,o),
(854,423,o),
(854,337,cs),
(854,259,o),
(787,220,o),
(727,186,cs),
(680,160,o),
(638,137,o),
(638,94,cs),
(638,31,o),
(715,-12,o),
(855,-12,cs),
(1094,-12,o),
(1305,141,o),
(1305,260,cs),
(1305,305,o),
(1275,342,o),
(1228,363,c,{
"Letterink-NibData" = {
AngleInDegrees = "360";
};
}),
(1133,350,l),
(1132,338,l),
(1172,316,o),
(1198,274,o),
(1198,232,cs),
(1198,133,o),
(1021,48,o),
(876,48,cs)
);
}
);
width = 1941;
},
{
associatedMasterId = "0C4B00F6-5348-41D6-8EE7-AA18FE59D1B1";
backgroundImage = {
imagePath = "/Users/fernandodemoraescaro/Library/CloudStorage/GoogleDrive-fernando.de-moraes-caro@mail.ensa-nancy.fr/Other computers/My MacBook Air/ANRT/Other/Work/Noto/2_Research/1_Character samples/Conjuncts/Document 32/Conjunct_D32_42.jpg";
pos = (-16,-399);
scale = (70,70);
};
layerId = "8E00414C-2D8E-4EFC-B821-73DF09276C07";
name = "Aug 12, 24 at 16:02";
width = 2595;
}
);
metricLeft = "ba-divesakuru";
metricRight = "va-divesakuru";
subCategory = Conjunct;
}
{
glyphname = "da_iVowel-divesakuru";
kernLeft = da;
kernRight = da_iVowel;
lastChange = "2025-02-05 08:22:42 +0000";
layers = (
{
.lastUpdate = 760441945.472;
anchors = (
{
name = bottom;
pos = (522,-610);
},
{
name = caret_1;
pos = (924,0);
},
{
name = top;
pos = (253,886);
}
);
background = {
shapes = (
{
closed = 1;
nodes = (
(281,-508,o),
(415,-490,o),
(568,-449,cs),
(879,-366,o),
(1183,-198,o),
(1183,-12,cs),
(1183,78,o),
(1107,143,o),
(998,143,cs),
(948,143,o),
(897,129,o),
(842,100,c),
(867,56,l,{
"Letterink-NibData" = {
AngleInDegrees = "360";
};
}),
(896,71,o),
(928,84,o),
(959,84,cs),
(1023,84,o),
(1064,31,o),
(1064,-38,cs,{
"Letterink-NibData" = {
AngleInDegrees = "360";
};
}),
(1064,-198,o),
(803,-325,o),
(555,-394,cs),
(423,-431,o),
(305,-448,o),
(204,-448,cs),
(101,-448,o),
(39,-427,o),
(39,-381,cs),
(39,-343,o),
(90,-308,o),
(168,-294,c),
(144,-267,l,{
"Letterink-NibData" = {
AngleInDegrees = "359.99997";
};
}),
(9,-300,o),
(-76,-340,o),
(-76,-407,cs),
(-76,-473,o),
(23,-508,o),
(175,-508,cs)
);
}
);
};
layerId = "0C4B00F6-5348-41D6-8EE7-AA18FE59D1B1";
shapes = (
{
closed = 1;
nodes = (
(281,-508,o),
(415,-490,o),
(568,-449,cs),
(879,-366,o),
(1183,-198,o),
(1183,-12,cs),
(1183,78,o),
(1107,143,o),
(998,143,cs),
(948,143,o),
(897,129,o),
(842,100,c),
(867,56,l,{
"Letterink-NibData" = {
AngleInDegrees = "360";
};
}),
(894,71,o),
(925,84,o),
(954,84,cs),
(1025,84,o),
(1064,31,o),
(1064,-38,cs,{
"Letterink-NibData" = {
AngleInDegrees = "360";
};
}),
(1064,-198,o),
(803,-325,o),
(555,-394,cs),
(423,-431,o),
(305,-448,o),
(204,-448,cs),
(101,-448,o),
(39,-427,o),
(39,-381,cs),
(39,-343,o),
(90,-308,o),
(168,-294,c),
(144,-267,l,{
"Letterink-NibData" = {
AngleInDegrees = "359.99997";
};
}),
(9,-300,o),
(-76,-340,o),
(-76,-407,cs),
(-76,-473,o),
(23,-508,o),
(175,-508,cs)
);
},
{
ref = "da-divesakuru";
}
);
width = 1258;
}
);
metricLeft = "=da-divesakuru-93";
metricRight = "=ka_iVowel-divesakuru";
}
{
glyphname = "dda_aaVowel-divesakuru";
kernLeft = va;
kernRight = dda_aaVowel;
lastChange = "2025-02-05 08:22:42 +0000";
layers = (
{
anchors = (
{
name = bottom;
pos = (797.5,-510);
},
{
name = caret_1;
pos = (1326,0);
},
{
name = top;
pos = (586,509);
}
);
background = {
shapes = (
{
closed = 1;
nodes = (
(1273,-305,o),
(1535,-51,o),
(1535,147,cs),
(1535,286,o),
(1418,414,o),
(1160,414,cs),
(1096,414,o),
(1033,406,o),
(991,394,c),
(999,356,l),
(1033,362,o),
(1063,365,o),
(1100,365,cs),
(1317,365,o),
(1418,260,o),
(1418,129,cs),
(1418,-60,o),
(1197,-258,o),
(671,-359,c),
(678,-402,l,{
"Letterink-NibData" = {
AngleInDegrees = "360";
};
})
);
},
{
closed = 1;
nodes = (
(539,-349,o),
(679,-261,o),
(689,-126,c),
(639,-110,l),
(663,-153,o),
(738,-179,o),
(810,-179,cs),
(1022,-179,o),
(1227,-12,o),
(1227,129,cs),
(1227,189,o),
(1198,219,o),
(1129,219,cs),
(1072,219,o),
(996,201,o),
(940,184,c),
(948,147,l,{
"Letterink-NibData" = {
AngleInDegrees = "360";
};
}),
(990,156,o),
(1028,161,o),
(1050,161,cs),
(1095,161,o),
(1117,143,o),
(1117,98,cs),
(1117,-8,o),
(973,-116,o),
(842,-116,cs),
(768,-116,o),
(724,-93,o),
(688,-37,c),
(592,-67,l),
(597,-86,o),
(599,-105,o),
(599,-122,cs),
(599,-222,o),
(526,-286,o),
(430,-286,cs),
(345,-286,o),
(295,-226,o),
(295,-172,cs),
(295,-108,o),
(356,-79,o),
(447,-48,cs),
(616,10,o),
(831,116,o),
(831,298,cs),
(831,405,o),
(741,509,o),
(586,509,cs),
(522,509,o),
(453,497,o),
(402,480,c),
(402,468,l),
(441,438,o),
(470,384,o),
(470,329,cs),
(470,234,o),
(378,171,o),
(291,171,cs),
(225,171,o),
(191,211,o),
(191,253,cs),
(191,299,o),
(234,336,o),
(287,352,c,{
"Letterink-NibData" = {
AngleInDegrees = "360";
};
}),
(281,391,l),
(177,374,o),
(75,315,o),
(75,233,cs),
(75,165,o),
(144,107,o),
(255,107,cs),
(414,107,o),
(581,218,o),
(581,358,cs),
(581,423,o),
(546,465,o),
(506,492,c),
(501,462,l),
(511,463,o),
(520,464,o),
(530,464,cs),
(648,464,o),
(716,367,o),
(716,280,cs),
(716,124,o),
(546,44,o),
(393,-5,cs),
(276,-43,o),
(177,-86,o),
(177,-183,cs),
(177,-279,o),
(286,-349,o),
(409,-349,cs)
);
}
);
};
layerId = "0C4B00F6-5348-41D6-8EE7-AA18FE59D1B1";
shapes = (
{
closed = 1;
nodes = (
(1273,-305,o),
(1535,-51,o),
(1535,147,cs),
(1535,286,o),
(1418,414,o),
(1160,414,cs),
(1096,414,o),
(1033,406,o),
(991,394,c),
(999,356,l),
(1033,362,o),
(1063,365,o),
(1100,365,cs),
(1317,365,o),
(1418,260,o),
(1418,129,cs),
(1418,-60,o),
(1197,-258,o),
(671,-359,c),
(678,-402,l,{
"Letterink-NibData" = {
AngleInDegrees = "360";
};
})
);
},
{
closed = 1;
nodes = (
(597,-86,o),
(599,-105,o),
(599,-122,cs),
(599,-222,o),
(526,-286,o),
(430,-286,cs),
(345,-286,o),
(295,-226,o),
(295,-172,cs),
(295,-108,o),
(356,-79,o),
(447,-48,cs),
(616,10,o),
(831,116,o),
(831,298,cs),
(831,405,o),
(741,509,o),
(586,509,cs),
(522,509,o),
(453,497,o),
(402,480,c),
(402,468,l),
(441,438,o),
(470,384,o),
(470,329,cs),
(470,234,o),
(378,171,o),
(291,171,cs),
(225,171,o),
(191,211,o),
(191,253,cs),
(191,299,o),
(234,336,o),
(287,352,c,{
"Letterink-NibData" = {
AngleInDegrees = "360";
};
}),
(281,391,l),
(177,374,o),
(75,315,o),
(75,233,cs),
(75,165,o),
(144,107,o),
(255,107,cs),
(414,107,o),
(581,218,o),
(581,358,cs),
(581,423,o),
(546,465,o),
(506,492,c),
(501,462,l),
(511,463,o),
(520,464,o),
(530,464,cs),
(648,464,o),
(716,367,o),
(716,280,cs),
(716,124,o),
(546,44,o),
(393,-5,cs),
(276,-43,o),
(177,-86,o),
(177,-183,cs),
(177,-279,o),
(286,-349,o),
(409,-349,cs),
(539,-349,o),
(679,-261,o),
(689,-126,c),
(639,-110,l),
(663,-153,o),
(738,-179,o),
(810,-179,cs),
(1022,-179,o),
(1227,-12,o),
(1227,129,cs),
(1227,189,o),
(1198,219,o),
(1129,219,cs),
(1072,219,o),
(996,201,o),
(940,184,c),
(948,147,l,{
"Letterink-NibData" = {
AngleInDegrees = "360";
};
}),
(990,156,o),
(1028,161,o),
(1050,161,cs),
(1095,161,o),
(1117,143,o),
(1117,98,cs),
(1117,-8,o),
(973,-116,o),
(832,-116,cs),
(768,-116,o),
(731,-83,o),
(708,-32,c),
(592,-67,l)
);
}
);
width = 1610;
}
);
metricLeft = "=u-divesakuru";
metricRight = "=ka_aaVowel-divesakuru";
}
{
category = Mark;
glyphname = "dda_halanta-divesakuru.undera";
lastChange = "2025-02-05 08:22:42 +0000";
layers = (
{
anchors = (
{
name = _undera;
pos = (722,0);
},
{
name = _underatwo;
},
{
name = bottom;
pos = (768,-353);
},
{
name = caret_1;
pos = (1326,0);
},
{
name = top;
pos = (586,862);
}
);
layerId = "0C4B00F6-5348-41D6-8EE7-AA18FE59D1B1";
shapes = (
{
closed = 1;
nodes = (
(792,-139,o),
(737,-97,o),
(708,-32,c),
(592,-67,l),
(597,-86,o),
(599,-105,o),
(599,-122,cs),
(599,-222,o),
(526,-286,o),
(430,-286,cs),
(345,-286,o),
(295,-226,o),
(295,-172,cs),
(295,-108,o),
(356,-79,o),
(447,-48,cs),
(616,10,o),
(831,116,o),
(831,298,cs),
(831,405,o),
(741,509,o),
(586,509,cs),
(522,509,o),
(453,497,o),
(402,480,c),
(402,468,l),
(441,438,o),
(470,384,o),
(470,329,cs),
(470,234,o),
(378,171,o),
(291,171,cs),
(225,171,o),
(191,211,o),
(191,253,cs),
(191,299,o),
(234,336,o),
(287,352,c,{
"Letterink-NibData" = {
AngleInDegrees = "360";
};
}),
(281,391,l),
(177,374,o),
(75,315,o),
(75,233,cs),
(75,165,o),
(144,107,o),
(255,107,cs),
(414,107,o),
(581,218,o),
(581,358,cs),
(581,423,o),
(546,465,o),
(506,492,c),
(501,462,l),
(511,463,o),
(520,464,o),
(530,464,cs),
(648,464,o),
(716,367,o),
(716,280,cs),
(716,124,o),
(546,44,o),
(393,-5,cs),
(276,-43,o),
(177,-86,o),
(177,-183,cs),
(177,-279,o),
(286,-349,o),
(409,-349,cs),
(539,-349,o),
(679,-261,o),
(689,-126,c),
(639,-110,l),
(668,-159,o),
(748,-199,o),
(860,-199,cs),
(1088,-199,o),
(1304,-54,o),
(1319,349,cs),
(1324,472,o),
(1317,806,o),
(1328,906,cs),
(1353,1142,o),
(1448,1232,o),
(1854,1254,c),
(1853,1299,l),
(1391,1279,o),
(1254,1167,o),
(1227,912,cs),
(1218,823,o),
(1220,469,o),
(1216,340,cs),
(1206,5,o),
(1057,-139,o),
(885,-139,cs)
);
}
);
width = 1436;
}
);
subCategory = Nonspacing;
}
{
glyphname = "dda_medya_iVowel-divesakuru";
kernLeft = va;
kernRight = ga;
lastChange = "2025-02-05 08:22:42 +0000";
layers = (
{
anchors = (
{
name = bottom;
pos = (1161,-382);
},
{
name = caret_1;
pos = (1326,0);
},
{
name = caret_2;
pos = (1979,0);
},
{
name = top;
pos = (586,509);
}
);
background = {
shapes = (
{
closed = 1;
nodes = (
(1330,-282,o),
(1573,-101,o),
(1573,145,cs),
(1573,380,o),
(1375,515,o),
(1160,515,cs),
(1103,515,o),
(1045,505,o),
(990,485,c),
(998,448,l),
(1038,457,o),
(1080,462,o),
(1119,462,cs),
(1302,462,o),
(1458,340,o),
(1458,132,cs),
(1458,-48,o),
(1323,-222,o),
(1146,-222,cs),
(1074,-222,o),
(1037,-189,o),
(1037,-140,cs),
(1037,-84,o),
(1122,-32,o),
(1237,-32,cs),
(1334,-32,o),
(1454,-56,o),
(1549,-56,cs),
(1774,-56,o),
(1953,80,o),
(1953,210,cs),
(1953,252,o),
(1934,281,o),
(1909,306,c),
(1907,278,l),
(1931,285,o),
(1957,289,o),
(1980,289,cs),
(2066,289,o),
(2123,233,o),
(2123,162,cs),
(2123,-15,o),
(1771,-166,o),
(1345,-173,c),
(1275,-229,l),
(1794,-238,o),
(2241,-34,o),
(2241,180,cs),
(2241,281,o),
(2140,341,o),
(2017,341,cs),
(1957,341,o),
(1881,327,o),
(1800,293,c),
(1797,281,l),
(1823,263,o),
(1842,219,o),
(1842,190,cs),
(1842,79,o),
(1721,7,o),
(1583,7,cs),
(1512,7,o),
(1390,31,o),
(1278,31,cs),
(1216,31,o),
(1153,17,o),
(1099,-5,c),
(939,-121,l),
(933,-133,o),
(929,-144,o),
(929,-154,cs),
(929,-224,o),
(1006,-282,o),
(1127,-282,cs)
);
},
{
closed = 1;
nodes = (
(345,-286,o),
(295,-226,o),
(295,-172,cs),
(295,-108,o),
(356,-79,o),
(447,-48,cs),
(616,10,o),
(831,116,o),
(831,298,cs),
(831,405,o),
(741,509,o),
(586,509,cs),
(522,509,o),
(453,497,o),
(402,480,c),
(402,468,l),
(441,438,o),
(470,384,o),
(470,329,cs),
(470,234,o),
(378,171,o),
(291,171,cs),
(225,171,o),
(191,211,o),
(191,253,cs),
(191,299,o),
(234,336,o),
(287,352,c,{
"Letterink-NibData" = {
AngleInDegrees = "360";
};
}),
(281,391,l),
(177,374,o),
(75,315,o),
(75,233,cs),
(75,165,o),
(144,107,o),
(255,107,cs),
(414,107,o),
(581,218,o),
(581,358,cs),
(581,423,o),
(546,465,o),
(506,492,c),
(501,462,l),
(511,463,o),
(520,464,o),
(530,464,cs),
(648,464,o),
(716,367,o),
(716,280,cs),
(716,124,o),
(546,44,o),
(393,-5,cs),
(276,-43,o),
(177,-86,o),
(177,-183,cs),
(177,-279,o),
(286,-349,o),
(409,-349,cs),
(539,-349,o),
(679,-261,o),
(689,-126,c),
(639,-110,l),
(661,-153,o),
(743,-179,o),
(806,-179,cs),
(867,-179,o),
(936,-155,o),
(996,-119,c),
(1118,-27,l),
(1194,39,o),
(1227,108,o),
(1227,159,cs),
(1227,209,o),
(1198,239,o),
(1129,239,cs),
(1072,239,o),
(996,221,o),
(940,204,c),
(948,167,l,{
"Letterink-NibData" = {
AngleInDegrees = "360";
};
}),
(990,176,o),
(1028,181,o),
(1050,181,cs),
(1095,181,o),
(1117,163,o),
(1117,118,cs),
(1117,2,o),
(974,-116,o),
(843,-116,cs),
(769,-116,o),
(725,-93,o),
(688,-37,c),
(592,-67,l),
(597,-86,o),
(599,-105,o),
(599,-122,cs),
(599,-222,o),
(526,-286,o),
(430,-286,cs)
);
}
);
};
backgroundImage = {
imagePath = "/Users/fernandodemoraescaro/Library/CloudStorage/GoogleDrive-fernando.de-moraes-caro@mail.ensa-nancy.fr/Other computers/My MacBook Air/ANRT/Other/Work/Noto/2_Research/1_Character samples/Conjuncts/Document 02/Conjunct_D02_90.jpg";
pos = (5,-157);
scale = (48.6418,48.6418);
};
layerId = "0C4B00F6-5348-41D6-8EE7-AA18FE59D1B1";
shapes = (
{
closed = 1;
nodes = (
(1330,-282,o),
(1573,-101,o),
(1573,145,cs),
(1573,380,o),
(1375,515,o),
(1160,515,cs),
(1103,515,o),
(1045,505,o),
(990,485,c),
(998,448,l),
(1038,457,o),
(1080,462,o),
(1119,462,cs),
(1302,462,o),
(1458,340,o),
(1458,132,cs),
(1458,-48,o),
(1323,-222,o),
(1146,-222,cs),
(1074,-222,o),
(1037,-189,o),
(1037,-140,cs),
(1037,-84,o),
(1122,-32,o),
(1237,-32,cs),
(1334,-32,o),
(1454,-56,o),
(1549,-56,cs),
(1774,-56,o),
(1953,80,o),
(1953,210,cs),
(1953,252,o),
(1934,281,o),
(1909,306,c),
(1907,278,l),
(1931,285,o),
(1957,289,o),
(1980,289,cs),
(2066,289,o),
(2123,233,o),
(2123,162,cs),
(2123,-15,o),
(1771,-166,o),
(1345,-173,c),
(1275,-229,l),
(1794,-238,o),
(2241,-34,o),
(2241,180,cs),
(2241,281,o),
(2140,341,o),
(2017,341,cs),
(1957,341,o),
(1881,327,o),
(1800,293,c),
(1797,281,l),
(1823,263,o),
(1842,219,o),
(1842,190,cs),
(1842,79,o),
(1721,7,o),
(1583,7,cs),
(1512,7,o),
(1390,31,o),
(1278,31,cs),
(1216,31,o),
(1153,17,o),
(1099,-5,c),
(939,-121,l),
(933,-133,o),
(929,-144,o),
(929,-154,cs),
(929,-224,o),
(1006,-282,o),
(1127,-282,cs)
);
},
{
closed = 1;
nodes = (
(773,-116,o),
(733,-83,o),
(708,-32,c),
(592,-67,l),
(597,-86,o),
(599,-105,o),
(599,-122,cs),
(599,-222,o),
(526,-286,o),
(430,-286,cs),
(345,-286,o),
(295,-226,o),
(295,-172,cs),
(295,-108,o),
(356,-79,o),
(447,-48,cs),
(616,10,o),
(831,116,o),
(831,298,cs),
(831,405,o),
(741,509,o),
(586,509,cs),
(522,509,o),
(453,497,o),
(402,480,c),
(402,468,l),
(441,438,o),
(470,384,o),
(470,329,cs),
(470,234,o),
(378,171,o),
(291,171,cs),
(225,171,o),
(191,211,o),
(191,253,cs),
(191,299,o),
(234,336,o),
(287,352,c,{
"Letterink-NibData" = {
AngleInDegrees = "360";
};
}),
(281,391,l),
(177,374,o),
(75,315,o),
(75,233,cs),
(75,165,o),
(144,107,o),
(255,107,cs),
(414,107,o),
(581,218,o),
(581,358,cs),
(581,423,o),
(546,465,o),
(506,492,c),
(501,462,l),
(511,463,o),
(520,464,o),
(530,464,cs),
(648,464,o),
(716,367,o),
(716,280,cs),
(716,124,o),
(546,44,o),
(393,-5,cs),
(276,-43,o),
(177,-86,o),
(177,-183,cs),
(177,-279,o),
(286,-349,o),
(409,-349,cs),
(539,-349,o),
(679,-261,o),
(689,-126,c),
(639,-110,l),
(661,-153,o),
(743,-179,o),
(806,-179,cs),
(867,-179,o),
(936,-155,o),
(996,-119,c),
(1118,-27,l),
(1194,39,o),
(1227,108,o),
(1227,159,cs),
(1227,209,o),
(1198,239,o),
(1129,239,cs),
(1072,239,o),
(996,221,o),
(940,204,c),
(948,167,l,{
"Letterink-NibData" = {
AngleInDegrees = "360";
};
}),
(990,176,o),
(1028,181,o),
(1050,181,cs),
(1095,181,o),
(1117,163,o),
(1117,118,cs),
(1117,2,o),
(974,-116,o),
(843,-116,cs)
);
}
);
width = 2316;
},
{
associatedMasterId = "0C4B00F6-5348-41D6-8EE7-AA18FE59D1B1";
backgroundImage = {
imagePath = "/Users/fernandodemoraescaro/Library/CloudStorage/GoogleDrive-fernando.de-moraes-caro@mail.ensa-nancy.fr/Other computers/My MacBook Air/ANRT/Other/Work/Noto/2_Research/1_Character samples/Conjuncts/Document 02/Conjunct_D02_90.jpg";
pos = (5,-157);
scale = (48.6418,48.6418);
};
layerId = "25DA4486-CEE4-4D83-B36B-95670C81A4DC";
name = "Aug 12, 24 at 12:46";
width = 2500;
},
{
anchors = (
{
name = bottom;
pos = (1161,-382);
},
{
name = caret_1;
pos = (1326,0);
},
{
name = caret_2;
pos = (1979,0);
},
{
name = top;
pos = (586,509);
}
);
associatedMasterId = "0C4B00F6-5348-41D6-8EE7-AA18FE59D1B1";
background = {
shapes = (
{
closed = 1;
nodes = (
(539,-349,o),
(679,-261,o),
(689,-126,c),
(639,-110,l),
(663,-153,o),
(738,-179,o),
(810,-179,cs),
(1022,-179,o),
(1227,-1,o),
(1227,149,cs),
(1227,209,o),
(1198,239,o),
(1129,239,cs),
(1072,239,o),
(996,221,o),
(940,204,c),
(948,167,l,{
"Letterink-NibData" = {
AngleInDegrees = "360";
};
}),
(990,176,o),
(1028,181,o),
(1050,181,cs),
(1095,181,o),
(1117,163,o),
(1117,118,cs),
(1117,2,o),
(973,-116,o),
(842,-116,cs),
(768,-116,o),
(724,-93,o),
(688,-37,c),
(592,-67,l),
(597,-86,o),
(599,-105,o),
(599,-122,cs),
(599,-222,o),
(526,-286,o),
(430,-286,cs),
(345,-286,o),
(295,-226,o),
(295,-172,cs),
(295,-109,o),
(356,-81,o),
(447,-49,cs),
(616,9,o),
(831,115,o),
(831,298,cs),
(831,405,o),
(741,509,o),
(586,509,cs),
(522,509,o),
(453,497,o),
(402,480,c),
(402,468,l),
(441,438,o),
(470,384,o),
(470,329,cs),
(470,235,o),
(378,172,o),
(291,172,cs),
(225,172,o),
(191,212,o),
(191,253,cs),
(191,299,o),
(234,336,o),
(287,352,c,{
"Letterink-NibData" = {
AngleInDegrees = "360";
};
}),
(281,391,l),
(177,374,o),
(75,315,o),
(75,233,cs),
(75,165,o),
(144,107,o),
(255,107,cs),
(414,107,o),
(581,218,o),
(581,358,cs),
(581,423,o),
(546,465,o),
(506,492,c),
(501,462,l),
(511,463,o),
(520,464,o),
(530,464,cs),
(648,464,o),
(716,367,o),
(716,280,cs),
(716,125,o),
(546,45,o),
(393,-4,cs),
(277,-44,o),
(177,-85,o),
(177,-183,cs),
(177,-279,o),
(286,-349,o),
(409,-349,cs)
);
}
);
};
backgroundImage = {
imagePath = "/Users/fernandodemoraescaro/Library/CloudStorage/GoogleDrive-fernando.de-moraes-caro@mail.ensa-nancy.fr/Other computers/My MacBook Air/ANRT/Other/Work/Noto/2_Research/1_Character samples/Conjuncts/Document 02/Conjunct_D02_90.jpg";
pos = (5,-157);
scale = (48.6418,48.6418);
};
layerId = "1835FB1E-81A5-4251-84CD-5C4C289D66A9";
name = "Aug 26, 24 at 17:32";
shapes = (
{
closed = 1;
nodes = (
(1330,-282,o),
(1573,-101,o),
(1573,145,cs),
(1573,380,o),
(1375,515,o),
(1160,515,cs),
(1103,515,o),
(1045,505,o),
(990,485,c),
(998,448,l),
(1038,457,o),
(1080,462,o),
(1119,462,cs),
(1302,462,o),
(1458,340,o),
(1458,132,cs),
(1458,-48,o),
(1323,-222,o),
(1146,-222,cs),
(1074,-222,o),
(1037,-189,o),
(1037,-140,cs),
(1037,-84,o),
(1122,-32,o),
(1237,-32,cs),
(1328,-32,o),
(1440,-56,o),
(1529,-56,cs),
(1765,-56,o),
(1953,80,o),
(1953,212,cs),
(1953,252,o),
(1934,281,o),
(1909,306,c),
(1907,278,l),
(1931,285,o),
(1957,289,o),
(1976,289,cs),
(2066,289,o),
(2123,233,o),
(2123,155,cs),
(2123,-14,o),
(1771,-168,o),
(1345,-176,c),
(1275,-229,l),
(1794,-238,o),
(2241,-34,o),
(2241,168,cs),
(2241,281,o),
(2140,341,o),
(2013,341,cs),
(1957,341,o),
(1881,327,o),
(1800,293,c),
(1797,281,l),
(1823,263,o),
(1842,219,o),
(1842,190,cs),
(1842,79,o),
(1721,7,o),
(1583,7,cs),
(1512,7,o),
(1390,31,o),
(1278,31,cs),
(1216,31,o),
(1153,17,o),
(1099,-5,c),
(939,-121,l),
(933,-133,o),
(929,-144,o),
(929,-154,cs),
(929,-224,o),
(1006,-282,o),
(1127,-282,cs)
);
},
{
closed = 1;
nodes = (
(559,-349,o),
(689,-271,o),
(689,-126,c),
(639,-110,l),
(661,-153,o),
(731,-179,o),
(798,-179,cs),
(867,-179,o),
(936,-155,o),
(996,-119,c),
(1118,-27,l),
(1194,39,o),
(1227,108,o),
(1227,159,cs),
(1227,209,o),
(1198,239,o),
(1129,239,cs),
(1072,239,o),
(996,221,o),
(940,204,c),
(948,167,l,{
"Letterink-NibData" = {
AngleInDegrees = "360";
};
}),
(990,176,o),
(1028,181,o),
(1050,181,cs),
(1095,181,o),
(1117,163,o),
(1117,118,cs),
(1117,2,o),
(974,-116,o),
(843,-116,cs),
(769,-116,o),
(725,-93,o),
(688,-37,c),
(589,-67,l),
(596,-91,o),
(600,-113,o),
(600,-134,cs),
(600,-225,o),
(541,-286,o),
(443,-286,cs),
(351,-286,o),
(295,-226,o),
(295,-172,cs),
(295,-109,o),
(356,-80,o),
(447,-49,cs),
(616,9,o),
(831,115,o),
(831,298,cs),
(831,405,o),
(741,509,o),
(586,509,cs),
(522,509,o),
(453,497,o),
(402,480,c),
(402,468,l),
(441,438,o),
(470,384,o),
(470,329,cs),
(470,235,o),
(378,172,o),
(291,172,cs),
(225,172,o),
(191,212,o),
(191,253,cs),
(191,299,o),
(234,336,o),
(287,352,c,{
"Letterink-NibData" = {
AngleInDegrees = "360";
};
}),
(281,391,l),
(177,374,o),
(75,315,o),
(75,233,cs),
(75,165,o),
(144,107,o),
(255,107,cs),
(414,107,o),
(581,218,o),
(581,358,cs),
(581,423,o),
(546,465,o),
(506,492,c),
(501,462,l),
(511,463,o),
(520,464,o),
(530,464,cs),
(648,464,o),
(716,367,o),
(716,280,cs),
(716,125,o),
(546,45,o),
(393,-4,cs),
(276,-42,o),
(177,-85,o),
(177,-183,cs),
(177,-279,o),
(293,-349,o),
(422,-349,cs)
);
}
);
width = 2316;
}
);
metricLeft = "dda-divesakuru";
metricRight = "ha_medya_iVowel-divesakuru";
subCategory = Conjunct;
}
